<?xml version="1.0" encoding="utf-8"?>
<!-- Generator: Adobe Illustrator 17.0.0, SVG Export Plug-In . SVG Version: 6.00 Build 0)  -->
<!DOCTYPE svg PUBLIC "-//W3C//DTD SVG 1.1//EN" "http://www.w3.org/Graphics/SVG/1.1/DTD/svg11.dtd">
<svg version="1.1" id="Layer_1" xmlns="http://www.w3.org/2000/svg" xmlns:xlink="http://www.w3.org/1999/xlink" x="0px" y="0px"
	 width="860.403px" height="593.86px" viewBox="921.704 0 860.403 593.86" enable-background="new 921.704 0 860.403 593.86"
	 xml:space="preserve">
<g>
	<defs>
		<rect id="SVGID_1_" x="921.704" width="860.403" height="593.86"/>
	</defs>
	<clipPath id="SVGID_2_">
		<use xlink:href="#SVGID_1_"  overflow="visible"/>
	</clipPath>
	<g clip-path="url(#SVGID_2_)">
		<rect x="1361.311" y="213.437" fill="#EAEAEA" width="17.798" height="20.258"/>
		<path fill="#EAEAEA" d="M1464.774,176.248v6.222v51.08h-80.599v-25.612h-28.506v25.612h-100.134v-51.08h6.801v-19.535
			c0-2.46,1.881-4.341,4.341-4.341h25.902l2.026-65.116h17.22l3.762,65.55h12.155l1.447-38.925h10.997l2.749,38.925h5.354
			l1.881-38.925h11.287l2.894,38.346h10.274c2.46,0,4.341,1.881,4.341,4.341v5.065c4.196,1.013,7.669,4.196,8.827,8.248h31.111
			V77.416h-1.302v-7.235h-1.302c0,0,0-4.196,0-5.788c0-1.447,20.548-1.592,20.548,0s0,5.788,0,5.788h-1.447v7.235h-1.302v98.832
			H1464.774z M1395.751,202.584h23.442V187.39h-23.442V202.584z M1429.322,202.584h23.587V187.39h-23.442v15.194H1429.322z
			 M1429.322,224.434h23.587V209.24h-23.442v15.194H1429.322z M1395.751,224.434h23.442V209.24h-23.442V224.434z"/>
		<rect x="1476.35" y="122.708" fill="#EAEAEA" width="5.354" height="6.078"/>
		<path fill="#EAEAEA" d="M1507.172,111.711v1.881v15.194h-24.021v-7.669h-8.537v7.669h-29.809v-15.338h2.026v-5.788
			c0-0.724,0.579-1.302,1.302-1.302h7.669l0.579-19.39h5.065l1.158,19.535h3.618l0.434-11.576h3.328l0.868,11.576h1.592
			l0.579-11.576h3.328l0.868,11.432h3.039c0.724,0,1.302,0.579,1.302,1.302v1.447c1.302,0.289,2.315,1.302,2.605,2.46h9.261V82.191
			h-0.434v-2.171h-0.434c0,0,0-1.302,0-1.736s6.078-0.434,6.078,0s0,1.736,0,1.736h-0.434v2.171h-0.434v29.519H1507.172z
			 M1486.624,119.525h6.946v-4.486h-6.946V119.525z M1496.753,119.525h6.946v-4.486h-6.946V119.525z M1496.753,126.036h6.946v-4.486
			h-6.946V126.036z M1486.624,126.036h6.946v-4.486h-6.946V126.036z"/>
		<rect x="1204.598" y="265.819" fill="#EAEAEA" width="8.103" height="9.261"/>
		<path fill="#EAEAEA" d="M1251.916,248.889v2.894v23.442h-36.755v-11.721h-13.023v11.721h-45.871v-23.442h3.039v-8.972
			c0-1.158,0.868-2.026,2.026-2.026h11.866l0.868-29.809h7.814l1.736,29.953h5.499l0.724-17.798h5.065l1.302,17.798h2.46
			l0.868-17.798h5.065l1.302,17.509h4.63c1.158,0,2.026,0.868,2.026,2.026v2.315c1.881,0.434,3.473,1.881,4.052,3.762h14.181
			v-45.147h-0.579v-3.328h-0.579c0,0,0-1.881,0-2.605c0-0.724,9.406-0.724,9.406,0c0,0.724,0,2.605,0,2.605h-0.579v3.328h-0.579
			v45.292H1251.916z M1220.371,260.899h10.708v-6.946h-10.708V260.899z M1235.709,260.899h10.708v-6.946h-10.708V260.899z
			 M1235.709,270.884h10.708v-6.946h-10.708V270.884z M1220.371,270.884h10.708v-6.946h-10.708V270.884z"/>
		<rect x="1662.004" y="519.049" fill="#EAEAEA" width="3.183" height="3.618"/>
		<path fill="#EAEAEA" d="M1680.671,512.393v1.158v9.261h-14.615v-4.775h-5.209v4.63h-18.088v-9.261h1.158v-3.618
			c0-0.434,0.289-0.724,0.724-0.724h4.63l0.434-11.866h3.183l0.724,11.866h2.171l0.289-7.09h2.026l0.434,7.09h1.013l0.289-7.09
			h2.026l0.579,6.946h1.881c0.434,0,0.724,0.289,0.724,0.724v0.868c0.724,0.145,1.447,0.724,1.592,1.447h5.643v-17.943h-0.289
			v-1.302h-0.289c0,0,0-0.724,0-1.013c0-0.289,3.762-0.289,3.762,0c0,0.289,0,1.013,0,1.013h-0.289v1.302h-0.289v17.943h5.788
			V512.393z M1668.226,517.168h4.196v-2.749h-4.196V517.168L1668.226,517.168z M1674.304,517.168h4.196v-2.749h-4.196V517.168z
			 M1674.304,521.075h4.196v-2.749h-4.196V521.075z M1668.226,521.075h4.196v-2.749h-4.196V521.075L1668.226,521.075z"/>
		<rect x="1563.895" y="491.121" fill="#EAEAEA" width="3.328" height="3.762"/>
		<path fill="#EAEAEA" d="M1582.851,484.32v1.158v9.406h-14.76v-4.63h-5.209v4.63h-18.377v-9.406h1.302v-3.618
			c0-0.434,0.289-0.868,0.868-0.868h4.775l0.434-11.866h3.183l0.724,12.01h2.171l0.289-7.09h2.026l0.434,7.09h1.013l0.289-7.09
			h2.026l0.579,7.09h1.881c0.434,0,0.868,0.289,0.868,0.868v0.868c0.724,0.145,1.447,0.724,1.592,1.592h5.643v-18.088h-0.289v-1.302
			h-0.289c0,0,0-0.724,0-1.013s3.762-0.289,3.762,0s0,1.013,0,1.013h-0.289v1.302h-0.289v18.088h5.644V484.32z M1570.262,489.096
			h4.341v-2.749h-4.341V489.096z M1576.34,489.096h4.341v-2.749h-4.341V489.096z M1576.34,493.147h4.341v-2.749h-4.341V493.147z
			 M1570.262,493.147h4.341v-2.749h-4.341V493.147z"/>
		<path fill="#EAEAEA" d="M1780.371,196.941v0.868v14.036h-29.953v-14.036h1.013v-2.749c0-0.289,0.289-0.579,0.579-0.579h3.762
			l0.289-9.406h2.46l0.579,9.406h1.736l0.145-5.643h1.592l0.434,5.643h0.724l0.289-5.643h1.592l0.434,5.499h1.447
			c0.289,0,0.579,0.289,0.579,0.579v0.724c0.579,0.145,1.158,0.579,1.302,1.158h4.486v-14.181h-0.145v-1.013h-0.145
			c0,0,0-0.579,0-0.868s2.894-0.289,2.894,0s0,0.868,0,0.868h-0.145v1.013h-0.145v14.181h4.196V196.941z M1770.531,200.703h3.328
			v-2.171h-3.328V200.703z M1775.306,200.703h3.328v-2.171h-3.328V200.703z M1775.306,203.886h3.328v-2.171h-3.328V203.886z
			 M1770.531,203.886h3.328v-2.171h-3.328V203.886z"/>
		<rect x="927.637" y="325.581" fill="#EAEAEA" width="96.951" height="180.444"/>
		<path fill="#EAEAEA" d="M1149.466,290.853v34.729h-128.786v-34.729h39.649v-29.23h12.01l2.46-57.447h11.721l2.315,57.447h11.287
			v-18.522h10.129l2.171-47.173h11.432l2.026,47.173h10.129v18.522h7.525v29.23H1149.466z M1043.544,303.152h-11.287v11.287h11.287
			V303.152z M1062.066,303.152h-11.287v11.287h11.287V303.152z M1080.733,303.152h-11.287v11.287h11.287V303.152z M1097.952,303.152
			h-11.287v11.287h11.287V303.152z M1116.185,303.152h-11.287v11.287h11.287V303.152z M1082.18,273.199h-8.393v8.393h8.393V273.199z
			 M1095.058,273.199h-8.393v8.393h8.393V273.199z M1107.792,273.199h-8.393v8.393h8.393V273.199z M1119.802,273.199h-8.393v8.393
			h8.393V273.199z M1132.536,273.199h-8.393v8.393h8.393V273.199z"/>
		<path fill="#EAEAEA" d="M1062.5,203.886v16.93h-62.512v-16.93h19.245v-14.181h5.788l1.158-27.928h5.643l1.158,27.928h5.499v-8.972
			h4.92l1.013-22.863h5.499l1.013,22.863h4.92v8.972h3.618v14.181H1062.5z M1010.986,209.819h-5.499v5.499h5.499V209.819z
			 M1020.102,209.819h-5.499v5.499h5.499V209.819z M1029.074,209.819h-5.499v5.499h5.499V209.819z M1037.466,209.819h-5.499v5.499
			h5.499V209.819z M1046.293,209.819h-5.499v5.499h5.499V209.819z M1029.797,195.349h-4.052v4.052h4.052V195.349z M1036.019,195.349
			h-4.052v4.052h4.052V195.349z M1042.242,195.349h-4.052v4.052h4.052V195.349z M1048.03,195.349h-4.052v4.052h4.052V195.349z
			 M1054.252,195.349h-4.052v4.052h4.052V195.349z"/>
		<path fill="#EAEAEA" d="M1629.88,325.292v25.612h-95.07v-25.612h29.23v-21.561h8.827l1.881-42.398h8.682l1.736,42.398h8.393
			v-13.602h7.38l1.592-34.873h8.393l1.592,34.873h7.38v13.602h5.643v21.561H1629.88z M1551.596,334.408h-8.248v8.248h8.248V334.408z
			 M1565.342,334.408h-8.248v8.248h8.248V334.408z M1579.089,334.408h-8.248v8.248h8.248V334.408z M1591.823,334.408h-8.248v8.248
			h8.248V334.408z M1605.28,334.408h-8.248v8.248h8.248V334.408z M1580.102,312.124h-6.078v6.078h6.078V312.124z M1589.652,312.124
			h-6.078v6.078h6.078V312.124z M1599.058,312.124h-6.078v6.078h6.078V312.124z M1607.885,312.124h-6.078v6.078h6.078V312.124z
			 M1617.435,312.124h-6.078v6.078h6.078V312.124z"/>
		<path fill="#EAEAEA" d="M1680.381,247.442h-129.364v-24.744h17.364v-20.982h20.258v-20.548h78.429c0,0,0.868,15.483,6.078,30.098
			C1676.908,221.685,1680.381,239.773,1680.381,247.442z M1607.017,187.824h-11.866v53.54h11.866V187.824z M1624.381,187.824
			h-11.866v53.54h11.866V187.824z M1641.745,187.824h-11.866v53.54h11.866V187.824z M1660.412,187.824h-11.866v53.54h11.866V187.824
			z"/>
		<path fill="#EAEAEA" d="M1670.831,453.643h-95.07v-18.233h12.734v-15.483h14.904v-15.049h57.592c0,0,0.579,11.287,4.486,22.139
			C1668.226,434.687,1670.831,448,1670.831,453.643z M1616.857,409.798h-8.682v39.359h8.682V409.798z M1629.59,409.798h-8.682
			v39.359h8.682V409.798z M1642.324,409.798h-8.682v39.359h8.682V409.798z M1656.071,409.798h-8.682v39.359h8.682V409.798z"/>
		<polygon fill="#EAEAEA" points="1648.836,400.827 1645.652,366.243 1634.655,366.243 1631.182,400.827 		"/>
		<polygon fill="#EAEAEA" points="1649.849,176.537 1647.099,128.062 1630.603,128.062 1627.709,176.537 		"/>
		<polygon fill="#EAEAEA" points="1030.087,474.625 1129.353,468.548 1129.353,447.421 1030.087,441.054 		"/>
		<polygon fill="#EAEAEA" points="1252.495,569.116 1251.193,553.488 1246.996,553.488 1245.694,569.116 		"/>
		<polygon fill="#EAEAEA" points="1270.293,569.116 1269.136,553.488 1264.939,553.488 1263.637,569.116 		"/>
		<polygon fill="#EAEAEA" points="1499.937,576.207 1497.911,550.305 1490.82,550.305 1488.795,576.207 		"/>
		<polygon fill="#EAEAEA" points="1356.826,589.375 1354.8,563.473 1347.709,563.473 1345.539,589.375 		"/>
		<polygon fill="#EAEAEA" points="1592.981,585.612 1590.231,559.855 1581.26,559.855 1578.51,585.612 		"/>
		<polygon fill="#EAEAEA" points="1606.004,589.23 1603.399,563.328 1594.428,563.328 1591.678,589.23 		"/>
		<polygon fill="#EAEAEA" points="1619.895,593.86 1617.291,568.103 1608.319,568.103 1605.57,593.86 		"/>
		<polygon fill="#EAEAEA" points="1030.087,383.897 1129.353,377.674 1129.353,356.693 1030.087,350.181 		"/>
		<polygon fill="#EAEAEA" points="1291.275,29.953 1289.539,2.315 1283.751,2.315 1281.87,29.953 		"/>
		<polygon fill="#EAEAEA" points="1265.952,29.953 1264.36,2.315 1258.428,2.315 1256.691,29.953 		"/>
		<polygon fill="#EAEAEA" points="1244.97,440.041 1242.944,408.641 1236.288,408.641 1234.262,440.041 		"/>
		<polygon fill="#EAEAEA" points="1272.464,440.041 1270.583,408.641 1263.926,408.641 1261.756,440.041 		"/>
		<path fill="#EAEAEA" d="M1357.404,325.437v43.121h-110.119v-43.121h18.956c5.499-6.946,15.917-12.155,28.362-13.602l1.881-57.592
			h12.155l1.736,57.736c12.3,1.592,22.429,6.656,27.928,13.602h19.101V325.437z M1302.996,320.372c-3.473,0-6.222,2.749-6.222,6.222
			c0,3.473,2.749,6.222,6.222,6.222s6.222-2.749,6.222-6.222C1309.218,323.121,1306.469,320.372,1302.996,320.372z
			 M1320.071,320.372c-3.473,0-6.222,2.749-6.222,6.222c0,3.473,2.749,6.222,6.222,6.222s6.222-2.749,6.222-6.222
			C1326.293,323.121,1323.544,320.372,1320.071,320.372z M1286.355,320.372c-3.473,0-6.222,2.749-6.222,6.222
			c0,3.473,2.749,6.222,6.222,6.222c3.473,0,6.222-2.749,6.222-6.222C1292.578,323.121,1289.828,320.372,1286.355,320.372z
			 M1262.624,336.145h-9.55v8.682h9.55V336.145z M1275.213,336.145h-9.55v8.682h9.55V336.145z M1288.236,336.145h-9.55v8.682h9.55
			V336.145z M1300.826,336.145h-9.55v8.682h9.55V336.145z M1313.27,336.145h-9.55v8.682h9.55V336.145z M1326.293,336.145h-9.55
			v8.682h9.55V336.145z M1338.882,336.145h-9.55v8.682h9.55V336.145z M1351.761,336.145h-9.55v8.682h9.55V336.145z
			 M1262.624,346.708h-9.55v8.682h9.55V346.708z M1275.213,346.708h-9.55v8.682h9.55V346.708z M1288.236,346.708h-9.55v8.682h9.55
			V346.708z M1300.826,346.708h-9.55v8.682h9.55V346.708z M1313.27,346.708h-9.55v8.682h9.55V346.708z M1326.293,346.708h-9.55
			v8.682h9.55V346.708z M1338.882,346.708h-9.55v8.682h9.55V346.708z M1351.761,346.708h-9.55v8.682h9.55V346.708z
			 M1262.624,357.416h-9.55v8.682h9.55V357.416z M1275.213,357.416h-9.55v8.682h9.55V357.416z M1288.236,357.416h-9.55v8.682h9.55
			V357.416z M1300.826,357.416h-9.55v8.682h9.55V357.416z M1313.27,357.416h-9.55v8.682h9.55V357.416z M1326.293,357.416h-9.55
			v8.682h9.55V357.416z M1338.882,357.416h-9.55v8.682h9.55V357.416z M1351.761,357.416h-9.55v8.682h9.55V357.416z"/>
		<path fill="#EAEAEA" d="M1122.262,413.271v14.904h-38.057v-14.904h6.512c1.881-2.46,5.499-4.196,9.84-4.775l0.579-19.969h4.196
			l0.579,19.969c4.196,0.579,7.814,2.315,9.695,4.63h6.656V413.271z M1103.451,411.535c-1.158,0-2.171,1.013-2.171,2.171
			c0,1.158,1.013,2.171,2.171,2.171c1.158,0,2.171-1.013,2.171-2.171C1105.621,412.548,1104.609,411.535,1103.451,411.535z
			 M1109.384,411.535c-1.158,0-2.171,1.013-2.171,2.171c0,1.158,1.013,2.171,2.171,2.171c1.158,0,2.171-1.013,2.171-2.171
			C1111.554,412.548,1110.541,411.535,1109.384,411.535z M1097.663,411.535c-1.158,0-2.171,1.013-2.171,2.171
			c0,1.158,1.013,2.171,2.171,2.171c1.158,0,2.171-1.013,2.171-2.171C1099.833,412.548,1098.82,411.535,1097.663,411.535z
			 M1089.559,417.034h-3.328v3.039h3.328V417.034z M1093.901,417.034h-3.328v3.039h3.328V417.034z M1098.242,417.034h-3.328v3.039
			h3.328V417.034z M1102.727,417.034h-3.328v3.039h3.328V417.034z M1106.924,417.034h-3.328v3.039h3.328V417.034z M1111.554,417.034
			h-3.328v3.039h3.328V417.034z M1115.895,417.034h-3.328v3.039h3.328V417.034z M1120.236,417.034h-3.328v3.039h3.328V417.034z
			 M1089.559,420.651h-3.328v3.039h3.328V420.651z M1093.901,420.651h-3.328v3.039h3.328V420.651z M1098.242,420.651h-3.328v3.039
			h3.328V420.651z M1102.727,420.651h-3.328v3.039h3.328V420.651z M1106.924,420.651h-3.328v3.039h3.328V420.651z M1111.554,420.651
			h-3.328v3.039h3.328V420.651z M1115.895,420.651h-3.328v3.039h3.328V420.651z M1120.236,420.651h-3.328v3.039h3.328V420.651z
			 M1089.559,424.269h-3.328v3.039h3.328V424.269z M1093.901,424.269h-3.328v3.039h3.328V424.269z M1098.242,424.269h-3.328v3.039
			h3.328V424.269z M1102.727,424.269h-3.328v3.039h3.328V424.269z M1106.924,424.269h-3.328v3.039h3.328V424.269z M1111.554,424.269
			h-3.328v3.039h3.328V424.269z M1115.895,424.269h-3.328v3.039h3.328V424.269z M1120.236,424.269h-3.328v3.039h3.328V424.269z"/>
		<path fill="#EAEAEA" d="M1573.735,548.858v24.31h-62.222v-24.31h10.708c3.183-3.907,8.972-6.801,16.062-7.669l1.013-32.558h6.801
			l1.013,32.558c6.946,0.868,12.734,3.762,15.773,7.669H1573.735z M1543.058,546.109c-1.881,0-3.473,1.592-3.473,3.473
			s1.592,3.473,3.473,3.473s3.473-1.592,3.473-3.473S1544.939,546.109,1543.058,546.109z M1552.609,546.109
			c-1.881,0-3.473,1.592-3.473,3.473s1.592,3.473,3.473,3.473s3.473-1.592,3.473-3.473S1554.634,546.109,1552.609,546.109z
			 M1533.652,546.109c-1.881,0-3.473,1.592-3.473,3.473s1.592,3.473,3.473,3.473c1.881,0,3.473-1.592,3.473-3.473
			S1535.534,546.109,1533.652,546.109z M1520.34,554.935h-5.354v4.92h5.354V554.935z M1527.43,554.935h-5.354v4.92h5.354V554.935z
			 M1534.665,554.935h-5.354v4.92h5.354V554.935z M1541.901,554.935h-5.354v4.92h5.354V554.935z M1548.846,554.935h-5.354v4.92
			h5.354V554.935z M1556.226,554.935h-5.354v4.92h5.354V554.935z M1563.317,554.935h-5.354v4.92h5.354V554.935z M1570.552,554.935
			h-5.354v4.92h5.354V554.935z M1520.34,561.013h-5.354v4.92h5.354V561.013z M1527.43,561.013h-5.354v4.92h5.354V561.013z
			 M1534.665,561.013h-5.354v4.92h5.354V561.013z M1541.901,561.013h-5.354v4.92h5.354V561.013z M1548.846,561.013h-5.354v4.92
			h5.354V561.013z M1556.226,561.013h-5.354v4.92h5.354V561.013z M1563.317,561.013h-5.354v4.92h5.354V561.013z M1570.552,561.013
			h-5.354v4.92h5.354V561.013z M1520.34,566.946h-5.354v4.92h5.354V566.946z M1527.43,566.946h-5.354v4.92h5.354V566.946z
			 M1534.665,566.946h-5.354v4.92h5.354V566.946z M1541.901,566.946h-5.354v4.92h5.354V566.946z M1548.846,566.946h-5.354v4.92
			h5.354V566.946z M1556.226,566.946h-5.354v4.92h5.354V566.946z M1563.317,566.946h-5.354v4.92h5.354V566.946z M1570.552,566.946
			h-5.354v4.92h5.354V566.946z"/>
		<path fill="#EAEAEA" d="M972.205,315.597h-50.501V186.233h50.501v22.284c8.248,6.512,14.181,18.811,16.062,33.426l67.721,2.171
			v14.181l-67.866,2.171c-1.881,14.326-7.814,26.336-15.917,32.848V315.597z M977.994,251.783c0-4.052-3.328-7.38-7.38-7.38
			c-4.052,0-7.38,3.328-7.38,7.38s3.328,7.38,7.38,7.38C974.665,259.163,977.994,255.835,977.994,251.783z M977.994,271.752
			c0-4.052-3.328-7.38-7.38-7.38c-4.052,0-7.38,3.328-7.38,7.38c0,4.052,3.328,7.38,7.38,7.38
			C974.665,279.132,977.994,275.804,977.994,271.752z M977.994,232.248c0-4.052-3.328-7.38-7.38-7.38c-4.052,0-7.38,3.328-7.38,7.38
			s3.328,7.38,7.38,7.38C974.665,239.628,977.994,236.3,977.994,232.248z M959.472,204.32v-11.142h-10.129v11.142H959.472z
			 M959.472,219.225v-11.142h-10.129v11.142H959.472z M959.472,234.274v-11.142h-10.129v11.142H959.472z M959.472,249.178v-11.142
			h-10.129v11.142H959.472z M959.472,263.793v-11.142h-10.129v11.142H959.472z M959.472,279.132V267.99h-10.129v11.142H959.472z
			 M959.472,293.891v-11.142h-10.129v11.142H959.472z M959.472,308.941v-11.142h-10.129v11.142H959.472z M947.027,204.32v-11.142
			h-10.129v11.142H947.027z M947.027,219.225v-11.142h-10.129v11.142H947.027z M947.027,234.274v-11.142h-10.129v11.142H947.027z
			 M947.027,249.178v-11.142h-10.129v11.142H947.027z M947.027,263.793v-11.142h-10.129v11.142H947.027z M947.027,279.132V267.99
			h-10.129v11.142H947.027z M947.027,293.891v-11.142h-10.129v11.142H947.027z M947.027,308.941v-11.142h-10.129v11.142H947.027z
			 M934.727,204.32v-11.142h-10.129v11.142H934.727z M934.727,219.225v-11.142h-10.129v11.142H934.727z M934.727,234.274v-11.142
			h-10.129v11.142H934.727z M934.727,249.178v-11.142h-10.129v11.142H934.727z M934.727,263.793v-11.142h-10.129v11.142H934.727z
			 M934.727,279.132V267.99h-10.129v11.142H934.727z M934.727,293.891v-11.142h-10.129v11.142H934.727z M934.727,308.941v-11.142
			h-10.129v11.142H934.727z"/>
		<polygon fill="#EAEAEA" points="1521.787,446.408 1521.642,487.504 1487.926,473.902 1488.071,479.69 1521.642,493.292 
			1521.642,499.659 1455.224,472.744 1455.368,478.677 1488.65,492.134 1488.65,498.935 1488.65,498.935 1455.802,485.767 
			1455.947,489.819 1455.802,489.819 1455.802,520.641 1531.627,520.641 1531.627,446.408 		"/>
		<polygon fill="#EAEAEA" points="1764.019,81.468 1763.875,137.468 1717.859,118.946 1718.149,126.76 1763.875,145.282 
			1763.875,153.819 1673.435,117.354 1673.58,125.313 1719.017,143.69 1719.017,153.096 1719.017,153.096 1674.304,135.008 
			1674.304,182.47 1777.477,182.47 1777.477,81.468 		"/>
		<path fill="#EAEAEA" d="M1479.678,441.488l-29.085-185.654h5.209v-5.499h-5.788v-3.328h-37.623v3.328h-5.788v5.499h5.499
			l-29.085,185.654h-17.075v19.969h131.101v-19.969H1479.678z M1473.022,435.411l-35.452-18.811l29.953-15.917L1473.022,435.411z
			 M1465.642,388.238l-29.085-18.088l23.876-14.904L1465.642,388.238z M1458.407,342.222l-22.718-18.088l17.654-14.036
			L1458.407,342.222z M1433.807,261.189h8.972l-8.972,9.695V261.189z M1433.807,277.395l12.444-13.457l4.92,30.966l-17.364-17.075
			V277.395z M1433.807,284.052l14.76,16.641h-14.76V284.052z M1433.807,306.191h15.483l-15.483,12.589V306.191z M1433.807,330.646
			l19.824,16.062h-19.824V330.646z M1433.807,352.207h21.561l-21.561,13.457V352.207z M1433.807,374.636l27.204,16.93h-27.204
			V374.636z M1433.807,397.065h28.651l-28.651,15.339V397.065z M1472.733,441.488h-38.925v-20.692L1472.733,441.488z
			 M1428.309,306.191v12.155l-15.194-12.155H1428.309z M1412.391,300.693l15.773-17.22v17.22H1412.391z M1428.309,352.207v12.734
			l-20.258-12.734H1428.309z M1407.327,346.708l20.837-16.641v16.641H1407.327z M1428.309,397.065v14.47l-27.204-14.47H1428.309z
			 M1402.262,391.566l26.047-16.207v16.207H1402.262z M1428.309,261.189v10.419l-9.261-10.419H1428.309z M1416.298,264.227
			l11.576,13.023l-16.496,17.943L1416.298,264.227z M1408.919,310.532l17.509,14.181l-22.574,18.377L1408.919,310.532z
			 M1401.973,354.811l24.599,15.339l-29.953,18.667L1401.973,354.811z M1394.882,400.103l30.966,16.496l-36.61,19.39
			L1394.882,400.103z M1428.309,421.519v19.969h-37.623L1428.309,421.519z"/>
		<path fill="#EAEAEA" d="M1071.182,141.519l-8.103-51.37h1.447v-1.592h-1.592V87.69h-10.419v0.868h-1.592v1.592h1.592l-8.103,51.37
			h-4.775v5.499h36.32v-5.499H1071.182z M1069.301,139.928l-9.84-5.209l8.248-4.486L1069.301,139.928z M1067.275,126.904
			l-7.959-5.065l6.656-4.196L1067.275,126.904z M1065.394,114.171l-6.222-5.065l4.92-3.907L1065.394,114.171z M1058.448,91.742h2.46
			l-2.46,2.749V91.742z M1058.448,96.227l3.473-3.762l1.302,8.537L1058.448,96.227L1058.448,96.227z M1058.448,97.964l4.052,4.63
			h-4.052V97.964z M1058.448,104.186h4.341l-4.341,3.473V104.186z M1058.448,110.987l5.499,4.486h-5.499V110.987z M1058.448,116.92
			h5.933l-5.933,3.762V116.92z M1058.448,123.142l7.525,4.775h-7.525V123.142z M1058.448,129.364h7.959l-7.959,4.196V129.364z
			 M1069.301,141.519h-10.708v-5.788L1069.301,141.519z M1057.001,104.186v3.328l-4.196-3.328H1057.001z M1052.66,102.594
			l4.341-4.775v4.775H1052.66z M1057.001,116.92v3.473l-5.643-3.473H1057.001z M1051.213,115.328l5.788-4.63v4.63H1051.213z
			 M1057.001,129.364v4.052l-7.525-4.052H1057.001z M1049.766,127.773l7.235-4.486v4.486H1049.766z M1057.001,91.742v2.894
			l-2.605-2.894H1057.001z M1053.673,92.61l3.183,3.618l-4.486,4.92L1053.673,92.61z M1051.647,105.344l4.775,3.907l-6.222,5.065
			L1051.647,105.344z M1049.766,117.643l6.801,4.196l-8.248,5.209L1049.766,117.643z M1047.74,130.088l8.537,4.486l-10.129,5.354
			L1047.74,130.088z M1057.001,136.021v5.499h-10.419L1057.001,136.021z"/>
		<polygon fill="#EAEAEA" points="1224.133,441.344 1224.133,461.747 1217.332,454.367 1217.332,461.747 1210.531,454.367 
			1210.531,461.602 1203.875,454.367 1203.875,461.747 1197.074,454.367 1197.074,461.891 1190.273,454.367 1190.273,461.457 
			1183.761,454.367 1183.761,461.747 1176.96,454.367 1176.96,472.021 1183.761,472.021 1190.273,472.021 1193.311,472.021 
			1197.074,472.021 1199.968,472.021 1203.875,472.021 1206.624,472.021 1210.531,472.021 1213.425,472.021 1217.332,472.021 
			1220.226,472.021 1224.133,472.021 1226.882,472.021 1233.539,472.021 1281.58,472.021 1281.58,441.344 		"/>
		<polygon fill="#EAEAEA" points="1692.102,409.075 1691.379,396.341 1688.629,396.341 1687.761,409.075 		"/>
		<polygon fill="#EAEAEA" points="1703.244,409.075 1702.521,396.341 1699.771,396.341 1699.048,409.075 		"/>
		<polygon fill="#EAEAEA" points="1683.709,409.509 1683.709,417.902 1680.96,414.863 1680.96,417.902 1678.211,414.863 
			1678.211,417.757 1675.461,414.863 1675.461,417.902 1672.712,414.863 1672.712,417.902 1669.963,414.863 1669.963,417.757 
			1667.213,414.863 1667.213,417.902 1664.464,414.863 1664.464,422.098 1667.213,422.098 1669.963,422.098 1671.12,422.098 
			1672.712,422.098 1673.87,422.098 1675.461,422.098 1676.474,422.098 1678.211,422.098 1679.368,422.098 1680.96,422.098 
			1682.118,422.098 1683.709,422.098 1684.722,422.098 1687.472,422.098 1707.006,422.098 1707.006,409.509 		"/>
		<polygon fill="#EAEAEA" points="1730.159,442.067 1727.554,400.103 1718.583,400.103 1715.833,442.067 		"/>
		<polygon fill="#EAEAEA" points="1766.913,442.067 1764.309,400.103 1755.337,400.103 1752.733,442.067 		"/>
		<polygon fill="#EAEAEA" points="1702.231,443.804 1702.231,471.008 1693.26,461.168 1693.26,471.008 1684.143,461.168 
			1684.143,470.718 1675.317,461.168 1675.317,471.008 1666.345,461.168 1666.345,471.152 1657.084,461.168 1657.084,470.574 
			1648.402,461.168 1648.402,471.008 1639.43,461.168 1639.43,484.755 1648.402,484.755 1657.084,484.755 1661.136,484.755 
			1666.345,484.755 1670.107,484.755 1675.317,484.755 1678.934,484.755 1684.143,484.755 1688.05,484.755 1693.26,484.755 
			1697.022,484.755 1702.231,484.755 1705.849,484.755 1714.965,484.755 1779.068,484.755 1779.068,443.804 		"/>
		<polygon fill="#EAEAEA" points="1711.926,212.424 1711.203,199.835 1708.453,199.835 1707.73,212.424 		"/>
		<polygon fill="#EAEAEA" points="1722.924,212.424 1722.2,199.835 1719.596,199.835 1718.727,212.424 		"/>
		<polygon fill="#EAEAEA" points="1703.678,213.003 1703.678,221.106 1700.929,218.212 1700.929,221.106 1698.18,218.212 
			1698.18,221.106 1695.575,218.212 1695.575,221.106 1692.826,218.212 1692.826,221.106 1690.076,218.212 1690.076,220.961 
			1687.472,218.212 1687.472,221.106 1684.722,218.212 1684.722,225.302 1687.472,225.302 1690.076,225.302 1691.234,225.302 
			1692.826,225.302 1693.983,225.302 1695.575,225.302 1696.588,225.302 1698.18,225.302 1699.337,225.302 1700.929,225.302 
			1702.087,225.302 1703.678,225.302 1704.691,225.302 1707.441,225.302 1726.686,225.302 1726.686,213.003 		"/>
		<polygon fill="#EAEAEA" points="1398.355,139.638 1397.632,127.049 1394.882,127.049 1394.159,139.638 		"/>
		<polygon fill="#EAEAEA" points="1409.353,139.638 1408.629,127.049 1405.88,127.049 1405.156,139.638 		"/>
		<polygon fill="#EAEAEA" points="1390.107,140.217 1390.107,148.32 1387.358,145.426 1387.358,148.32 1384.609,145.426 
			1384.609,148.32 1382.004,145.426 1382.004,148.32 1379.255,145.426 1379.255,148.32 1376.505,145.426 1376.505,148.176 
			1373.901,145.426 1373.901,148.32 1371.151,145.426 1371.151,152.517 1373.901,152.517 1376.505,152.517 1377.663,152.517 
			1379.255,152.517 1380.412,152.517 1382.004,152.517 1383.017,152.517 1384.609,152.517 1385.766,152.517 1387.358,152.517 
			1388.516,152.517 1390.107,152.517 1391.12,152.517 1393.87,152.517 1412.97,152.517 1412.97,140.217 		"/>
		<path fill="#EAEAEA" d="M1543.058,251.783h-0.434l-2.749-13.602v-4.052h-6.512v4.052l-2.749,13.602h-0.434
			c-0.289,0-0.434,0.145-0.434,0.434s0.145,0.434,0.434,0.434h0.434v22.14h12.155v-22.14h0.434c0.289,0,0.434-0.145,0.434-0.434
			C1543.348,251.928,1543.203,251.783,1543.058,251.783z"/>
		<path fill="#EAEAEA" d="M1506.593,270.884v-20.837h0.579c0.289,0,0.434-0.145,0.434-0.434s-0.145-0.434-0.434-0.434h-0.579
			l-3.183-15.194v-4.486h-7.38v4.486l-0.868,4.341l-1.736-8.103v-4.486h-7.235v4.486l-0.868,4.486l-1.447-7.235v-4.486h-7.38v4.486
			l-3.183,15.194h-0.579c-0.289,0-0.434,0.145-0.434,0.434s0.145,0.434,0.434,0.434h0.579v27.494h-1.881v28.506h78.14v-28.651
			H1506.593z"/>
		<path fill="#EAEAEA" d="M1665.332,59.328h-0.145l-1.158-5.499v-1.736h-2.749v1.592l-1.158,5.499h-0.145
			c-0.145,0-0.145,0.145-0.145,0.145c0,0.145,0.145,0.145,0.145,0.145h0.145v8.972h4.92v-8.972h0.145
			C1665.332,59.473,1665.332,59.328,1665.332,59.328C1665.477,59.473,1665.477,59.328,1665.332,59.328z"/>
		<path fill="#EAEAEA" d="M1650.428,66.274v-8.537h0.289c0.145,0,0.145-0.145,0.145-0.145c0-0.145-0.145-0.145-0.145-0.145h-0.289
			l-1.302-6.222v-2.026h-3.039v1.881l-0.289,1.736l-0.724-3.328v-1.736h-3.039v1.881l-0.434,1.881l-0.579-3.039v-1.881h-2.894v1.881
			l-1.302,6.222h-0.145c-0.145,0-0.145,0.145-0.145,0.145l0.145,0.145h0.289v11.287h-0.724v11.721h31.979V66.274
			C1668.226,66.274,1650.428,66.274,1650.428,66.274z"/>
		<path fill="#EAEAEA" d="M1332.805,542.346h-0.289l-1.881-8.972v-2.605h-4.341v2.605l-1.881,8.972h-0.289
			c-0.145,0-0.289,0.145-0.289,0.289c0,0.145,0.145,0.289,0.289,0.289h0.289v14.47h7.959v-14.47h0.289
			c0.145,0,0.289-0.145,0.289-0.289C1333.094,542.491,1332.95,542.346,1332.805,542.346z"/>
		<path fill="#EAEAEA" d="M1309.508,554.357V540.61h0.434c0.145,0,0.289-0.145,0.289-0.289s-0.145-0.289-0.289-0.289h-0.434
			l-2.026-9.984v-2.894h-4.775v2.894l-0.579,2.749l-1.158-5.354v-2.894h-4.775v2.894l-0.579,3.039l-1.013-4.775v-2.894h-4.775v2.894
			l-2.026,9.984h-0.434c-0.145,0-0.289,0.145-0.289,0.289s0.145,0.289,0.289,0.289h0.434v18.088h-1.158v18.811h51.37v-18.811
			H1309.508z"/>
		<path fill="#EAEAEA" d="M1066.262,540.32v15.917h-28.796v-13.023h-4.196v13.023h-28.796V540.32h15.194v-18.088h-0.868v-1.158
			h6.656v1.158h-0.868v10.274h4.341v-11.432h4.341v-10.274h-1.736v-2.026h8.248v2.026h-1.736v10.274h4.341v11.432h3.907v-10.274
			h-0.868v-1.158h6.656v1.158h-0.868v18.088H1066.262z M1025.456,540.32h-4.63v14.036h4.63V540.32z M1031.244,540.32h-4.63v14.036
			h4.63V540.32z M1044.267,540.32h-4.63v14.036h4.63V540.32z M1050.345,540.32h-4.63v14.036h4.63V540.32z M1009.973,548.279h-2.894
			v6.078h2.894V548.279z M1014.025,548.279h-2.894v6.078h2.894V548.279z M1018.51,548.279h-2.894v6.078h2.894V548.279z
			 M1055.41,548.279h-2.894v6.078h2.894V548.279z M1059.461,548.279h-2.894v6.078h2.894V548.279z M1063.947,548.279h-2.894v6.078
			h2.894V548.279z"/>
		<path fill="#EAEAEA" d="M1518.603,330.212v12.01h-21.85v-9.84h-3.183v9.84h-21.85v-12.01h11.432V316.61h-0.579v-0.868h5.065v0.868
			h-0.579v7.814h3.328v-8.682h3.328v-7.814h-1.302v-1.447h6.222v1.447h-1.302v7.814h3.328v8.682h2.894v-7.814h-0.579v-0.868h5.065
			v0.868h-0.579v13.602H1518.603z M1487.782,330.212h-3.473v10.563h3.473V330.212z M1492.123,330.212h-3.473v10.563h3.473V330.212z
			 M1501.963,330.212h-3.473v10.563h3.473V330.212z M1506.448,330.212h-3.473v10.563h3.473V330.212z M1476.061,336.289h-2.171v4.63
			h2.171V336.289z M1479.099,336.289h-2.171v4.63h2.171V336.289z M1482.428,336.289h-2.026v4.63h2.171v-4.63H1482.428z
			 M1510.355,336.289h-2.171v4.63h2.171V336.289z M1513.394,336.289h-2.171v4.63h2.171V336.289z M1516.867,336.289h-2.171v4.63
			h2.171V336.289z"/>
		<path fill="#EAEAEA" d="M1154.531,24.889V0h44.858v20.258h6.512V0h44.858v24.744h-23.587v28.217h1.302v1.881h-10.419v-1.881h1.302
			V37.044h-6.656v17.798h-6.801v16.062h2.605v3.039h-12.879v-3.039h2.749V54.842h-6.801V37.044h-5.933v15.917h1.302v1.881h-10.419
			v-1.881h1.302V24.889H1154.531z M1218.2,24.889h7.235V3.039h-7.235V24.889z M1209.084,24.889h7.235V3.039h-7.235V24.889z
			 M1188.826,24.889h7.235V3.039h-7.235V24.889z M1179.42,24.889h7.235V3.039h-7.235V24.889z M1242.221,12.444h4.341v-9.55h-4.341
			V12.444z M1235.854,12.444h4.341v-9.55h-4.341V12.444z M1228.908,12.444h4.341v-9.55h-4.341V12.444z M1171.606,12.444h4.341v-9.55
			h-4.341V12.444z M1165.094,12.444h4.341v-9.55h-4.341V12.444z M1158.149,12.444h4.341v-9.55h-4.341V12.444z"/>
		<path fill="#EAEAEA" d="M1614.686,377.964v9.84h-17.943V379.7h-2.605v8.103h-17.943v-9.84h9.406v-11.287h-0.579v-0.724h4.196
			v0.724h-0.579v6.367h2.749v-7.09h2.749v-6.367h-1.013v-1.158h5.209v1.158h-1.158v6.367h2.749v7.09h2.315v-6.367h-0.579v-0.724
			h4.196v0.724h-0.579v11.287H1614.686z M1589.218,377.964h-2.894v8.682h2.894V377.964z M1592.836,377.964h-2.894v8.682h2.894
			V377.964z M1600.939,377.964h-2.894v8.682h2.894V377.964z M1604.702,377.964h-2.894v8.682h2.894V377.964z M1579.523,382.884
			h-1.736v3.762h1.736V382.884z M1582.128,382.884h-1.736v3.762h1.736V382.884z M1584.877,382.884h-1.736v3.762h1.736V382.884z
			 M1607.885,382.884h-1.736v3.762h1.736V382.884z M1610.49,382.884h-1.736v3.762h1.736V382.884z M1613.239,382.884h-1.736v3.762
			h1.736V382.884z"/>
		<path fill="#EAEAEA" d="M1261.756,137.468h-11.432v-29.519h11.432V137.468z M1261.177,117.065h-10.419v4.63h10.419V117.065z
			 M1261.177,110.553h-10.419v4.63h10.419V110.553z M1261.177,123.721h-10.419v4.63h10.419V123.721z M1261.177,130.088h-10.419v4.63
			h10.419V130.088z"/>
		<path fill="#EAEAEA" d="M961.932,97.819h-35.018V6.946h35.018V97.819z M960.484,35.307H928.36v14.036h32.124V35.307z
			 M960.484,15.194H928.36V29.23h32.124V15.194z M960.484,55.566H928.36v14.036h32.124V55.566z M960.484,75.245H928.36v14.036
			h32.124V75.245z"/>
		<path fill="#EAEAEA" d="M1239.906,135.152l-1.158-14.904h-3.762l-1.158,14.904h-8.537l-1.013-14.904h-3.762l-1.158,14.904h-9.55
			v-4.92v-24.455h-19.101V89.86c0-2.026-1.736-3.762-3.762-3.762h-20.548l-3.183-52.817h-14.181l-1.013,52.817h-23.152h-3.762
			h-20.982c-2.026,0-3.762,1.736-3.762,3.762v4.196c-4.196,0.724-7.38,4.486-7.38,8.827v27.349h-4.775v4.775v12.01v39.214h158.16
			v-51.08H1239.906z M1121.105,94.057c-4.052,0.868-7.235,4.486-7.235,8.827v27.349h-6.801v-27.349c0-4.196-2.894-7.814-6.946-8.827
			v-3.328c0-0.579,0.434-1.013,1.013-1.013h19.969V94.057z M1124.867,94.057v-4.341h23.008l-0.579,29.085l-15.194,11.432v-27.349
			C1132.102,98.543,1128.919,94.925,1124.867,94.057z M1186.944,105.778h-19.245l-1.013-16.062h19.245
			c0.579,0,1.013,0.434,1.013,1.013V105.778z"/>
		<path fill="#EAEAEA" d="M942.541,525.705l-0.145-2.026h-0.579l-0.145,2.026h-1.158l-0.145-2.026h-0.434l-0.145,2.026h-1.302
			v-0.579v-3.328h-2.605v-2.315c0-0.289-0.289-0.434-0.434-0.434h-2.894l-0.434-7.09h-1.881l-0.145,7.09h-3.183h-0.434h-2.749
			c-0.289,0-0.434,0.289-0.434,0.434v0.579c-0.579,0.145-1.013,0.579-1.013,1.158v3.618h-0.579v0.579v1.592v5.209h21.271v-6.946
			h-0.434V525.705z M926.479,520.062c-0.579,0.145-1.013,0.579-1.013,1.158v3.618h-0.868v-3.618c0-0.579-0.434-1.013-0.868-1.158
			v-0.434c0-0.145,0-0.145,0.145-0.145h2.749v0.579H926.479z M927.058,520.062v-0.579h3.039l-0.145,3.907l-2.026,1.592v-3.618
			C927.926,520.786,927.637,520.207,927.058,520.062z M935.451,521.654h-2.605l-0.145-2.171h2.605c0.145,0,0.145,0,0.145,0.145
			V521.654z"/>
		<path fill="#EAEAEA" d="M1285.632,295.194l-0.289-3.618h-0.868l-0.289,3.618h-2.026l-0.289-3.618h-0.868l-0.289,3.618h-2.315
			v-1.158v-5.788h-4.486v-3.762c0-0.434-0.434-0.868-0.868-0.868h-4.92l-0.724-12.589h-3.328l-0.289,12.589h-5.499h-0.868h-5.065
			c-0.434,0-0.868,0.434-0.868,0.868v1.013c-1.013,0.145-1.736,1.013-1.736,2.171v6.512h-1.158v1.158v2.894v9.406h37.767v-12.444
			H1285.632z M1257.27,285.354c-1.013,0.145-1.736,1.013-1.736,2.171v6.512h-1.592v-6.512c0-1.013-0.724-1.881-1.592-2.026v-0.868
			c0-0.145,0.145-0.289,0.289-0.289h4.775v1.013H1257.27z M1258.138,285.354v-1.013h5.499l-0.145,6.946l-3.618,2.749v-6.512
			C1259.875,286.367,1259.151,285.499,1258.138,285.354z M1273.043,288.103h-4.63l-0.289-3.762h4.63
			c0.145,0,0.289,0.145,0.289,0.289V288.103z M1259.006,305.612h-3.473v-3.473h3.473V305.612z M1264.071,305.612h-3.473v-3.473
			h3.473V305.612z M1269.136,305.612h-3.473v-3.473h3.473V305.612z M1273.911,305.612h-3.473v-3.473h3.473V305.612z
			 M1278.831,305.612h-3.473v-3.473h3.473V305.612z"/>
		<path fill="#EAEAEA" d="M1562.738,180.01l-0.579-8.103h-2.026l-0.579,8.103h-4.775l-0.579-8.103h-2.026l-0.579,8.103h-5.065
			v-2.605v-13.313h-10.419v-8.682c0-1.158-0.868-2.026-2.026-2.026h-11.142l-1.736-28.941h-7.669l-0.579,28.941h-12.589h-2.026
			h-11.432c-1.158,0-2.026,0.868-2.026,2.026v2.315c-2.315,0.434-4.052,2.46-4.052,4.92v14.904h-2.605v2.605v6.512v21.416h86.388
			v-27.928h-1.881V180.01z M1497.911,157.581c-2.171,0.434-3.907,2.46-3.907,4.775v14.904h-3.762v-14.904
			c0-2.315-1.592-4.341-3.762-4.775V155.7c0-0.289,0.289-0.579,0.579-0.579h10.853L1497.911,157.581L1497.911,157.581z
			 M1499.937,157.581v-2.315h12.589l-0.289,15.917l-8.393,6.222v-14.904C1503.844,160.041,1502.107,158.016,1499.937,157.581z
			 M1533.942,163.948h-10.563l-0.579-8.682h10.563c0.289,0,0.579,0.289,0.579,0.579V163.948z"/>
		<path fill="#EAEAEA" d="M1014.314,302.863l-0.289-3.183h-0.868l-0.289,3.183h-1.881l-0.289-3.183h-0.579l-0.289,3.183h-2.026
			v-1.013v-5.354h-4.196v-3.473c0-0.434-0.434-0.868-0.868-0.868h-4.486l-0.724-11.576h-3.039l-0.289,11.576h-5.065h-0.724h-4.63
			c-0.434,0-0.868,0.434-0.868,0.868v0.868c-0.868,0.145-1.592,1.013-1.592,1.881v5.933h-1.013v1.013v2.605v8.537h34.584v-11.142
			h-0.579V302.863z M988.412,293.891c-0.868,0.145-1.592,1.013-1.592,1.881v5.933h-1.447v-5.933c0-0.868-0.579-1.736-1.447-1.881
			v-0.724c0-0.145,0.145-0.289,0.289-0.289h4.341v1.013H988.412z M989.28,293.891v-0.868h5.065l-0.145,6.367l-3.328,2.46v-5.933
			C990.872,294.904,990.149,294.036,989.28,293.891z M1002.882,296.496h-4.196l-0.145-3.473h4.196c0.145,0,0.289,0.145,0.289,0.289
			v3.183H1002.882z"/>
		<path fill="#EAEAEA" d="M1376.216,412.837l-0.434-5.788h-1.447l-0.434,5.788h-3.328l-0.434-5.788h-1.447l-0.434,5.788h-3.618
			v-1.881v-9.55h-7.38v-6.222c0-0.868-0.579-1.447-1.447-1.447h-7.959l-1.302-20.548h-5.499l-0.434,20.548h-8.972h-1.447h-8.103
			c-0.868,0-1.447,0.579-1.447,1.447v1.592c-1.592,0.289-2.894,1.736-2.894,3.473v10.563h-1.881v1.881v4.63v15.194h61.354v-19.824
			h-1.013V412.837z M1330.056,396.92c-1.592,0.289-2.749,1.736-2.749,3.473v10.563h-2.749v-10.563c0-1.592-1.158-3.039-2.749-3.473
			v-1.302c0-0.145,0.145-0.434,0.434-0.434h7.814V396.92z M1331.503,396.92v-1.736h8.972l-0.289,11.287l-5.933,4.341v-10.563
			C1334.397,398.656,1333.094,397.354,1331.503,396.92z M1355.668,401.55h-7.525l-0.434-6.222h7.525
			c0.145,0,0.434,0.145,0.434,0.434V401.55z"/>
		<path fill="#EAEAEA" d="M1667.647,105.344l-0.289-3.183h-0.868l-0.289,3.183h-1.881l-0.289-3.183h-0.868l-0.289,3.183h-2.026
			v-1.158v-5.354h-3.907v-3.328c0-0.434-0.434-0.868-0.868-0.868h-4.486l-0.724-11.432h-3.039l-0.289,11.432h-5.065h-0.868h-4.486
			c-0.434,0-0.868,0.434-0.868,0.868v0.868c-0.868,0.145-1.592,1.013-1.592,1.881v5.933h-1.013v1.013v2.605v8.537h34.295v-11.142
			h-0.289V105.344z M1641.89,96.372c-0.868,0.145-1.592,1.013-1.592,1.881v5.933h-1.447v-5.933c0-0.868-0.579-1.736-1.447-1.881
			v-0.724c0-0.145,0.145-0.145,0.145-0.145h4.341V96.372z M1642.758,96.372v-0.868h5.065l-0.145,6.367l-3.328,2.46v-5.933
			C1644.205,97.385,1643.627,96.517,1642.758,96.372z M1656.216,98.977h-4.196l-0.145-3.473h4.196c0.145,0,0.145,0.145,0.145,0.145
			V98.977z"/>
		<path fill="#EAEAEA" d="M1457.249,533.664l-0.579-8.972h-2.315l-0.724,8.972h-5.209l-0.579-8.972h-2.315l-0.724,8.972h-5.643
			v-2.894v-14.76h-11.432v-9.55c0-1.302-1.013-2.315-2.315-2.315h-12.3l-1.881-31.835h-8.537l-0.579,31.835h-13.891h-2.315h-12.589
			c-1.302,0-2.315,1.013-2.315,2.315v2.605c-2.605,0.434-4.486,2.749-4.486,5.354v16.496h-2.894v2.894v7.235v23.587h95.07v-30.822
			h-1.447V533.664z M1385.621,509.065c-2.46,0.579-4.341,2.749-4.341,5.354v16.496h-4.196v-16.496c0-2.605-1.736-4.775-4.196-5.354
			v-2.026c0-0.289,0.289-0.579,0.579-0.579h12.01v2.605H1385.621z M1387.937,509.065v-2.605h13.891l-0.289,17.509l-9.261,6.801
			v-16.496C1392.278,511.669,1390.397,509.499,1387.937,509.065z M1425.27,516.01h-11.576l-0.579-9.695h11.576
			c0.289,0,0.579,0.289,0.579,0.579V516.01z"/>
		<path fill="#EAEAEA" d="M1208.65,562.605c0-11.287-8.537-20.693-19.535-21.995v-17.943c0-2.315-1.881-4.196-4.196-4.196h-96.227
			c-2.315,0-4.196,1.881-4.196,4.196v4.63c-4.63,0.868-8.248,4.92-8.248,9.84v30.243h-7.09v62.078h94.057v-62.656h-3.473v-12.879
			l-17.075,13.313v-13.023l-18.667,13.023v-30.243c0-4.775-3.473-8.827-7.959-9.84v-4.775h67.721c0.579,0,1.158,0.434,1.158,1.158
			v16.641c-11.432,0.868-20.548,10.419-20.548,21.995c0,11.721,9.116,21.271,20.548,21.995v45.147h4.196v-44.713
			C1200.112,583.297,1208.65,573.891,1208.65,562.605z M1111.844,527.442c-4.486,1.013-7.959,5.065-7.959,9.84v30.243h-7.669
			v-30.243c0-4.775-3.183-8.682-7.669-9.695v-3.762c0-0.579,0.434-1.158,1.158-1.158h22.14V527.442z"/>
		<path fill="#EAEAEA" d="M1230.211,376.227"/>
		<path fill="#EAEAEA" d="M1244.391,376.372v-5.354c0-0.724-0.579-1.302-1.302-1.302h-28.506c-0.724,0-1.302,0.579-1.302,1.302
			v1.447c-1.447,0.289-2.46,1.447-2.46,2.894v8.972h-2.171v13.457h27.928v-2.605h6.512v2.605h1.302v-8.537
			c3.183-0.434,5.788-3.183,5.788-6.512C1250.18,379.556,1247.72,376.806,1244.391,376.372z M1221.528,372.465
			c-1.302,0.289-2.315,1.447-2.315,2.894v8.972h-2.315v-8.972c0-1.447-1.013-2.605-2.315-2.894v-1.158
			c0-0.145,0.145-0.289,0.289-0.289h6.512v1.447H1221.528z M1225.146,384.331v-8.972c0-1.447-1.013-2.605-2.315-2.894v-1.447h20.114
			c0.145,0,0.289,0.145,0.289,0.289v4.92c-3.473,0.289-6.078,3.039-6.078,6.512s2.749,6.222,6.078,6.512v1.736h-6.512v-6.946h-1.013
			v-3.762l-5.065,3.907v-3.907L1225.146,384.331z M1236.722,394.026v-1.736h6.512v1.736H1236.722z"/>
		<path fill="#EAEAEA" d="M1164.226,204.61v-5.354c0-0.724-0.579-1.302-1.302-1.302h-28.506c-0.724,0-1.302,0.579-1.302,1.302v1.447
			c-1.447,0.289-2.46,1.447-2.46,2.894v8.972h-2.171v13.457h27.928v-2.605h6.512v2.605h1.302v-8.537
			c3.183-0.434,5.788-3.183,5.788-6.512C1170.014,207.793,1167.554,205.044,1164.226,204.61z M1141.363,200.703
			c-1.302,0.289-2.315,1.447-2.315,2.894v8.972h-2.315v-8.972c0-1.447-1.013-2.605-2.315-2.894v-1.013
			c0-0.145,0.145-0.289,0.289-0.289h6.512v1.302H1141.363z M1144.981,212.568v-8.972c0-1.447-1.013-2.605-2.315-2.894v-1.447h20.114
			c0.145,0,0.289,0.145,0.289,0.289v4.92c-3.473,0.289-6.078,3.039-6.078,6.512c0,3.473,2.749,6.222,6.078,6.512v1.736h-6.512
			v-6.946h-1.013v-3.762l-5.065,3.907v-3.907L1144.981,212.568z M1156.557,222.264v-1.736h6.512v1.736H1156.557z"/>
		<path fill="#EAEAEA" d="M1601.807,151.214c-0.868-1.881-0.724-3.762-0.868-5.643h-2.46c0.145,0.579,0.434,1.158,0.579,1.736
			c1.881,4.196,3.762,7.38,3.762,10.274h1.302C1604.123,155.845,1602.965,153.674,1601.807,151.214z"/>
		<path fill="#EAEAEA" d="M1598.479,147.307c-0.289-0.579-0.434-1.158-0.579-1.736c-0.724-2.46-0.579-4.775-0.868-7.235h-7.525
			c0,0.289,0,1.302-0.145,2.605c0.145,0.434,0.289,1.013,0.579,1.447c1.736,3.618,3.328,6.801,4.341,9.695
			c0.724,2.026,1.302,3.907,1.302,5.643h6.656C1602.386,154.687,1600.505,151.359,1598.479,147.307z"/>
		<path fill="#EAEAEA" d="M1593.994,151.938c-1.013-2.894-2.749-6.078-4.341-9.695c-0.289-0.434-0.434-1.013-0.579-1.447
			c-1.447-3.907-1.302-7.959-1.592-11.866h-11.142c0,1.302-0.145,8.537-1.881,12.879c-0.434,1.013-0.868,2.026-1.302,2.894
			c-2.46,5.499-4.486,8.537-4.486,12.879h4.486h10.853h7.959h3.183C1595.151,155.845,1594.717,153.964,1593.994,151.938z"/>
		<path fill="#EAEAEA" d="M1570.262,133.271v-8.827h-1.158v-5.065h-2.46v-7.959h-2.171v7.959h-2.46v5.065h-5.354v8.827h-1.592
			v-1.592h0.724v-0.724h-2.894v0.724h0.724v1.592h-2.315v-1.592h0.724v-0.724h-2.894v0.724h0.724v1.592h-2.315v-1.592h0.724v-0.724
			h-2.894v0.724h0.724v1.592h-2.026v-1.592h0.724v-0.724h-2.894v0.724h0.724v1.592h-1.592v24.455h26.915
			c0-4.486,2.026-7.525,4.486-12.879v-11.432h-2.171V133.271z M1553.043,134.429h3.762v3.762h-3.762V134.429z M1547.833,134.429
			h3.762v3.762h-3.762V134.429z M1542.479,134.429h3.762v3.762h-3.762V134.429z M1547.833,152.661h-4.486v-4.486h4.486V152.661z
			 M1554.2,152.661h-4.486v-4.486h4.486V152.661z M1559.988,152.661h-4.486v-4.486h4.486V152.661z M1560.712,132.403h-2.894v-5.788
			h2.894V132.403z M1562.014,126.615h2.894v5.788h-2.894V126.615z M1566.5,152.661h-4.486v-4.486h4.486V152.661z M1569.105,132.403
			h-2.894v-5.788h2.894V132.403z"/>
		<path fill="#EAEAEA" d="M1013.156,168c-1.302-2.894-1.158-5.788-1.447-8.682h-3.762c0.289,0.868,0.579,1.881,1.013,2.749
			c3.039,6.367,5.933,11.576,5.933,16.062h2.026C1016.919,175.235,1015.037,171.907,1013.156,168z"/>
		<path fill="#EAEAEA" d="M1007.802,161.922c-0.434-0.868-0.724-1.736-1.013-2.749c-1.013-3.762-1.013-7.525-1.302-11.287h-11.576
			c0,0.579,0,2.026-0.145,3.907c0.289,0.724,0.579,1.447,0.868,2.171c2.605,5.499,5.065,10.419,6.801,14.904
			c1.158,3.183,1.881,6.078,1.881,8.827h10.274C1013.735,173.499,1010.841,168.434,1007.802,161.922z"/>
		<path fill="#EAEAEA" d="M1000.278,169.158c-1.736-4.486-4.196-9.406-6.801-14.904c-0.289-0.724-0.579-1.447-0.868-2.171
			c-2.171-6.078-2.026-12.3-2.46-18.522h-17.364c0,2.026-0.289,13.313-3.039,19.969c-0.724,1.592-1.302,3.039-1.881,4.486
			c-3.907,8.393-6.946,13.168-6.946,20.114h6.946h16.93h12.3h5.065C1002.159,175.235,1001.435,172.341,1000.278,169.158z"/>
		<path fill="#EAEAEA" d="M1092.164,78.718c-1.158-3.039-2.894-6.367-4.63-10.129c-0.289-0.434-0.434-1.013-0.579-1.447
			c-1.447-4.196-1.302-8.393-1.736-12.589h-11.721c0,1.447-0.145,8.972-2.026,13.602c-0.434,1.013-0.868,2.026-1.302,3.039
			c-2.605,5.788-4.63,8.972-4.63,13.602h4.63h11.432h8.393h3.473C1093.611,82.77,1093.032,80.744,1092.164,78.718z"/>
		<path fill="#EAEAEA" d="M1749.983,229.643c-9.695,4.341-20.403,10.708-32.413,17.364c-1.592,0.868-3.183,1.592-4.92,2.315
			c-13.313,5.788-27.204,5.933-40.806,7.814l1.881,39.793c4.486-0.145,29.664-0.868,44.713,4.775
			c3.618,1.302,6.946,2.749,10.129,3.907c19.245,7.959,29.954,14.47,45.437,13.747l-0.724-15.917l-1.881-39.07l-1.447-28.651
			l-0.579-11.576C1763.296,224.434,1756.784,226.46,1749.983,229.643z"/>
		<path fill="#EAEAEA" d="M963.234,140.072V126.47h-1.736v-7.814h-3.762v-12.3h-3.473v12.3H950.5v7.959h-8.248v13.602h-2.46v-2.46
			h1.158v-1.158h-4.486v1.158h1.158v2.46h-3.762v-2.46h1.158v-1.158h-4.486v1.158h1.158v2.46h-3.473v-2.46h1.158v-1.158h-4.486
			v1.158h1.302v2.46h-3.618v-2.46h1.158v-1.158h-4.486v1.158h1.158v2.46h-2.46v37.767h41.819c0-6.946,3.039-11.576,6.946-20.114
			v-17.798H963.234z M936.464,142.098h5.933v5.933h-5.933V142.098z M928.36,142.098h5.933v5.933h-5.933V142.098z M920.112,142.098
			h5.933v5.933h-5.933V142.098z M928.36,170.46h-6.946v-6.946h6.946V170.46z M938.2,170.46h-6.946v-6.946h6.946V170.46z
			 M947.317,170.46h-6.946v-6.946h6.946V170.46z M948.474,138.915h-4.486v-9.116h4.486V138.915z M950.5,129.943h4.63v8.972h-4.486
			v-8.972H950.5z M957.446,170.46H950.5v-6.946h6.946V170.46z M961.497,138.915h-4.486v-9.116h4.486V138.915z"/>
		<path fill="#EAEAEA" d="M1292.578,87.401c-0.579-1.158-0.434-2.315-0.579-3.473h-1.447c0.145,0.289,0.289,0.724,0.434,1.013
			c1.158,2.46,2.315,4.486,2.315,6.222h0.724C1294.025,90.295,1293.301,88.992,1292.578,87.401z"/>
		<path fill="#EAEAEA" d="M1290.552,85.085c-0.145-0.289-0.289-0.724-0.434-1.013c-0.434-1.447-0.434-2.894-0.579-4.341h-4.486
			c0,0.145,0,0.868,0,1.592c0.145,0.289,0.145,0.579,0.289,0.868c1.013,2.171,2.026,4.052,2.605,5.788
			c0.434,1.302,0.724,2.315,0.724,3.473h4.052C1292.867,89.571,1291.709,87.545,1290.552,85.085z"/>
		<path fill="#EAEAEA" d="M1287.513,87.835c-0.724-1.736-1.592-3.618-2.605-5.788c-0.145-0.289-0.289-0.579-0.289-0.868
			c-0.868-2.315-0.724-4.775-1.013-7.235h-6.801c0,0.868-0.145,5.209-1.158,7.814c-0.289,0.579-0.579,1.158-0.724,1.736
			c-1.447,3.328-2.749,5.209-2.749,7.814h2.749h6.656h4.775h2.026C1288.236,90.295,1287.947,89.137,1287.513,87.835z"/>
		<path fill="#EAEAEA" d="M1273.043,76.548v-5.354h-0.724v-3.039h-1.447V63.38h-1.302v4.775h-1.447v3.039h-3.183v5.354h-1.013
			v-1.013h0.434v-0.434h-1.736v0.434h0.434v1.013h-1.447v-1.013h0.434v-0.434h-1.736v0.434h0.434v1.013h-1.302v-1.013h0.434v-0.434
			h-1.736v0.434h0.434v1.013h-1.447v-1.013h0.434v-0.434h-1.736v0.434h0.434v1.013h-1.013v14.76h16.351
			c0-2.749,1.158-4.486,2.749-7.814v-6.946H1273.043z M1262.624,77.271h2.315v2.315h-2.315V77.271z M1259.441,77.271h2.315v2.315
			h-2.315V77.271z M1256.257,77.271h2.315v2.315h-2.315V77.271z M1259.441,88.413h-2.749v-2.749h2.749V88.413z M1263.348,88.413
			h-2.749v-2.749h2.749V88.413z M1266.82,88.413h-2.749v-2.749h2.749V88.413z M1267.255,76.114h-1.736v-3.618h1.736V76.114z
			 M1268.123,72.496h1.736v3.618h-1.736V72.496z M1270.872,88.413h-2.749v-2.749h2.749V88.413z M1272.464,76.114h-1.881v-3.618
			h1.736v3.618H1272.464z"/>
		<path fill="#EAEAEA" d="M1726.107,326.305c-0.579-1.158-0.434-2.315-0.579-3.473h-1.447c0.145,0.289,0.289,0.724,0.434,1.013
			c1.158,2.46,2.315,4.486,2.315,6.222h0.724C1727.554,329.199,1726.831,327.897,1726.107,326.305z"/>
		<path fill="#EAEAEA" d="M1724.081,323.99c-0.145-0.289-0.289-0.724-0.434-1.013c-0.434-1.447-0.434-2.894-0.579-4.341h-4.486
			c0,0.145,0,0.868,0,1.592c0.145,0.289,0.145,0.579,0.289,0.868c1.013,2.171,2.026,4.052,2.605,5.788
			c0.434,1.302,0.724,2.315,0.724,3.473h4.052C1726.397,328.475,1725.239,326.45,1724.081,323.99z"/>
		<path fill="#EAEAEA" d="M1721.043,326.739c-0.724-1.736-1.592-3.618-2.605-5.788c-0.145-0.289-0.289-0.579-0.289-0.868
			c-0.868-2.315-0.724-4.775-1.013-7.235h-6.801c0,0.868-0.145,5.209-1.158,7.814c-0.289,0.579-0.579,1.158-0.724,1.736
			c-1.447,3.328-2.749,5.209-2.749,7.814h2.749h6.656h4.775h2.026C1721.766,329.199,1721.477,328.041,1721.043,326.739z"/>
		<path fill="#EAEAEA" d="M1706.572,315.452v-5.354h-0.724v-3.039h-1.447v-4.775h-1.302v4.775h-1.447v3.039h-3.183v5.354h-1.013
			v-1.013h0.434v-0.434h-1.736v0.434h0.434v1.013h-1.447v-1.013h0.434v-0.434h-1.736v0.434h0.434v1.013h-1.302v-1.013h0.434v-0.434
			h-1.736v0.434h0.434v1.013h-1.447v-1.013h0.434v-0.434h-1.736v0.434h0.434v1.013h-1.013v14.76h16.351
			c0-2.749,1.158-4.486,2.749-7.814v-6.946H1706.572z M1696.154,316.176h2.315v2.315h-2.315V316.176z M1692.97,316.176h2.315v2.315
			h-2.315V316.176z M1689.787,316.176h2.315v2.315h-2.315V316.176z M1692.97,327.318h-2.749v-2.749h2.749V327.318z
			 M1696.877,327.318h-2.749v-2.749h2.749V327.318z M1700.35,327.318h-2.749v-2.749h2.749V327.318z M1700.784,315.018h-1.736v-3.618
			h1.736V315.018z M1701.652,311.401h1.736v3.618h-1.736V311.401z M1704.402,327.318h-2.749v-2.749h2.749V327.318z
			 M1705.994,315.018h-1.736v-3.618h1.736V315.018z"/>
		<path fill="#EAEAEA" d="M1208.939,420.796h-6.367v-12.01V392v-3.183v-1.158v-1.736c0-2.749-2.026-5.065-4.63-5.643v-4.196h1.881
			v1.158c0,0.434,0.289,0.724,0.724,0.724s0.724-0.289,0.724-0.724v-1.158v-0.289v-0.724h-3.618v0.579h-2.46v-7.235h-0.724
			c-0.289-0.868-1.158-1.447-2.026-1.447c-0.579,0-1.158,0.289-1.592,0.724v-0.145c0-1.302-1.013-2.46-2.46-2.46
			s-2.46,1.013-2.46,2.46v0.145c-0.434,0.145-0.868,0.434-1.013,0.868h-1.158v3.183h-2.171v6.222h-5.209v-7.959h-7.669v9.55h-5.209
			v4.486h-6.367v3.907h10.997v1.158h-12.444v-27.059h0.868v-2.026h-9.406v2.026h0.868v27.059v19.969h-17.654v12.01v8.682v10.708
			h85.809v-10.708L1208.939,420.796z"/>
		<path fill="#EAEAEA" d="M1673.291,31.111h8.682v16.496V70.76v4.341v1.592v2.46c0,3.762,2.749,7.09,6.222,7.814v5.643h-2.605
			v-1.447c0-0.434-0.434-0.868-0.868-0.868s-0.868,0.434-0.868,0.868v1.447v0.434v0.868h5.065v-0.868h3.328v9.84h1.013
			c0.434,1.158,1.447,2.026,2.894,2.026c0.868,0,1.592-0.434,2.171-1.013v0.145c0,1.881,1.447,3.328,3.328,3.328
			s3.328-1.447,3.328-3.328v-0.145c0.579-0.145,1.158-0.579,1.447-1.158h1.592v-4.341h2.894V89.86h7.09v10.997h10.563V87.835h7.09
			v-6.078h8.682v-5.065h-15.049v-1.592h16.93v37.044h-1.302v2.894h12.879v-2.894h-1.302V75.101V47.607h24.165V31.111V19.245V4.486
			h-117.933v14.76L1673.291,31.111z"/>
		<path fill="#EAEAEA" d="M1029.942,131.824h-2.315v-4.486v-6.222v-1.158v-0.434v-0.724c0-1.013-0.724-1.881-1.736-2.171v-1.592
			h0.724v0.434c0,0.145,0.145,0.289,0.289,0.289s0.289-0.145,0.289-0.289v-0.434v-0.145v-0.289h-1.302v0.289h-0.868v-2.605h-0.434
			c-0.145-0.289-0.434-0.579-0.724-0.579s-0.434,0.145-0.579,0.289l0,0c0-0.434-0.434-0.868-0.868-0.868s-0.868,0.434-0.868,0.868
			l0,0c-0.145,0-0.289,0.145-0.434,0.289h-0.434v1.158h-0.868v2.315h-1.881v-2.894h-2.894v3.473h-1.881v1.592h-2.315v1.447h4.052
			v0.434h-4.63v-9.984h0.289v-0.724h-3.473v0.724h0.289v9.984v7.525h-6.512v4.486v3.183v3.907h31.835v-4.052L1029.942,131.824z"/>
		<path fill="#EAEAEA" d="M1638.851,531.638h-4.052v-7.814v-10.853v-2.026v-0.724v-1.158c0-1.736-1.302-3.328-2.894-3.618v-2.605
			h1.158v0.724c0,0.289,0.145,0.434,0.434,0.434c0.289,0,0.434-0.145,0.434-0.434v-0.724v-0.289v-0.434h-2.315v0.434h-1.592v-4.631
			h-0.434c-0.145-0.579-0.724-1.013-1.302-1.013c-0.434,0-0.724,0.145-1.013,0.434v-0.145c0-0.868-0.724-1.592-1.592-1.592
			c-0.868,0-1.592,0.724-1.592,1.592v0.145c-0.289,0-0.579,0.289-0.724,0.579h-0.724v2.026h-1.447V504h-3.328v-5.209h-4.92v6.078
			h-3.328v2.894h-4.052v2.46h7.09v0.724h-7.959v-17.364h0.579v-1.302h-6.078v1.302h0.579v17.364v12.879h-11.432v7.814v5.499v6.946
			h55.421v-6.946L1638.851,531.638z"/>
		<rect x="1180.143" y="298.088" fill="#EAEAEA" width="6.946" height="1.447"/>
		<rect x="1196.35" y="298.088" fill="#EAEAEA" width="6.946" height="1.447"/>
		<rect x="1212.412" y="298.088" fill="#EAEAEA" width="6.946" height="1.447"/>
		<path fill="#EAEAEA" d="M1230.5,320.372v23.008h-61.643v-23.008h8.248l1.881-5.788c0.724-2.171,1.158-4.486,1.158-6.946v-6.946
			h6.946v7.09c0,2.171,0.289,4.486,1.013,6.656l1.881,5.933h3.328l1.881-5.788c0.724-2.171,1.158-4.486,1.158-6.946v-6.946h6.946
			v7.09c0,2.171,0.289,4.486,1.013,6.656l1.881,5.933h3.328l1.881-5.788c0.724-2.171,1.158-4.486,1.158-6.946v-6.946h6.946v7.09
			c0,2.171,0.289,4.486,1.013,6.656l1.881,5.933H1230.5z M1180.288,323.121h-6.946v3.473h6.946V323.121z M1189.26,323.121h-6.946
			v3.473h6.946V323.121z M1198.376,323.121h-6.946v3.473h6.946V323.121z M1207.926,323.121h-6.946v3.473h6.946V323.121z
			 M1216.898,323.121h-6.946v3.473h6.946V323.121z M1225.725,323.121h-6.946v3.473h6.946V323.121z M1180.288,330.067h-6.946v3.473
			h6.946V330.067z M1189.26,330.067h-6.946v3.473h6.946V330.067z M1198.376,330.067h-6.946v3.473h6.946V330.067z M1207.926,330.067
			h-6.946v3.473h6.946V330.067z M1216.898,330.067h-6.946v3.473h6.946V330.067z M1225.725,330.067h-6.946v3.473h6.946V330.067z
			 M1180.288,337.158h-6.946v3.473h6.946V337.158z M1189.26,337.158h-6.946v3.473h6.946V337.158z M1198.376,337.158h-6.946v3.473
			h6.946V337.158z M1207.926,337.158h-6.946v3.473h6.946V337.158z M1216.898,337.158h-6.946v3.473h6.946V337.158z M1225.725,337.158
			h-6.946v3.473h6.946V337.158z"/>
		<rect x="1499.792" y="361.468" fill="#EAEAEA" width="10.853" height="2.171"/>
		<rect x="1524.826" y="361.468" fill="#EAEAEA" width="10.853" height="2.171"/>
		<rect x="1550.004" y="361.468" fill="#EAEAEA" width="10.853" height="2.171"/>
		<path fill="#EAEAEA" d="M1577.932,396.052v35.742h-95.649v-35.742h12.879l2.894-8.972c1.158-3.473,1.736-7.09,1.736-10.708
			v-10.708h10.853v10.853c0,3.473,0.579,6.946,1.592,10.274l2.894,9.116h5.209l2.894-8.972c1.158-3.473,1.736-7.09,1.736-10.708
			v-10.708h10.853v10.853c0,3.473,0.579,6.946,1.592,10.274l2.894,9.116h5.209l2.894-8.972c1.158-3.473,1.736-7.09,1.736-10.708
			v-10.708h10.853v10.853c0,3.473,0.579,6.946,1.592,10.274l2.894,9.116h12.444V396.052z M1500.081,400.393h-10.708v5.499h10.708
			V400.393z M1513.973,400.393h-10.708v5.499h10.708V400.393z M1528.009,400.393h-10.708v5.499h10.708V400.393z M1542.769,400.393
			h-10.708v5.499h10.708V400.393z M1556.95,400.393h-10.708v5.499h10.708V400.393z M1570.552,400.393h-10.708v5.499h10.708V400.393z
			 M1500.081,411.245h-10.708v5.499h10.708V411.245z M1513.973,411.245h-10.708v5.499h10.708V411.245z M1528.009,411.245h-10.708
			v5.499h10.708V411.245z M1542.769,411.245h-10.708v5.499h10.708V411.245z M1556.95,411.245h-10.708v5.499h10.708V411.245z
			 M1570.552,411.245h-10.708v5.499h10.708V411.245z M1500.081,422.098h-10.708v5.499h10.708V422.098z M1513.973,422.098h-10.708
			v5.499h10.708V422.098z M1528.009,422.098h-10.708v5.499h10.708V422.098z M1542.769,422.098h-10.708v5.499h10.708V422.098z
			 M1556.95,422.098h-10.708v5.499h10.708V422.098z M1570.552,422.098h-10.708v5.499h10.708V422.098z"/>
		<rect x="1216.898" y="73.654" fill="#EAEAEA" width="4.196" height="0.868"/>
		<rect x="1226.738" y="73.654" fill="#EAEAEA" width="4.196" height="0.868"/>
		<rect x="1236.433" y="73.654" fill="#EAEAEA" width="4.196" height="0.868"/>
		<path fill="#EAEAEA" d="M1247.43,87.111v13.891h-37.333V87.111h5.065l1.158-3.473c0.434-1.302,0.724-2.749,0.724-4.196v-4.196
			h4.196v4.341c0,1.302,0.145,2.749,0.579,4.052l1.158,3.618h2.026l1.158-3.473c0.434-1.302,0.724-2.749,0.724-4.196V75.39h4.196
			v4.196c0,1.302,0.145,2.749,0.579,4.052l1.158,3.618h2.026l1.158-3.473c0.434-1.302,0.724-2.749,0.724-4.196V75.39h4.196v4.196
			c0,1.302,0.145,2.749,0.579,4.052l1.158,3.618h4.775V87.111z M1217.043,88.848h-4.196v2.171h4.196V88.848z M1222.541,88.848
			h-4.196v2.171h4.196V88.848z M1227.895,88.848h-4.196v2.171h4.196V88.848z M1233.683,88.848h-4.196v2.171h4.196V88.848z
			 M1239.182,88.848h-4.196v2.171h4.196V88.848z M1244.536,88.848h-4.196v2.171h4.196V88.848z M1217.043,93.044h-4.196v2.171h4.196
			V93.044z M1222.541,93.044h-4.196v2.171h4.196V93.044z M1227.895,93.044h-4.196v2.171h4.196V93.044z M1233.683,93.044h-4.196
			v2.171h4.196V93.044z M1239.182,93.044h-4.196v2.171h4.196V93.044z M1244.536,93.044h-4.196v2.171h4.196V93.044z M1217.043,97.385
			h-4.196v2.171h4.196V97.385z M1222.541,97.385h-4.196v2.171h4.196V97.385z M1227.895,97.385h-4.196v2.171h4.196V97.385z
			 M1233.683,97.385h-4.196v2.171h4.196V97.385z M1239.182,97.385h-4.196v2.171h4.196V97.385z M1244.536,97.385h-4.196v2.171h4.196
			V97.385z"/>
		<path fill="#EAEAEA" d="M1147.585,486.925v25.757h-40.372v-25.757h23.587v-3.907h14.181v3.907H1147.585z M1121.539,494.45h-6.946
			v6.078h6.946V494.45z M1130.8,494.45h-6.946v6.078h6.946V494.45z M1140.205,494.45h-6.946v6.078h6.946V494.45z M1121.539,502.408
			h-6.946v6.078h6.946V502.408z M1130.8,502.408h-6.946v6.078h6.946V502.408z M1140.061,502.408h-6.946v6.078h6.946V502.408z"/>
		<path fill="#EAEAEA" d="M1165.818,494.305l-0.724-24.744h-3.618l-0.579,24.744h-10.129v18.522h18.667v-18.522H1165.818z
			 M1156.991,506.46h-3.907v-3.473h3.907V506.46z M1161.911,506.46h-3.907v-3.473h3.907V506.46z M1166.541,506.46h-3.907v-3.473
			h3.907V506.46z"/>
		<path fill="#EAEAEA" d="M1297.208,385.488v15.773h-24.744v-15.773h14.47v-2.315h8.682v2.315H1297.208z M1281.291,390.119h-4.196
			v3.762h4.196V390.119z M1286.934,390.119h-4.196v3.762h4.196V390.119z M1292.722,390.119h-4.196v3.762h4.196V390.119z
			 M1281.291,394.894h-4.196v3.762h4.196V394.894z M1286.934,394.894h-4.196v3.762h4.196V394.894z M1292.722,394.894h-4.196v3.762
			h4.196V394.894z"/>
		<path fill="#EAEAEA" d="M1308.35,389.974l-0.434-15.194h-2.315l-0.434,15.194h-6.222v11.287h11.432v-11.287H1308.35z
			 M1302.996,397.499h-2.46v-2.171h2.46V397.499z M1306.035,397.499h-2.46v-2.171h2.46V397.499z M1308.929,397.499h-2.46v-2.171
			h2.46V397.499z"/>
		<path fill="#EAEAEA" d="M1081.601,43.556V3.618h62.512v39.938h-36.32v5.933h-21.995v-5.933H1081.601z M1121.828,31.979h10.563
			v-9.406h-10.563V31.979z M1107.503,31.979h10.563v-9.406h-10.563V31.979z M1093.032,31.979h10.563v-9.406h-10.563V31.979z
			 M1121.973,19.68h10.563v-9.406h-10.563V19.68z M1107.647,19.68h10.563v-9.406h-10.563V19.68L1107.647,19.68z M1093.177,19.68
			h10.563v-9.406h-10.563V19.68z"/>
		<path fill="#EAEAEA" d="M1053.528,32.124l1.158,38.346h5.643l1.013-38.346h15.628V3.618h-28.796v28.506H1053.528z M1067.13,13.168
			h6.078v5.354h-6.078V13.168z M1059.606,13.168h6.078v5.354h-6.078V13.168z M1052.226,13.168h6.078v5.354h-6.078V13.168z"/>
		<path fill="#EAEAEA" d="M1649.849,272.91v15.773h-24.744V272.91h14.47v-2.315h8.682v2.315H1649.849z M1633.787,277.54h-4.196
			v3.762h4.196V277.54z M1639.575,277.54h-4.196v3.762h4.196V277.54z M1645.218,277.54h-4.196v3.762h4.196V277.54z M1633.787,282.46
			h-4.196v3.762h4.196V282.46z M1639.575,282.46h-4.341v3.762h4.196v-3.762H1639.575z M1645.218,282.46h-4.196v3.762h4.196V282.46z"
			/>
		<path fill="#EAEAEA" d="M1660.991,277.395l-0.434-15.194h-2.315l-0.434,15.194h-6.222v11.287h11.432v-11.287H1660.991z
			 M1655.637,284.92h-2.46v-2.171h2.46V284.92z M1658.531,284.92h-2.46v-2.171h2.46V284.92z M1661.425,284.92h-2.46v-2.171h2.46
			V284.92z"/>
		<path fill="#EAEAEA" d="M1363.916,499.225v6.656v6.367h-95.504v-6.367l8.103-3.328v-3.328v-3.473h3.618v-3.907h6.222l0.724-18.088
			h3.907l0.724,18.088h2.46v-41.819h26.77v35.597h20.548v-8.682h2.026v-28.796h3.762v28.796h1.447v8.682h7.525v6.367v3.907v3.473
			h7.669V499.225z M1306.035,454.801h-7.38v9.116h7.38V454.801z M1316.164,454.801h-7.38v9.116h7.38V454.801z M1306.035,467.101
			h-7.38v9.116h7.38V467.101z M1316.164,467.101h-7.38v9.116h7.38V467.101z M1306.035,479.256h-7.38v9.116h7.38V479.256z
			 M1316.164,479.256h-7.38v9.116h7.38V479.256z"/>
		<polygon fill="#EAEAEA" points="1313.125,442.791 1313.125,433.819 1309.797,433.819 1309.797,442.791 1298.655,442.791 
			1298.655,448.145 1317.611,448.145 1317.611,442.791 		"/>
		<path fill="#EAEAEA" d="M1265.084,527.587v4.341v4.052h-61.643v-4.052l5.209-2.171v-2.171v-2.315h2.315v-2.46h4.052l0.434-11.721
			h2.46l0.434,11.721h1.592v-27.059h17.364v22.863h13.313v-5.643h1.302V494.45h2.46v18.522h1.013v5.643h4.775v4.052v2.46v2.315h4.92
			V527.587z M1227.751,498.935h-4.775v5.933h4.775V498.935z M1234.262,498.935h-4.775v5.933h4.775V498.935z M1227.751,506.749
			h-4.775v5.933h4.775V506.749z M1234.262,506.749h-4.775v5.933h4.775V506.749z M1227.751,514.708h-4.775v5.933h4.775V514.708z
			 M1234.262,514.708h-4.775v5.933h4.775V514.708z"/>
		<polygon fill="#EAEAEA" points="1232.381,491.121 1232.381,485.478 1230.211,485.478 1230.211,491.121 1222.975,491.121 
			1222.975,494.594 1235.13,494.594 1235.13,491.121 		"/>
		<polygon fill="#EAEAEA" points="1580.97,108.672 1580.97,121.984 1586.035,121.984 1586.035,108.672 1602.531,108.672 
			1602.531,100.858 1574.459,100.858 1574.459,108.672 		"/>
		<path fill="#EAEAEA" d="M1071.327,421.809v2.605v2.46h-37.912v-2.46l3.183-1.302v-1.302v-1.447h1.447v-1.592h2.46l0.289-7.235
			h1.592l0.289,7.235h1.013v-16.496h10.708v14.181h8.103v-3.473h0.868V401.55h1.447v11.432h0.579v3.473h2.894v2.46v1.592v1.447
			h3.039V421.809z M1048.319,404.155h-2.894v3.618h2.894V404.155z M1052.371,404.155h-2.894v3.618h2.894V404.155z M1048.319,408.93
			h-2.894v3.618h2.894V408.93z M1052.371,408.93h-2.894v3.618h2.894V408.93z M1048.319,413.85h-2.894v3.618h2.894V413.85z
			 M1052.371,413.85h-2.894v3.618h2.894V413.85z"/>
		<polygon fill="#EAEAEA" points="1051.213,399.38 1051.213,395.762 1049.766,395.762 1049.766,399.38 1045.425,399.38 
			1045.425,401.55 1052.95,401.55 1052.95,399.38 		"/>
		<path fill="#EAEAEA" d="M1670.252,564.196v2.315v2.171h-32.558v-2.171l2.749-1.158v-1.158v-1.158h1.302v-1.302h2.171l0.289-6.222
			h1.302l0.289,6.222h0.868v-14.326h9.116v12.155h6.946v-2.894h0.724v-9.84h1.302v9.84h0.579v2.894h2.605v2.171v1.302v1.158
			L1670.252,564.196L1670.252,564.196z M1650.572,549.147h-2.46v3.183h2.46V549.147z M1654.045,549.147h-2.46v3.183h2.46V549.147z
			 M1650.572,553.344h-2.46v3.183h2.46V553.344z M1654.045,553.344h-2.46v3.183h2.46V553.344z M1650.572,557.395h-2.46v3.183h2.46
			V557.395z M1654.045,557.395h-2.46v3.183h2.46V557.395z"/>
		<path fill="#EAEAEA" d="M1504.133,23.876V13.747V4.052h145.716v9.695l-12.3,5.065v5.209v5.354h-5.643v5.933h-9.55l-1.013,27.638
			h-5.933l-1.013-27.638h-3.762v63.814h-40.951V44.858h-31.401v13.168h-3.039v43.845h-5.788V58.026h-2.315V44.858h-11.432v-9.695
			V29.23v-5.354C1515.709,23.876,1504.133,23.876,1504.133,23.876z M1592.402,91.742h11.287V77.705h-11.287V91.742z
			 M1577.063,91.742h11.287V77.705h-11.287V91.742z M1592.402,73.075h11.287V59.039h-11.287V73.075z M1577.063,73.075h11.287V59.039
			h-11.287V73.075z M1592.402,54.553h11.287V40.517h-11.287V54.553z M1577.063,54.553h11.287V40.517h-11.287V54.553z"/>
		<polygon fill="#EAEAEA" points="1653.032,544.951 1653.032,541.912 1651.875,541.912 1651.875,544.951 1648.112,544.951 
			1648.112,546.832 1654.479,546.832 1654.479,544.951 		"/>
		<path fill="#EAEAEA" d="M1395.027,291.576v17.075h-12.01h-2.46h-13.313h-3.183h-30.532v-39.07h4.196v-10.563h2.315v10.563h3.473
			v-10.563h2.315v10.563h2.749v-10.563h2.315v10.563h5.065l1.447-22.14h4.92l1.447,22.14h3.618v15.194h6.222v-4.486h-3.039v-3.183
			h11.576v3.183h-3.039v4.486h3.762v6.946h12.155V291.576z M1341.487,278.408h-5.065v5.065h5.065V278.408z M1349.301,278.264h-5.065
			v5.065h5.065V278.264z M1356.536,278.264h-5.065v5.065h5.065V278.264z M1363.771,278.264h-5.065v5.065h5.065V278.264z
			 M1341.487,286.222h-5.065v5.065h5.065V286.222z M1349.301,286.222h-5.065v5.065h5.065V286.222z M1356.536,286.222h-5.065v5.065
			h5.065V286.222z M1363.771,286.222h-5.065v5.065h5.065V286.222z M1341.487,293.891h-5.065v5.065h5.065V293.891z M1349.301,293.891
			h-5.065v5.065h5.065V293.891z M1356.536,293.891h-5.065v5.065h5.065V293.891z M1363.771,293.891h-5.065v5.065h5.065V293.891z
			 M1393.725,294.036h-8.972v12.734h8.972V294.036z"/>
		<path fill="#EAEAEA" d="M1050.345,605.581v36.031h-25.468h-5.065h-27.928h-6.656h-64.393v-82.481h8.827v-22.284h4.775v22.14h7.38
			v-22.14h4.775v22.14h5.933v-22.14h4.775v22.14h10.708l3.039-46.739h10.274l3.039,46.739h7.525v31.835h13.168v-9.55h-6.222v-6.656
			h24.455v6.656h-6.222v9.55h7.959v14.615h25.323V605.581z M937.477,577.654h-10.708v10.708h10.708V577.654z M954.118,577.509
			H943.41v10.708h10.708V577.509z M969.167,577.509h-10.708v10.708h10.708V577.509z M984.505,577.509h-10.708v10.708h10.708V577.509
			z M937.477,594.15h-10.708v10.708h10.708V594.15z M954.118,594.005H943.41v10.708h10.708V594.005z M969.167,594.005h-10.708
			v10.708h10.708V594.005z M984.505,594.005h-10.708v10.708h10.708V594.005z M937.477,610.357h-10.708v10.708h10.708V610.357z
			 M954.118,610.357H943.41v10.708h10.708V610.357z M969.167,610.357h-10.708v10.708h10.708V610.357z M984.505,610.357h-10.708
			v10.708h10.708V610.357z M1047.451,610.646h-18.956v26.77h19.101v-26.77H1047.451z"/>
		<path fill="#EAEAEA" d="M1690.076,338.171v10.563h-7.525h-1.447h-8.248h-1.881h-18.956v-24.165h2.605v-6.512h1.447v6.512h2.171
			v-6.512h1.447v6.512h1.736v-6.512h1.447v6.512h3.183l0.868-13.747h3.039l0.868,13.747h2.171v9.406h3.907v-2.749h-1.881v-1.881
			h7.235v1.881h-1.881v2.749h2.315v4.341h7.38V338.171z M1656.939,330.067h-3.183v3.183h3.183V330.067z M1661.714,329.922h-3.183
			v3.183h3.183V329.922z M1666.2,329.922h-3.183v3.183h3.183V329.922z M1670.686,329.922h-3.183v3.183h3.183V329.922z
			 M1656.939,334.842h-3.183v3.183h3.183V334.842z M1661.714,334.842h-3.183v3.183h3.183V334.842z M1666.2,334.842h-3.183v3.183
			h3.183V334.842z M1670.686,334.842h-3.183v3.183h3.183V334.842z M1656.939,339.618h-3.183v3.183h3.183V339.618z M1661.714,339.618
			h-3.183v3.183h3.183V339.618z M1666.2,339.618h-3.183v3.183h3.183V339.618z M1670.686,339.618h-3.183v3.183h3.183V339.618z
			 M1689.208,339.618h-5.643v7.814h5.643V339.618z"/>
		<path fill="#EAEAEA" d="M1044.557,66.419V97.24H967.72V66.419h2.605V56.289h5.209l0.868-19.245h8.103l0.868,19.245h14.615
			l1.592-34.15h8.103l1.592,34.15h16.207l1.447-47.607h8.103l1.447,47.607h2.605v10.129H1044.557z M985.663,72.207h-10.274v14.47
			h10.274V72.207z M1001.001,72.207h-10.274v14.47h10.274V72.207z M1016.34,72.207h-10.274v14.47h10.274V72.207z M1031.678,72.207
			h-10.274v14.47h10.274V72.207z"/>
		<path fill="#EAEAEA" d="M1288.96,127.194v10.274h-25.612v-10.274h0.868v-3.328h1.736l0.289-6.367h2.749l0.289,6.367h4.92
			l0.579-11.432h2.749l0.579,11.432h5.354l0.434-15.917h2.749l0.434,15.917h0.868v3.328H1288.96z M1269.28,129.075h-3.473v4.775
			h3.473V129.075z M1274.49,129.075h-3.473v4.775h3.473V129.075z M1279.554,129.075h-3.473v4.775h3.473V129.075z M1284.764,129.075
			h-3.473v4.775h3.473V129.075z"/>
		<path fill="#EAEAEA" d="M1485.322,16.351V5.788c0-1.302-1.158-2.46-2.46-2.46h-57.158c-1.302,0-2.46,1.158-2.46,2.46v2.749
			c-2.749,0.434-4.92,2.894-4.92,5.788v17.943h-4.196V60.92h55.711v-6.656h12.879v6.656h2.46V42.398
			c6.512-0.724,11.576-6.367,11.576-13.023C1496.898,22.718,1491.833,17.22,1485.322,16.351z M1439.596,8.537
			c-2.749,0.579-4.775,2.894-4.775,5.788v17.943h-4.486V14.47c0-2.749-1.881-5.209-4.486-5.788V6.512
			c0-0.289,0.289-0.724,0.724-0.724h13.168v2.749H1439.596z M1446.831,32.413V14.47c0-2.894-2.026-5.209-4.775-5.788V5.788h40.227
			c0.289,0,0.724,0.289,0.724,0.724v9.984c-6.801,0.434-12.155,6.078-12.155,13.023s5.354,12.589,12.155,13.023v3.473h-12.879
			V32.124h-2.026v-7.669l-10.129,7.959v-7.814L1446.831,32.413z M1469.983,51.948v-3.473h12.879v3.473H1469.983z"/>
		<path fill="#EAEAEA" d="M1704.257,514.853h-18.377c-2.315,0-4.341,1.881-4.341,4.341v99.411c0,2.315,1.881,4.341,4.341,4.341h4.92
			c0.868,4.775,5.065,8.537,10.129,8.537h31.256v7.38h49.922v-97.096h-11.432v-22.574h11.432v-4.341h-32.413
			c-1.302-11.287-10.997-20.114-22.718-20.114C1715.255,494.739,1705.559,503.566,1704.257,514.853z M1690.655,594.584
			c1.013,4.63,5.209,8.248,10.129,8.248h31.401v7.959h-31.256c-4.92,0-8.972,3.328-9.984,7.959h-3.907
			c-0.579,0-1.158-0.579-1.158-1.158v-22.863h4.775V594.584z M1732.185,582.14h-31.256c-4.92,0-9.116,3.473-10.129,8.248h-4.92
			v-69.891c0-0.579,0.579-1.158,1.158-1.158h17.22c0.868,11.866,10.708,21.271,22.718,21.271s21.995-9.406,22.718-21.271h6.222
			v22.574h-24.165v3.473h-13.313l13.747,17.509h-13.457L1732.185,582.14z M1766.335,541.767h-6.078v-22.574h6.078V541.767z"/>
		<path fill="#EAEAEA" d="M1761.849,385.488l-12.879-41.819l21.127-6.512l-2.026-6.512l-47.318,14.47v-6.801h-3.618v7.959
			l-8.537,2.605l-1.302-5.065c-0.289-1.158-1.447-1.881-2.605-1.592l-8.103,2.171c-1.158,0.289-1.881,1.447-1.592,2.605
			l3.762,14.036h-4.052c-1.736,0-3.039,1.447-3.039,3.039v21.271h-2.749v3.183h2.749h35.886h43.556v-3.183h-9.261V385.488z
			 M1743.182,351.049h4.341l10.708,34.439h-25.757L1743.182,351.049z M1710.479,355.535l6.801-2.026v7.669h-5.354L1710.479,355.535z
			 M1724.516,361.178h-3.762v-8.827l20.258-6.222l-12.155,39.359h-1.302v-21.271
			C1727.554,362.625,1726.252,361.178,1724.516,361.178z"/>
		<path fill="#EAEAEA" d="M1298.8,6.656v15.339h4.486v13.602h20.982v1.447h-20.982l4.052,5.065h9.695v3.473h3.039v-3.618h1.158
			l3.183-4.052v11.721h4.63v23.152c0.724,2.605,2.894,4.63,5.643,5.209v3.183c0,1.592,1.158,2.749,2.749,2.749h6.512l1.881,24.31
			h7.09l1.158-24.599h3.328l1.736,24.599h6.946l1.013-24.599h7.669l2.315,41.53h10.853l1.302-41.24h16.351
			c1.592,0,2.749-1.158,2.749-2.749V68.734h4.196V49.778V36.61V6.656H1298.8z"/>
		<line fill="#EAEAEA" x1="1303.141" y1="35.018" x2="1303.141" y2="50.212"/>
	</g>
</g>
</svg>
