<?xml version="1.0" encoding="UTF-8"?>
<svg enable-background="new 0 0 191.3 35.2" version="1.1" viewBox="0 0 191.3 35.2" xml:space="preserve" xmlns="http://www.w3.org/2000/svg">
<style type="text/css">
	.st0{fill:url(#b);}
	.st1{fill:url(#a);}
	.st2{fill:#FFFFFF;}
	.st3{fill:#0068AD;}
</style>
<linearGradient id="b" x1="22.574" x2="6.12" y1="28.833" y2=".3346" gradientUnits="userSpaceOnUse">
	<stop stop-color="#3662A5" offset=".05"/>
	<stop stop-color="#56C4CE" offset=".5987"/>
	<stop stop-color="#28B187" offset=".8688"/>
</linearGradient>
<path class="st0" d="M26.1,1.4H5.8C2.6,1.4,0,4,0,7.2v20.3c0,3.2,2.6,5.8,5.8,5.8h9c-1.9-3.7-2.6-6.3-1.5-13.8s-0.8-8.9-0.8-8.9  s12-0.6,19.3,6.7V7.2C31.9,4,29.3,1.4,26.1,1.4z"/>
<linearGradient id="a" x1="29.408" x2="17.697" y1="34.503" y2="14.22" gradientUnits="userSpaceOnUse">
	<stop stop-color="#304397" offset=".1"/>
	<stop stop-color="#4CA6C3" offset=".9"/>
</linearGradient>
<path class="st1" d="m18.2 13.9s-3.8 9.7-0.9 16.4 11.6 5 13 3.6c1.5-1.4 4.8-4 2.3-10.5-1.1-2.9-5.1-5.6-8.8-7.3-2.8-1.4-5.6-2.2-5.6-2.2z"/>
<ellipse class="st2" transform="matrix(.9567 -.2911 .2911 .9567 -5.8417 9.8509)" cx="30.2" cy="24.6" rx=".7" ry="1.5"/>
<ellipse class="st2" transform="matrix(.9392 -.3433 .3433 .9392 -5.832 11.235)" cx="28.8" cy="22.1" rx=".5" ry="1.1"/>
	<path class="st3" d="m79.8 31.9c6.5 3.4 13.6 2.2 15.8-1.2 1.7-2.7 2.2-5.3 0.6-7.7-0.4-0.6-0.9-1.2-1.6-1.8-1.7-1.6-5.4-1.5-8-2.4-1.8-0.6-3-1.6-2.5-4 0.8-3.3 7-3.6 12 0.1v-4.4s-3.1-1.6-7.8-1.6c-3.9 0-8.6 1.9-8.6 7.6 0 0-0.4 5.9 8.2 6.8 3.2 0.4 5.2 1.8 5.1 3.9-0.2 3-5 5.8-13.3 0.2l0.1 4.5z"/>
	<path class="st3" d="m54 17.2h-5.4v-12.1h6c2.7 0 5.4 2.2 5.4 4.9v1.1c0 3.4-2.7 6.1-6 6.1zm15 16.1-11.3-13.9c3.8-1.1 6.5-4.6 6.5-8.8v-1.7c0-4.1-4.8-7.5-8.9-7.5h-10.9v31.9h4.2v-12.7h5.2l10 12.7h5.2z"/>
	<rect class="st3" x="71.4" y="9.4" width="4" height="23.9"/>
	<rect class="st3" x="71.1" y="1.4" width="4.4" height="4"/>
	<path class="st3" d="m112 8.8c-3.2 0.1-5.9 2-7.1 3.4v-12.2h-4v33.3h4v-17.8c2-2.4 10.7-6.3 10.7 2.5v15.3h4v-16.3c0-6.1-3.8-8.4-7.6-8.2z"/>
	<path class="st3" d="m183.7 8.8c-3.2 0.1-5.9 2-7.1 3.4v-12.2h-4v33.3h4v-17.8c2-2.4 10.7-6.3 10.7 2.5v15.3h4v-16.3c0-6.1-3.8-8.4-7.6-8.2z"/>
	<path class="st3" d="m138.7 17.6c0-1.7-0.1-3-0.9-3.8-3.3-3.4-12.2 0.2-12.2 0.2v-4s17.1-5 17.1 6.5v16.9h-4v-2.6s-4.4 4.7-10.3 2.7c-5.9-1.9-5.2-9.4-3.6-11.5 0.5-0.6 1-1.3 1.8-1.8 1.8-1.2 4.3-2.1 7.4-2.3 1-0.1 2-0.2 2.7-0.2 1.9 0 2-0.1 2-0.1zm-0.1 3.2c-0.7 0.1-3.6 0.4-3.6 0.4-5.3 0.3-7.5 2.4-7.3 5.1s1.4 4 4.6 4.1c3.2 0.2 6.3-2.9 6.3-2.9v-6.7z"/>
	<path class="st3" d="m152.3 15.3s1.1-1 2.6-1.8c2.6-1.3 6.5-2.1 8.2 1.8 0.8 1.9 1 3.8 1.1 5.6 0.1 4-1.3 7.2-2.4 8-1.7 1.2-4.7 2.7-9.4 0v-13.6zm14.3-2.5c-0.7-1.6-2.9-3.1-4.3-3.7-2.2-0.9-5-0.2-7.4 0.9-1.1 0.5-2 1.3-2.6 1.9v-11.9h-4v33.3h3.8l0.3-1.1c5.7 3.3 10.4 1.1 12.1-0.8 0.8-0.9 2.3-2.5 3.1-4.8 1-2.9 1.3-6.8 0.2-11-0.4-0.9-0.8-1.8-1.2-2.8z"/>
</svg>
