<?xml version="1.0" encoding="UTF-8"?>
<svg enable-background="new 0 0 542.4 108.6" version="1.1" viewBox="0 0 542.4 108.6" xml:space="preserve" xmlns="http://www.w3.org/2000/svg">
<style type="text/css">
	.st0{fill:#C6C6C6;}
</style>
<path class="st0" d="m19.2 95c-0.4 0-0.8-0.3-0.8-0.8v-39.7c0-0.4 0.3-0.8 0.8-0.8s0.8 0.3 0.8 0.8v39.7c0 0.4-0.4 0.8-0.8 0.8z"/>
<path class="st0" d="m19.2 103.2c-0.4 0-0.8-0.3-0.8-0.8v-4.5c0-0.4 0.3-0.8 0.8-0.8s0.8 0.3 0.8 0.8v4.5c0 0.4-0.4 0.8-0.8 0.8z"/>
<path class="st0" d="m19.2 51.5c-0.4 0-0.8-0.3-0.8-0.8v-6.4c0-0.4 0.3-0.8 0.8-0.8s0.8 0.5 0.8 0.9v6.4c0 0.4-0.4 0.7-0.8 0.7z"/>
<path class="st0" d="m103.6 95c-0.4 0-0.8-0.3-0.8-0.8v-39.7c0-0.4 0.3-0.8 0.8-0.8s0.8 0.3 0.8 0.8v39.7c0 0.4-0.4 0.8-0.8 0.8z"/>
	<polyline class="st0" points="449.2 107.9 279.7 107.9 261.7 107.9 7.9 107.9"/>
	<path class="st0" d="m449.2 108.7h-441.3c-0.4 0-0.8-0.3-0.8-0.8s0.3-0.8 0.8-0.8h441.3c0.4 0 0.8 0.3 0.8 0.8s-0.4 0.8-0.8 0.8z"/>
<path class="st0" d="m103.6 103.2c-0.4 0-0.8-0.3-0.8-0.8v-4.5c0-0.4 0.3-0.8 0.8-0.8s0.8 0.3 0.8 0.8v4.5c0 0.4-0.4 0.8-0.8 0.8z"/>
<path class="st0" d="m103.6 51.5c-0.4 0-0.8-0.3-0.8-0.8v-6.4c0-0.4 0.3-0.8 0.8-0.8s0.8 0.3 0.8 0.8v6.4c0 0.5-0.4 0.8-0.8 0.8z"/>
<path class="st0" d="m42.8 51.6h-15.2v-7.3h15.1v7.3zm-13.7-1.5h12.1v-4.3h-12.1v4.3z"/>
<path class="st0" d="M42.8,95H27.6V53.8h15.1V95z M29.1,93.5h12.1V55.3H29.1V93.5z"/>
<path class="st0" d="m35.2 105.8c-4.1 0-7.6-3.5-7.6-7.5v-1.1h15.1v1.1c0.1 4.1-3.4 7.5-7.5 7.5zm-6-7.1c0.2 3.1 2.9 5.7 6 5.7 3.2 0 5.9-2.6 6-5.7h-12z"/>
<path class="st0" d="M69,51.6H53.9v-7.3H69V51.6z M55.4,50.1h12.1v-4.3H55.4V50.1z"/>
<path class="st0" d="M69,95H53.9V53.8H69V95z M55.4,93.5h12.1V55.3H55.4V93.5z"/>
<path class="st0" d="m61.4 105.8c-4.1 0-7.5-3.5-7.5-7.5v-1.1h15.1v1.1c0 4.1-3.5 7.5-7.6 7.5zm-6-7.1c0.2 3.1 2.9 5.7 6 5.7 3.2 0 5.9-2.6 6-5.7h-12z"/>
<path class="st0" d="m95.3 51.6h-15.2v-7.3h15.1v7.3zm-13.7-1.5h12.1v-4.3h-12.1v4.3z"/>
<path class="st0" d="M95.3,95H80.1V53.8h15.1V95z M81.6,93.5h12.1V55.3H81.6V93.5z"/>
<path class="st0" d="m87.7 105.8c-4.1 0-7.6-3.5-7.6-7.5v-1.1h15.1v1.1c0.1 4.1-3.4 7.5-7.5 7.5zm-6-7.1c0.2 3.1 2.9 5.7 6 5.7 3.2 0 5.9-2.6 6-5.7h-12z"/>
<path class="st0" d="m43.5 45.9h-16.8c-1 0-1.9-0.8-1.9-1.9v-2.6c0-1 0.8-1.9 1.9-1.9h16.9c0.5 0 1 0.2 1.3 0.6s0.5 0.9 0.4 1.4v2.5c0.1 1-0.8 1.9-1.8 1.9zm-16.8-4.9c-0.2 0-0.4 0.2-0.4 0.4v2.6c0 0.2 0.2 0.4 0.4 0.4h16.8c0.2 0 0.4-0.2 0.4-0.4v-2.6c0-0.1 0-0.2-0.1-0.2-0.1-0.1-0.1-0.1-0.2-0.1h-16.9z"/>
<path class="st0" d="M69.8,45.9H53c-1,0-1.9-0.8-1.9-1.9v-2.6c0-1,0.8-1.9,1.9-1.9h16.8c1,0,1.9,0.9,1.9,2V44  C71.6,45,70.8,45.9,69.8,45.9z M53,41c-0.2,0-0.4,0.2-0.4,0.4V44c0,0.2,0.2,0.4,0.4,0.4h16.8c0.2,0,0.4-0.2,0.4-0.4v-2.5  c0-0.2-0.2-0.5-0.4-0.5H53z"/>
<path class="st0" d="m96.1 45.9h-16.8c-1 0-1.8-0.8-1.8-1.9v-2.6c0-1 0.8-1.9 1.8-1.9h16.9c0.5 0 1 0.2 1.3 0.6s0.5 0.9 0.4 1.4v2.5c0.1 1-0.8 1.9-1.8 1.9zm-16.8-4.9c-0.2 0-0.3 0.2-0.3 0.4v2.6c0 0.2 0.2 0.4 0.3 0.4h16.8c0.2 0 0.4-0.2 0.4-0.4v-2.6c0-0.1 0-0.2-0.1-0.2-0.1-0.1-0.1-0.1-0.2-0.1h-16.9z"/>
<path class="st0" d="m107.7 55.3h-91.7c-1.5 0-2.6-1.2-2.6-2.6 0-0.8 0.3-1.3 0.6-1.8l0.1-0.1c0.4-0.4 1.1-0.7 1.8-0.7h91.6c1.6 0 2.8 1.1 2.8 2.7 0 0.8-0.3 1.3-0.6 1.7l-0.1 0.1c-0.5 0.4-1.2 0.7-1.9 0.7zm-92.5-3.5c-0.2 0.3-0.3 0.5-0.3 0.8 0 0.7 0.6 1.1 1.1 1.1h91.7c0.3 0 0.6-0.1 0.7-0.3 0.2-0.3 0.3-0.5 0.3-0.8 0-0.7-0.5-1.2-1.3-1.2h-91.5c-0.3 0.1-0.6 0.3-0.7 0.4z"/>
<path class="st0" d="m107.7 98.7h-91.7c-1.5 0-2.6-1.2-2.6-2.7 0-0.8 0.3-1.3 0.7-1.8l0.1-0.1c0.4-0.4 1.1-0.7 1.8-0.7h91.6c1.5 0 2.8 1.2 2.8 2.6 0 0.8-0.3 1.3-0.6 1.8l-0.1 0.1c-0.6 0.5-1.3 0.8-2 0.8zm-92.5-3.5c-0.2 0.3-0.3 0.5-0.3 0.8 0 0.7 0.6 1.2 1.1 1.2h91.7c0.3 0 0.6-0.1 0.7-0.3 0.2-0.3 0.3-0.5 0.3-0.8 0-0.6-0.4-1.1-1.3-1.1h-91.5c-0.3 0-0.6 0.1-0.7 0.2z"/>
<path class="st0" d="m529.6 108.7h-76.7c-0.4 0-0.8-0.3-0.8-0.8s0.3-0.8 0.8-0.8h76.7c0.4 0 0.8 0.3 0.8 0.8s-0.4 0.8-0.8 0.8z"/>
<path class="st0" d="m541.7 108.7h-8.9c-0.4 0-0.8-0.3-0.8-0.8s0.3-0.8 0.8-0.8h8.9c0.4 0 0.8 0.3 0.8 0.8s-0.4 0.8-0.8 0.8z"/>
<path class="st0" d="m4.8 108.7h-4c-0.4 0-0.8-0.3-0.8-0.8s0.3-0.8 0.8-0.8h4c0.4 0 0.8 0.3 0.8 0.8s-0.4 0.8-0.8 0.8z"/>
<path class="st0" d="m21.9 108.7h-5.3c-0.4 0-0.8-0.3-0.8-0.8v-5.3c0-0.4 0.3-0.8 0.8-0.8h5.3c0.4 0 0.8 0.3 0.8 0.8v5.3c-0.1 0.4-0.4 0.8-0.8 0.8zm-4.5-1.5h3.8v-3.8h-3.8v3.8z"/>
<path class="st0" d="m106.3 108.7h-5.3c-0.4 0-0.8-0.3-0.8-0.8v-5.3c0-0.4 0.3-0.8 0.8-0.8h5.3c0.4 0 0.8 0.3 0.8 0.8v5.3c-0.1 0.4-0.4 0.8-0.8 0.8zm-4.5-1.5h3.8v-3.8h-3.8v3.8z"/>
<path class="st0" d="m31.8 38c-0.2 0-0.3-0.1-0.5-0.2-0.3-0.3-0.4-0.7-0.1-1.1 0 0 0.5-0.7 0.5-1.5 0-0.5-0.2-0.9-0.4-1.3-0.2-0.5-0.5-1.2-0.5-2.2s0.3-1.7 0.5-2.4c0.2-0.5 0.4-1 0.4-1.4 0-0.7-0.4-1-0.4-1-0.4-0.2-0.5-0.7-0.2-1 0.2-0.4 0.7-0.5 1-0.2 0.4 0.3 1.2 1 1.2 2.2 0 0.8-0.2 1.4-0.5 2-0.2 0.6-0.4 1.1-0.4 1.8s0.2 1.1 0.4 1.6 0.5 1.1 0.5 1.9c0 1.3-0.8 2.3-0.9 2.5-0.2 0.3-0.4 0.3-0.6 0.3z"/>
<path class="st0" d="m35.2 38c-0.2 0-0.3-0.1-0.5-0.2-0.3-0.3-0.4-0.7-0.1-1.1 0 0 0.5-0.7 0.5-1.5 0-0.5-0.2-0.9-0.4-1.3-0.2-0.5-0.5-1.2-0.5-2.2s0.3-1.7 0.5-2.4c0.2-0.5 0.4-1 0.4-1.4 0-0.7-0.4-1-0.4-1-0.4-0.2-0.5-0.7-0.2-1 0.2-0.4 0.7-0.5 1-0.2 0.4 0.3 1.2 1 1.2 2.2 0 0.8-0.2 1.4-0.5 2-0.2 0.6-0.4 1.1-0.4 1.8s0.2 1.1 0.4 1.6 0.5 1.1 0.5 1.9c0 1.3-0.8 2.3-0.9 2.5-0.2 0.3-0.4 0.3-0.6 0.3z"/>
<path class="st0" d="m38.5 38c-0.2 0-0.3-0.1-0.5-0.2-0.3-0.3-0.4-0.7-0.1-1.1 0 0 0.5-0.7 0.5-1.5 0-0.5-0.2-0.9-0.4-1.3-0.2-0.5-0.5-1.2-0.5-2.2s0.3-1.7 0.5-2.4c0.2-0.5 0.4-1 0.4-1.4 0-0.7-0.4-1-0.4-1-0.4-0.2-0.5-0.7-0.2-1 0.2-0.4 0.7-0.5 1-0.2 0.4 0.3 1.2 1 1.2 2.2 0 0.8-0.2 1.4-0.5 2-0.2 0.6-0.4 1.1-0.4 1.8s0.2 1.1 0.4 1.6 0.5 1.1 0.5 1.9c0 1.3-0.8 2.3-0.9 2.5-0.2 0.3-0.4 0.3-0.6 0.3z"/>
<path class="st0" d="m266.6 32.9c-0.2 0-0.3 0-0.4-0.1-0.3-0.2-0.4-0.7-0.2-1 0.1-0.2 0.5-0.7 0.5-1.2 0-0.3-0.1-0.6-0.3-0.9-0.2-0.4-0.5-1-0.5-1.9 0-0.8 0.3-1.5 0.5-2 0.2-0.4 0.3-0.7 0.3-1.1s-0.3-0.6-0.3-0.6c-0.4-0.2-0.5-0.7-0.3-1s0.7-0.5 1-0.3c0.4 0.2 1.1 0.9 1.1 2 0 0.6-0.2 1.1-0.4 1.6s-0.4 0.9-0.4 1.5c0 0.5 0.2 0.8 0.3 1.2 0.2 0.4 0.5 0.9 0.5 1.6 0 1-0.7 1.9-0.8 2-0.1 0-0.4 0.2-0.6 0.2z"/>
<path class="st0" d="m270.7 32.9c-0.2 0-0.3 0-0.4-0.1-0.3-0.2-0.4-0.7-0.2-1 0.1-0.2 0.4-0.7 0.4-1.2 0-0.3-0.1-0.6-0.3-0.9-0.2-0.4-0.5-1-0.5-1.9 0-0.8 0.3-1.5 0.5-2 0.2-0.4 0.3-0.7 0.3-1.1s-0.3-0.6-0.3-0.7c-0.3-0.2-0.5-0.7-0.2-1 0.2-0.3 0.7-0.5 1-0.3 0.4 0.2 1.1 0.9 1.1 2 0 0.6-0.2 1.1-0.4 1.6s-0.4 0.9-0.4 1.5c0 0.5 0.2 0.8 0.3 1.2 0.2 0.4 0.5 0.9 0.5 1.6 0 1-0.7 1.9-0.7 2-0.2 0.1-0.5 0.3-0.7 0.3z"/>
<path class="st0" d="m274.7 32.9c-0.2 0-0.3 0-0.4-0.1-0.3-0.2-0.4-0.7-0.2-1 0.1-0.2 0.5-0.7 0.5-1.2 0-0.3-0.1-0.6-0.3-0.9-0.2-0.4-0.5-1-0.5-1.9 0-0.8 0.3-1.5 0.5-2 0.2-0.4 0.3-0.7 0.3-1.1s-0.3-0.6-0.3-0.6c-0.4-0.2-0.5-0.7-0.3-1s0.7-0.5 1-0.3c0.4 0.2 1.1 0.9 1.1 2 0 0.6-0.2 1.1-0.4 1.6s-0.4 0.9-0.4 1.5c0 0.5 0.2 0.8 0.3 1.2 0.2 0.4 0.5 0.9 0.5 1.6 0 1-0.7 1.9-0.7 2-0.2 0-0.5 0.2-0.7 0.2z"/>
<path class="st0" d="m443 36.8c-0.1 0-0.3 0-0.4-0.1-0.4-0.2-0.5-0.7-0.3-1 0.1-0.1 0.3-0.6 0.3-1 0-0.3-0.1-0.4-0.2-0.7-0.2-0.4-0.4-0.8-0.4-1.6 0-0.7 0.2-1.3 0.4-1.7 0.1-0.3 0.2-0.5 0.2-0.8 0-0.2-0.2-0.3-0.2-0.3-0.4-0.2-0.5-0.7-0.3-1s0.6-0.5 1-0.3 1 0.8 1 1.7c0 0.5-0.2 0.9-0.3 1.3s-0.3 0.7-0.3 1.2c0 0.4 0.1 0.7 0.3 1s0.3 0.7 0.3 1.3c0 0.9-0.4 1.7-0.5 1.8-0.1 0-0.3 0.2-0.6 0.2z"/>
<path class="st0" d="m446.8 38c-0.1 0-0.3 0-0.4-0.1-0.4-0.2-0.5-0.7-0.2-1 0.1-0.2 0.4-0.7 0.4-1.2 0-0.4-0.1-0.6-0.3-0.9-0.2-0.4-0.5-1-0.5-1.8s0.3-1.4 0.5-1.9c0.2-0.4 0.3-0.7 0.3-1 0-0.4-0.3-0.6-0.3-0.6-0.4-0.2-0.5-0.7-0.3-1 0.2-0.4 0.7-0.5 1-0.3 0.4 0.2 1.1 0.9 1.1 2 0 0.6-0.2 1.2-0.4 1.6s-0.4 0.8-0.4 1.3c0 0.4 0.1 0.7 0.3 1.1s0.5 0.9 0.5 1.6c0 1-0.6 1.9-0.6 2-0.2 0.1-0.5 0.2-0.7 0.2z"/>
<path class="st0" d="m450.6 39.1c-0.1 0-0.3 0-0.4-0.1-0.3-0.2-0.4-0.7-0.2-1 0.1-0.2 0.5-0.8 0.5-1.4 0-0.4-0.1-0.7-0.3-1.1-0.2-0.5-0.5-1.1-0.5-2 0-0.8 0.2-1.4 0.5-2 0.2-0.5 0.3-0.9 0.3-1.3 0-0.5-0.4-0.7-0.4-0.7-0.4-0.2-0.5-0.6-0.3-1s0.6-0.5 1-0.3c0.5 0.2 1.2 0.9 1.2 2.1 0 0.7-0.2 1.3-0.4 1.9-0.2 0.5-0.4 0.9-0.4 1.4 0 0.6 0.2 0.9 0.4 1.4s0.4 1 0.4 1.7c0 1.1-0.7 2.1-0.7 2.2-0.2 0.1-0.5 0.2-0.7 0.2z"/>
<path class="st0" d="m60 37.9c-0.3 0-0.6-0.2-0.7-0.5l-1.2-3.5c-0.4 0.2-0.9 0.4-1.4 0.4-1.8 0-3.3-1.4-3.3-3.3s1.4-3.3 3.3-3.3c0.4 0 0.7 0.1 1 0.2 0.6-1.4 2-2.4 3.6-2.4 1.4 0 2.7 0.8 3.4 2 0.5-0.3 1.1-0.4 1.7-0.4 1.9 0 3.6 1.6 3.6 3.6s-1.6 3.5-3.6 3.5c-0.6 0-1.1-0.1-1.6-0.4l-1.1 3.4c-0.1 0.4-0.5 0.6-0.9 0.5s-0.6-0.5-0.5-0.9l1.4-4.4c0.1-0.2 0.3-0.4 0.5-0.5 0.3-0.1 0.5 0 0.7 0.2 0.4 0.4 0.9 0.6 1.5 0.6 1.1 0 2.1-1 2.1-2 0-1.1-1-2.1-2.1-2.1-0.6 0-1.1 0.2-1.5 0.6-0.2 0.2-0.5 0.3-0.7 0.2-0.3-0.1-0.5-0.3-0.5-0.5-0.3-1.1-1.3-1.9-2.4-1.9-1.2 0-2.2 0.9-2.4 2.1 0 0.3-0.2 0.5-0.5 0.6-0.2 0.1-0.5 0.1-0.7-0.1-0.3-0.2-0.7-0.5-1.1-0.5-1 0-1.8 0.8-1.8 1.8s0.8 1.8 1.8 1.8c0.5 0 1-0.3 1.3-0.6 0.2-0.2 0.5-0.3 0.7-0.2 0.3 0.1 0.5 0.2 0.5 0.5l1.5 4.5c0.1 0.4-0.1 0.8-0.5 0.9 0.1 0 0 0.1-0.1 0.1z"/>
<path class="st0" d="m126.4 34.4h-8.2c-2.4 0-4.4-2-4.4-4.4v-8.2c0-2.4 2-4.3 4.4-4.3h8.2c2.4 0 4.4 2 4.4 4.3v8.2c0 2.4-2 4.4-4.4 4.4zm-8.2-15.4c-1.6 0-2.9 1.3-2.9 2.8v8.2c0 1.6 1.3 2.9 2.9 2.9h8.2c1.6 0 2.9-1.3 2.9-2.9v-8.2c0-1.6-1.3-2.8-2.9-2.8h-8.2z"/>
<path class="st0" d="m122.3 30.5c-2.5 0-4.5-2-4.5-4.5s2-4.5 4.5-4.5 4.6 2 4.6 4.5-2.1 4.5-4.6 4.5zm0-7.5c-1.7 0-3 1.4-3 3s1.4 3 3 3c1.7 0 3.1-1.4 3.1-3s-1.4-3-3.1-3z"/>
<path class="st0" d="m141.9 31c-2.7 0-4.9-2.2-4.9-4.9s2.2-4.9 4.9-4.9 4.9 2.2 4.9 4.9-2.2 4.9-4.9 4.9zm0-8.2c-1.8 0-3.4 1.5-3.4 3.4s1.5 3.4 3.4 3.4 3.4-1.5 3.4-3.4-1.6-3.4-3.4-3.4z"/>
	<path class="st0" d="m137.6 26.9h-7.6c-0.4 0-0.8-0.3-0.8-0.8s0.3-0.8 0.8-0.8h7.6c0.4 0 0.8 0.3 0.8 0.8s-0.4 0.8-0.8 0.8z"/>
<path class="st0" d="m173.6 26.9h-27.3c-0.4 0-0.8-0.3-0.8-0.8s0.3-0.8 0.8-0.8h27.3c0.4 0 0.8 0.3 0.8 0.8s-0.4 0.8-0.8 0.8z"/>
<path class="st0" d="m114.2 26.9h-6.3c-0.4 0-0.8-0.3-0.8-0.8s0.3-0.8 0.8-0.8h6.3c0.4 0 0.8 0.3 0.8 0.8s-0.4 0.8-0.8 0.8z"/>
	<path class="st0" d="m83.4 36.4v0c-0.1 0.1-0.1 0 0 0-0.1 0-0.1 0 0 0m0-1.2c-0.8 0-1.3 0.6-1.3 1.3 0 0.8 0.6 1.3 1.3 1.3 0.8 0 1.3-0.6 1.3-1.3s-0.6-1.3-1.3-1.3z"/>
	<path class="st0" d="m83.4 31.8c-0.4 0-0.8 0.3-0.8 0.8 0 0.4 0.3 0.8 0.8 0.8 0.4 0 0.8-0.3 0.8-0.8 0.1-0.4-0.4-0.8-0.8-0.8z"/>
	<path class="st0" d="m85.9 29.4c-0.4 0-0.8 0.3-0.8 0.8 0 0.4 0.3 0.8 0.8 0.8s0.8-0.3 0.8-0.8-0.4-0.8-0.8-0.8z"/>
	<path class="st0" d="m85.9 25.7c-0.6 0-1 0.5-1 1s0.5 1 1 1 1-0.5 1-1-0.4-1-1-1z"/>
	<path class="st0" d="m90.2 27.8c-0.3 0-0.5 0.3-0.5 0.5s0.3 0.5 0.5 0.5 0.5-0.3 0.5-0.5-0.2-0.5-0.5-0.5z"/>
	<path class="st0" d="m91.3 29.4c-0.5 0-0.8 0.4-0.8 0.8 0 0.5 0.4 0.8 0.8 0.8s0.8-0.4 0.8-0.8c0.2-0.5-0.3-0.8-0.8-0.8z"/>
	<path class="st0" d="m89.5 31.9c-0.3 0-0.5 0.3-0.5 0.5 0 0.3 0.3 0.5 0.5 0.5 0.3 0 0.5-0.3 0.5-0.5 0.1-0.2-0.1-0.5-0.5-0.5z"/>
	<path class="st0" d="m92.9 32.5c-0.6 0-1.2 0.5-1.2 1.2 0 0.6 0.5 1.2 1.2 1.2 0.6 0 1.2-0.5 1.2-1.2s-0.5-1.2-1.2-1.2z"/>
	<path class="st0" d="m93 35.7c-0.6 0-1 0.5-1 1 0 0.6 0.5 1 1 1 0.6 0 1-0.5 1-1 0.1-0.6-0.4-1-1-1z"/>
	<path class="st0" d="m87.3 34.6c-0.4 0-0.8 0.3-0.8 0.8 0 0.4 0.3 0.8 0.8 0.8 0.4 0 0.8-0.3 0.8-0.8 0-0.4-0.4-0.8-0.8-0.8z"/>
	<path class="st0" d="m88.9 37.2c-0.3 0-0.6 0.3-0.6 0.6s0.3 0.6 0.6 0.6 0.6-0.3 0.6-0.6-0.2-0.6-0.6-0.6z"/>
<path class="st0" d="m126.8 19h-9.1v-16.5c0-1.4 1.2-2.5 2.5-2.5h4.1c1.4 0 2.6 1.2 2.6 2.5l-0.1 16.5zm-7.5-1.5h6.1l0.1-15.1c0-0.6-0.6-1-1.1-1h-4.1c-0.6 0-1 0.6-1 1v15.1z"/>
<path class="st0" d="M126.9,100.5h-9.1V33.3h9.1V100.5z M119.3,99h6.1V34.8h-6.1V99z"/>
<path class="st0" d="m177.9 64-31.8-0.3c-1 0-1.8-0.5-2.4-1.2-0.5-0.8-0.6-1.9-0.2-2.8l13.3-29.7v-9.3h10.5v9.3l13.2 30c0.4 0.9 0.3 2-0.3 2.8-0.5 0.8-1.3 1.2-2.3 1.2zm-19.6-41.7v8.1l-13.4 29.9c-0.2 0.5-0.2 1 0.1 1.4 0.2 0.4 0.6 0.6 1.1 0.6l31.8 0.3c0.4 0 0.8-0.2 1.1-0.6s0.3-0.9 0.1-1.4l-13.4-30.2v-8.1h-7.4z"/>
<path class="st0" d="m167.3 22.3h-10.4c-1 0-1.9-0.8-1.9-1.9v-2.5c-0.1-0.5 0.1-0.9 0.4-1.3s0.9-0.6 1.5-0.6h10.4c1 0 1.9 0.8 1.9 1.8v2.6c-0.1 1-0.9 1.9-1.9 1.9zm-10.4-4.8c-0.2 0-0.3 0.1-0.3 0.1v0.1 0.1 2.6c0 0.2 0.2 0.4 0.4 0.4h10.4c0.2 0 0.4-0.2 0.4-0.4v-2.6c0-0.2-0.2-0.3-0.4-0.3h-10.5z"/>
<path class="st0" d="m188.4 108.5h-74.7v-6.1c0-1.9 1.5-3.5 3.5-3.5h67.8c1.8 0 3.5 1.6 3.5 3.5v6.1zm-73.3-1.5h71.7v-4.6c0-1-1-2-2-2h-67.8c-1.1 0-2 0.9-2 2v4.6z"/>
<path class="st0" d="m143.5 93.9h38.1c1.5 0 2.7 1.3 2.7 2.7v3.1h-43.6v-3.1c0.1-1.5 1.3-2.7 2.8-2.7z"/>
<path class="st0" d="M177.3,97H148V86.3h29.3V97z M149.5,95.5h26.3v-7.8h-26.3V95.5z"/>
<path class="st0" d="m168.8 86.8h-12.9l-0.2-0.3c-1.2-1.5-1.9-3.4-1.9-5.4 0-4.6 7.6-14.4 8-14.9l0.6-0.8 0.6 0.8c0.3 0.4 8 10.3 8 14.9 0 2.1-0.6 3.9-1.9 5.4l-0.3 0.3zm-12.1-1.5h11.5c0.9-1.1 1.3-2.6 1.3-4.1 0-3.1-4.6-10-7.1-13.2-2.4 3.2-7 10-7 13.2 0 1.5 0.4 2.9 1.3 4.1z"/>
<polyline class="st0" points="167.1 83.3 165.8 83.3 159.1 83.3 158.4 83.3"/>
<path class="st0" d="m166.7 80.5c0 1.1-0.4 2-1.1 2.8h-6c-0.7-0.8-1.1-1.7-1.1-2.8 0-2.3 4.1-7.6 4.1-7.6s4.1 5.3 4.1 7.6z"/>
<polyline class="st0" points="167.5 83.3 165.6 83.3 159.5 83.3 157.8 83.3"/>
<rect class="st0" x="152.6" y="40.6" width="19.1" height="1.5"/>
<path class="st0" d="m225.5 52h-14.6c-0.6 0-1.3-0.3-1.7-0.8-0.4-0.4-0.5-0.9-0.5-1.4v-3.4c0-1.2 1-2.1 2.1-2.1h14.6c1.2 0 2.1 1 2.1 2.1v3.4c0.1 1.2-0.8 2.2-2 2.2zm-14.6-6.2c-0.4 0-0.6 0.3-0.6 0.6v3.5c0 0.1 0 0.2 0.1 0.3 0.1 0.2 0.3 0.3 0.5 0.3h14.6c0.4 0 0.6-0.3 0.6-0.7v-3.4c0-0.4-0.3-0.6-0.6-0.6h-14.6z"/>
<path class="st0" d="m240.1 108.7h-43.8c-1.5 0-2.8-0.8-3.5-2-0.8-1.3-0.8-2.9 0-4.3l18.5-29.4v-22.5h13.9v22.3l9.6 15.3 8.8 14.2c0.8 1.3 0.8 2.9 0.1 4.3-0.8 1.3-2.1 2.1-3.6 2.1zm-27.3-56.7v21.4l-0.1 0.2-18.7 29.5c-0.5 0.8-0.5 1.9 0 2.8 0.5 0.8 1.3 1.3 2.2 1.3h43.8c0.9 0 1.8-0.5 2.2-1.3 0.5-0.9 0.5-1.9-0.1-2.7l-8.8-14.2-9.8-15.7v-21.3h-10.7z"/>
<rect class="st0" x="205.6" y="82.5" width="25.2" height="1.5"/>
<path class="st0" d="m253.8 108.7h-13.8v-1.5c0.9 0 1.8-0.5 2.2-1.3 0.5-0.9 0.5-1.9 0-2.8l-9-14.4v-64.4h23c0.5 0 0.8 0.3 0.9 0.4 0.1 0.2 0.3 0.5 0.1 1.1v0.1l-3.4 7.2v45.6l-0.1 0.2c-1.9 3-3 6.7-3 10.4 0 3.8 1 7.2 3 10.5l0.1 0.2v8.7zm-10.7-1.5h9.1v-6.8c-2.1-3.5-3.1-7.2-3.1-11.1s1.1-7.8 3.1-11v-45.6l3.3-7h-20.8v62.5l8.8 14c0.8 1.4 0.8 3 0 4.3-0.1 0.3-0.2 0.5-0.4 0.7zm13.4-81.7-0.7-0.2 0.7 0.2z"/>
<path class="st0" d="m279.8 108.7h-18.2l-0.2-0.1c-3.6-1.7-6.6-4.4-9-8.1-2.1-3.3-3.2-7.2-3.2-11.3 0-4 1.1-7.8 3.2-11.2 2.5-4.1 6.4-7.3 11-8.9v-28.1h14.4v28.1c8.6 3 14.3 11.1 14.3 20.2 0 8.2-4.8 15.8-12.1 19.3l-0.2 0.1zm-17.9-1.5h17.6c6.8-3.3 11.1-10.3 11.1-17.9 0-8.7-5.5-16.3-13.8-19l-0.5-0.2v-27.6h-11.4v27.7l-0.5 0.2c-4.5 1.5-8.3 4.5-10.7 8.5-2 3.2-3 6.7-3 10.4 0 3.8 1 7.5 3 10.5 2.1 3.2 4.9 5.8 8.2 7.4z"/>
<path class="st0" d="m278.7 42.5h-16.1c-1.2 0-2.1-1-2.1-2.2v-3.4c0-1.2 1-2.1 2.1-2.1h16.1c1.2 0 2.1 1 2.1 2.1v3.4c0.1 0.5-0.1 1-0.5 1.4-0.3 0.5-1 0.8-1.6 0.8zm-16.1-6.2c-0.3 0-0.6 0.3-0.6 0.6v3.4c0 0.3 0.3 0.7 0.6 0.7h16.1c0.2 0 0.4-0.1 0.5-0.3 0.1-0.1 0.1-0.2 0.1-0.3v-0.1-3.4c0-0.3-0.3-0.6-0.6-0.6h-16.1z"/>
<rect class="st0" x="234" y="44" width="19.1" height="1.5"/>
<rect class="st0" x="251.6" y="80.5" width="38.3" height="1.5"/>
<path class="st0" d="m305.4 89.8c-2.2 0-4-1.7-4-3.9 0-1.1 0.9-3.3 2.7-6.9 0.6-1 2-1 2.5-0.1 0.1 0.2 2.7 5.1 2.7 7 0 2.2-1.7 3.9-3.9 3.9zm0-10c-2.1 4.3-2.5 5.7-2.5 6.1 0 1.4 1.1 2.4 2.5 2.4s2.4-1.1 2.4-2.4c0-0.9-1.2-3.9-2.4-6.1z"/>
<path class="st0" d="m494.1 79.3c-2.6 0-4.8-2.1-4.8-4.8 0-1.5 1.5-4.7 3.1-8.1l0.5-0.9c0.2-0.5 0.8-0.8 1.3-0.7s0.8 0.3 1 0.8c3.7 7 3.7 8.5 3.7 9-0.1 2.6-2.2 4.7-4.8 4.7zm0-12.6-0.2 0.5c-1 2-3 6.1-3 7.4 0 1.8 1.5 3.3 3.3 3.3s3.3-1.5 3.3-3.3c-0.2-0.5-0.5-2.2-3.4-7.9z"/>
<path class="st0" d="m314.3 108.7h-17.8c-2 0-3.8-1.8-3.8-3.8v-5.2c0-0.4 0.2-1.1 1.5-2.4 0.1-0.1 0.3-0.2 0.5-0.2h21c0.2 0 0.4 0.1 0.5 0.2 1.5 1.4 1.8 2 1.8 2.5v5.2c0 1.9-1.7 3.7-3.7 3.7zm-19.2-10.2c-0.7 0.7-0.8 1.1-0.9 1.2v5.2c0 1.2 1.1 2.3 2.3 2.3h17.8c1.2 0 2.3-1.1 2.3-2.3v-5.2c0-0.1-0.2-0.4-1-1.2h-20.5zm21.5 1.3z"/>
<path class="st0" d="m315.9 98.7h-21c-0.3 0-0.6-0.2-0.7-0.5s-0.1-0.6 0.1-0.8c1.7-1.8 4.7-4 5.7-4.7v-1.4c0-0.4 0.3-0.8 0.8-0.8h9.3c0.4 0 0.8 0.3 0.8 0.8v1.4c0.9 0.7 3.8 2.9 5.6 4.6 0.2 0.2 0.3 0.5 0.2 0.8-0.2 0.4-0.5 0.6-0.8 0.6zm-19.1-1.5h17.2c-2-1.7-4.3-3.4-4.3-3.4-0.2-0.1-0.3-0.4-0.3-0.6v-1h-7.8v1c0 0.2-0.1 0.5-0.3 0.6-0.1-0.1-2.6 1.6-4.5 3.4z"/>
	<rect class="st0" x="304.2" y="90.3" width="2.5" height="3.9"/>
<rect class="st0" x="304.9" y="94.2" width="1" height="3.7"/>
<path class="st0" d="m305.9 77.4c-1.8 0-3.6-0.8-4.6-2.4-0.7-0.7-1-1.9-1-3.3 0-2.1 1.1-4 2.9-5l35.3-20.4 6.5-3.7 12.8-7.4 1.8-3.7c0.4-0.4 1-0.4 1.4 0l0.1 0.1 7.8 12.8-0.7 0.4c-0.1 0-0.1 0.1-0.1 0.1-0.1 0.1-0.3 0.2-0.6 0.2h-4.1l-17.7 10.3-6.5 3.7-30.2 17.4c-1.1 0.6-2.1 0.9-3.1 0.9zm54.4-44-1.4 2.9-19.7 11.3-35.3 20.4c-1.3 0.7-2.1 2.1-2.1 3.7 0 1.1 0.2 1.9 0.7 2.4 1.2 1.8 3.8 2.3 5.7 1.1l30.2-17.4 6.5-3.7 18.1-10.5h3.7l-6.4-10.2z"/>
<path class="st0" d="m360.5 48.2-6.5 3.7c-0.5 0.3-1.2 0.1-1.4-0.4l-1.2-2.1c-0.3-0.5-0.1-1.2 0.4-1.4l6.5-3.7c0.5-0.3 1.2-0.1 1.4 0.4l1.2 2.1c0.2 0.5 0.1 1.2-0.4 1.4z"/>
<path class="st0" d="m355.5 40.4-6.5 3.7c-0.5 0.3-1.2 0.1-1.4-0.4l-1.2-2.1c-0.3-0.5-0.1-1.2 0.4-1.4l6.5-3.7c0.5-0.3 1.2-0.1 1.4 0.4l1.3 2.1c0.2 0.5 0 1.2-0.5 1.4z"/>
<path class="st0" d="m367.4 39.1-6.4 3.7c-0.5 0.3-1.3 0.2-1.5-0.4l-1.4-2.3c-0.3-0.5-0.2-1.3 0.4-1.5l6.4-3.7c0.5-0.3 1.3-0.2 1.5 0.4l1.4 2.3c0.3 0.4 0.1 1.1-0.4 1.5z"/>
<path class="st0" d="m412.5 103.1c-0.9 0-1.8-0.3-2.5-0.8l-10.6-7.4c-0.9-0.6-1.6-1.6-1.7-2.8-0.2-1.1 0.1-2.3 0.8-3.2l2.5-3.6 33-47.2 17.6 12.4-25.1 36-10.6 14.9c-0.6 0.9-1.6 1.6-2.8 1.8-0.2-0.1-0.4-0.1-0.6-0.1zm21.9-63-34.8 49.7c-0.5 0.6-0.6 1.3-0.5 2.1 0.1 0.7 0.5 1.4 1.1 1.8l0.8 0.6 9.8 6.8c0.6 0.5 1.3 0.6 2.1 0.5 0.7-0.1 1.4-0.5 1.8-1.1l10.6-14.9 24.3-34.8-15.2-10.7z"/>
<path class="st0" d="m453.3 53.1c-0.3 0-0.6-0.1-0.9-0.2l-20.8-14.7c-0.4-0.2-0.7-0.7-0.8-1.2s0-1.1 0.3-1.4l1.5-2.2c0.2-0.4 0.7-0.7 1.2-0.8s1 0 1.4 0.3l20.8 14.5c0.4 0.2 0.7 0.7 0.8 1.2s0 1.1-0.3 1.4l-1.5 2.2c-0.4 0.6-1.1 0.9-1.7 0.9zm-0.1-1.5c0.1 0.1 0.4 0 0.6-0.2l1.5-2.2c0.1-0.1 0.1-0.2 0.1-0.3s-0.1-0.2-0.1-0.2l-20.9-14.7c-0.1-0.1-0.2-0.1-0.3-0.1s-0.2 0.1-0.2 0.1l-1.5 2.2c-0.1 0.1-0.1 0.2-0.1 0.3s0.1 0.2 0.1 0.2l20.8 14.9z"/>
<path class="st0" d="m398.9 104.1c-0.4 0-0.7 0-1.1-0.1-3.1-0.4-5.5-2.6-6.2-5.7l-14.8-62c-0.2-1-0.9-1.8-1.8-2.2s-1.8-0.3-2.6 0.2l-4.8 2.7-0.7-1.3 4.8-2.7c1.2-0.7 2.7-0.8 4-0.2 1.4 0.6 2.4 1.8 2.7 3.2l14.6 62c0.7 2.9 3 4.3 5 4.5 1.9 0.3 4.5-0.4 5.9-2.9l1-1.7 1.3 0.8-1 1.7c-1.3 2.4-3.7 3.7-6.3 3.7z"/>
<path class="st0" d="m359.9 108.7h-35.9c-1 0-1.8-0.7-1.8-1.8v-2.4c0-1 0.7-1.8 1.8-1.8h35.9c1 0 1.8 0.7 1.8 1.8v2.4c0 1-0.8 1.8-1.8 1.8zm-35.9-4.4c-0.2 0-0.3 0.1-0.3 0.3v2.4c0 0.2 0.1 0.3 0.3 0.3h35.9c0.1 0 0.3-0.1 0.3-0.3v-2.4c0-0.2-0.1-0.3-0.3-0.3h-35.9z"/>
<path class="st0" d="m337.8 48.2v-24.1c0-1 0.8-1.9 1.9-1.9h4.2c1.1 0 1.9 0.8 1.9 1.9v19.5l-8 4.6zm1.9-24.4c-0.2 0-0.4 0.2-0.4 0.4v21.5l5-2.8v-18.8c0-0.2-0.2-0.4-0.4-0.4h-4.2z"/>
<path class="st0" d="m345.8 104.3h-8v-46.3l8-4.6v50.9zm-6.5-1.5h5v-46.8l-5 2.8v44z"/>
<path class="st0" d="m494.4 62.3c-12.4 0-22.6-10.1-22.6-22.5 0-1.5 0.2-3.2 0.4-4.6l0.1-0.6h43.8l0.1 0.6c0.4 1.6 0.6 3.1 0.6 4.7 0.2 12.2-10 22.4-22.4 22.4zm-20.7-26.3c-0.2 1.2-0.3 2.5-0.3 3.8 0 11.6 9.4 21 21.1 21 11.6 0 21-9.4 21-21 0-1.2-0.1-2.5-0.4-3.8h-41.4z"/>
<path class="st0" d="m516.7 36h-44.6l0.2-0.9c1.4-6.7 5.9-12.5 12.1-15.6v-9.1h20.4v9.3c1.5 0.8 2.9 1.7 4.1 2.8 3.2 2.6 5.6 6.1 6.8 10 0.3 0.7 0.4 1.5 0.6 2.1l0.4 1.4zm-42.8-1.5h40.8c-0.1-0.5-0.3-1-0.4-1.5-1.2-3.7-3.4-7-6.4-9.4-1.3-1.1-2.8-2.1-4.3-2.8l-0.4-0.2v-8.7h-17.4v8.5l-0.4 0.2c-5.7 2.7-9.9 7.8-11.5 13.9z"/>
<path class="st0" d="m514.7 34-0.3-1c-1.2-3.4-3.4-6.7-6.4-9.4l-0.7-0.6 8.5-6.4 7.9 10.5-9 6.9zm-5-10.8c2.6 2.5 4.6 5.4 5.8 8.4l6.2-4.7-6.1-8.1-5.9 4.4z"/>
<path class="st0" d="m516.5 26.8-2.4-3.1c-0.6-0.8-0.4-1.8 0.3-2.4l5.2-4.1c0.8-0.6 1.8-0.4 2.4 0.3l2.4 3.1c0.6 0.8 0.4 1.8-0.3 2.4l-5.2 4.1c-0.8 0.7-1.9 0.5-2.4-0.3z"/>
<path class="st0" d="m523.1 44h-57.4c-0.8 0-1.4-0.7-1.4-1.4v-3.3c0-0.8 0.7-1.4 1.4-1.4h57.4c0.8 0 1.4 0.7 1.4 1.4v3.3c0 0.7-0.6 1.4-1.4 1.4z"/>
<rect class="st0" transform="matrix(.082075 -.9966 .9966 .082075 352.29 533.19)" x="432.9" y="74.6" width="65.3" height="1.5"/>
<rect class="st0" transform="matrix(.9973 -.07279 .07279 .9973 -4.1225 38.281)" x="522.4" y="43.4" width="1.5" height="64.6"/>
<rect class="st0" x="491" y="78.1" width="6.1" height="7"/>
<rect class="st0" x="492.2" y="84.8" width="4" height="5.4"/>
<rect class="st0" x="493.3" y="90.1" width="1.5" height="6.8"/>
<rect class="st0" x="489.6" y="80.7" width="9.3" height="4.3"/>
<path class="st0" d="m508.4 108.7h-28.6c-2.1 0-3.8-1.7-3.8-3.9v-8.6h36.3v8.6c0 2.1-1.8 3.9-3.9 3.9zm-30.9-11v7.1c0 1.3 1.1 2.4 2.3 2.4h28.6c1.3 0 2.3-1.1 2.3-2.4v-7.1h-33.2z"/>
<path class="st0" d="m512.3 97.7h-36.3v-2.5c0-2.1 8.1-4.5 11.2-4.9l0.4-7.2h13.1l0.4 7.2c2.6 0.4 11.1 2.4 11.1 4.9v2.5zm-34.8-1.5h33.3v-0.9c-0.6-1.1-8.1-3.4-10.4-3.5h-0.7l-0.4-7.1h-10.3l-0.4 7.1h-0.7c-2.7 0-9.7 2.5-10.5 3.6v0.8zm-0.1-0.8z"/>
<path class="st0" d="m436.8 108.7h-55.3c-2.7 0-5.1-1.8-5.9-4.4l-5.2-17.7c-0.1-0.3-0.1-0.7 0.2-1 0.2-0.3 0.5-0.4 0.9-0.4h31.5l-3.3 4.8c-0.9 1.3-0.6 3 0.6 3.9l0.8 0.6 9.8 6.8c1.3 0.9 3 0.6 3.9-0.6l10.8-15.2h21.2c0.2-0.1 0.5 0 0.7 0.1 0.4 0.3 0.6 0.8 0.5 1.3l-5.2 17.6c-0.9 2.4-3.3 4.2-6 4.2zm-64.8-22.2 2.4 8.1 2.7 9.1c0.6 2 2.4 3.4 4.5 3.4h55.3c2.1 0 3.9-1.4 4.5-3.4l5-17h-20l-10.4 14.6c-1.3 1.9-4 2.3-5.9 1l-10.6-7.4c-0.9-0.6-1.5-1.6-1.7-2.7s0.1-2.2 0.7-3.2l1.7-2.4h-28.2zm-0.2-0.4z"/>
<rect class="st0" x="419.5" y="94.3" width="24.9" height="1.5"/>
<rect class="st0" x="373.6" y="94.3" width="27.1" height="1.5"/>
<rect class="st0" x="404.3" y="81.2" width="24.5" height="1.5"/>
<rect class="st0" x="318.4" y="58" width="19.9" height="1.5"/>
<circle class="st0" cx="494.6" cy="55.4" r="2"/>
<circle class="st0" cx="496.3" cy="47.6" r="2"/>
<circle class="st0" cx="501" cy="55.4" r="2"/>
<circle class="st0" cx="489.6" cy="51.7" r="2"/>
<circle class="st0" cx="504.1" cy="49.2" r="2"/>
<circle class="st0" cx="484.2" cy="48.4" r="2"/>
<circle class="st0" cx="414.2" cy="90.8" r="2"/>
<circle class="st0" cx="430" cy="100.4" r="2"/>
<circle class="st0" cx="437.9" cy="101.4" r="2"/>
<circle class="st0" cx="419.5" cy="103.5" r="2"/>
<circle class="st0" cx="397.3" cy="99" r="2"/>
<circle class="st0" cx="388.3" cy="103.5" r="2"/>
<circle class="st0" cx="380.3" cy="98.3" r="2"/>
<circle class="st0" cx="408.1" cy="94.1" r="2"/>
<circle class="st0" cx="407.6" cy="87.9" r="2"/>
<circle class="st0" cx="153.1" cy="54.7" r="2"/>
<circle class="st0" cx="162.7" cy="53.6" r="2"/>
<circle class="st0" cx="211.5" cy="96.2" r="2"/>
<circle class="st0" cx="216.1" cy="100.2" r="2"/>
<circle class="st0" cx="218.2" cy="93.7" r="2"/>
<circle class="st0" cx="206.4" cy="100.2" r="2"/>
<circle class="st0" cx="243.2" cy="54.7" r="2"/>
<circle class="st0" cx="241.9" cy="61.8" r="2"/>
<circle class="st0" cx="246.7" cy="65.6" r="2"/>
<circle class="st0" cx="242.5" cy="74.8" r="2"/>
<circle class="st0" cx="238.4" cy="67.6" r="2"/>
<circle class="st0" cx="247.7" cy="78.8" r="2"/>
<circle class="st0" cx="242.5" cy="84" r="2"/>
<circle class="st0" cx="245.6" cy="92.4" r="2"/>
<circle class="st0" cx="261.1" cy="87.5" r="2"/>
<circle class="st0" cx="267.9" cy="94.2" r="2"/>
<circle class="st0" cx="259.5" cy="95.7" r="2"/>
<circle class="st0" cx="269.1" cy="86" r="2"/>
<circle class="st0" cx="274.5" cy="95.7" r="2"/>
<circle class="st0" cx="265.8" cy="102.9" r="2"/>
<circle class="st0" cx="273.9" cy="102.9" r="2"/>
<circle class="st0" cx="283.1" cy="88.9" r="2"/>
<circle class="st0" cx="305.9" cy="73.1" r="2"/>
<circle class="st0" cx="311" cy="67.6" r="2"/>
<circle class="st0" cx="325" cy="62.3" r="2"/>
<circle class="st0" cx="318.4" cy="66.2" r="2"/>
<circle class="st0" cx="283.1" cy="97.7" r="2"/>
<circle class="st0" cx="277" cy="87" r="2"/>
<circle class="st0" cx="225" cy="91.6" r="2"/>
<circle class="st0" cx="211.5" cy="88.2" r="2"/>
<circle class="st0" cx="225" cy="99.7" r="2"/>
<circle class="st0" cx="231.8" cy="95.7" r="2"/>
<circle class="st0" cx="158.4" cy="48.7" r="2"/>
<circle class="st0" cx="166.7" cy="47.5" r="2"/>
<circle class="st0" cx="168.9" cy="55.6" r="2"/>
<path class="st0" d="m505.6 11.9h-21.7c-1 0-1.9-0.8-1.9-1.9v-2.5c0-1 0.8-1.9 1.9-1.9h21.7c1 0 1.9 0.8 1.9 1.9v2.6c-0.2 1.1-0.9 1.8-1.9 1.8zm-21.7-4.8c-0.2 0-0.4 0.2-0.4 0.4v2.5c0 0.2 0.2 0.4 0.4 0.4h21.7c0.1 0 0.3 0 0.4-0.4v-2.5c0-0.2-0.2-0.4-0.4-0.4h-21.7z"/>
</svg>
