<?xml version="1.0" encoding="utf-8"?>
<!-- Generator: Adobe Illustrator 17.0.0, SVG Export Plug-In . SVG Version: 6.00 Build 0)  -->
<!DOCTYPE svg PUBLIC "-//W3C//DTD SVG 1.1//EN" "http://www.w3.org/Graphics/SVG/1.1/DTD/svg11.dtd">
<svg version="1.1"
	 id="Layer_1" shape-rendering="geometricPrecision" xmlns:cc="http://creativecommons.org/ns#" xmlns:dc="http://purl.org/dc/elements/1.1/" xmlns:rdf="http://www.w3.org/1999/02/22-rdf-syntax-ns#"
	 xmlns="http://www.w3.org/2000/svg" xmlns:xlink="http://www.w3.org/1999/xlink" x="0px" y="0px" width="500px" height="500px"
	 viewBox="-262.006 -214.828 500 500" enable-background="new -262.006 -214.828 500 500" xml:space="preserve">
<g>
	
		<line fill="none" stroke="#000000" stroke-width="0.1364" stroke-linecap="square" stroke-miterlimit="10" x1="-180.592" y1="148.932" x2="-180.592" y2="66.655"/>
	<polyline points="-178.818,148.249 -182.229,150.159 -182.229,65.564 -178.818,67.473 -178.818,148.249 	"/>
	
		<line fill="none" stroke="#000000" stroke-width="0.1364" stroke-linecap="square" stroke-miterlimit="10" x1="-170.631" y1="143.201" x2="-170.631" y2="72.386"/>
	<polyline points="-168.857,143.473 -172.405,143.473 -172.405,72.25 -168.857,72.25 -168.857,143.473 	"/>
	
		<line fill="none" stroke="#000000" stroke-width="0.1364" stroke-linecap="square" stroke-miterlimit="10" x1="-109.094" y1="190.41" x2="-180.319" y2="149.34"/>
	<polyline points="-108.958,188.501 -108.958,192.593 -182.229,150.159 -178.818,148.249 -108.958,188.501 	"/>
	
		<line fill="none" stroke="#000000" stroke-width="0.1364" stroke-linecap="square" stroke-miterlimit="10" x1="-37.461" y1="149.34" x2="-108.685" y2="190.41"/>
	<polyline points="-39.098,148.249 -35.55,150.159 -108.958,192.593 -108.958,188.501 -39.098,148.249 	"/>
	
		<line fill="none" stroke="#000000" stroke-width="0.1364" stroke-linecap="square" stroke-miterlimit="10" x1="-47.421" y1="143.61" x2="-108.685" y2="178.949"/>
	<polyline points="-48.103,141.973 -46.329,144.974 -108.139,180.587 -109.777,177.584 -48.103,141.973 	"/>
	
		<line fill="none" stroke="#000000" stroke-width="0.1364" stroke-linecap="square" stroke-miterlimit="10" x1="-37.324" y1="66.655" x2="-37.324" y2="148.932"/>
	<polyline points="-39.098,67.473 -37.324,66.518 -35.55,67.473 -35.55,150.159 -39.098,148.249 -39.098,67.473 	"/>
	
		<line fill="none" stroke="#000000" stroke-width="0.1364" stroke-linecap="square" stroke-miterlimit="10" x1="-108.685" y1="25.311" x2="-37.461" y2="66.245"/>
	<polyline points="-108.958,27.085 -108.958,25.176 -107.184,24.084 -37.324,64.472 -37.324,66.518 -39.098,67.473 -108.958,27.085 
			"/>
	
		<line fill="none" stroke="#000000" stroke-width="0.1364" stroke-linecap="square" stroke-miterlimit="10" x1="-108.685" y1="36.773" x2="-47.421" y2="71.976"/>
	<polyline points="-109.777,38.138 -108.139,35.137 -46.329,70.748 -48.103,73.751 -109.777,38.138 	"/>
	
		<line fill="none" stroke="#000000" stroke-width="0.1364" stroke-linecap="square" stroke-miterlimit="10" x1="-180.319" y1="66.245" x2="-109.094" y2="25.311"/>
	<polyline points="-178.818,67.473 -182.229,65.564 -110.732,24.084 -108.958,25.176 -108.958,27.085 -178.818,67.473 	"/>
	
		<line fill="none" stroke="#000000" stroke-width="0.1364" stroke-linecap="square" stroke-miterlimit="10" x1="-108.958" y1="-57.373" x2="-108.958" y2="24.902"/>
	<polyline points="-110.732,-58.465 -107.184,-56.556 -107.184,24.084 -108.958,25.176 -110.732,24.084 -110.732,-58.465 	"/>
	<text transform="matrix(1 0 0 1 14.2529 43.7329)" font-family="'ArialMT'" font-size="51.167">O</text>
	
		<line fill="none" stroke="#000000" stroke-width="0.1364" stroke-linecap="square" stroke-miterlimit="10" x1="16.026" y1="35.818" x2="-37.051" y2="66.245"/>
	<polyline points="15.48,34.044 17.118,37.047 -35.55,67.473 -37.324,66.518 -37.324,64.472 15.48,34.044 	"/>
	<text transform="matrix(1 0 0 1 -200.5117 -80.2959)" font-family="'ArialMT'" font-size="51.167">O</text>
	
		<line fill="none" stroke="#000000" stroke-width="0.1364" stroke-linecap="square" stroke-miterlimit="10" x1="-165.173" y1="-84.117" x2="-109.094" y2="-52.053"/>
	<polyline points="-166.129,-82.889 -164.491,-85.892 -108.139,-53.28 -109.777,-50.279 -166.129,-82.889 	"/>
	
		<line fill="none" stroke="#000000" stroke-width="0.1364" stroke-linecap="square" stroke-miterlimit="10" x1="-160.125" y1="-92.714" x2="-104.182" y2="-60.648"/>
	<polyline points="-161.217,-91.485 -159.443,-94.488 -103.091,-61.876 -104.865,-58.875 -161.217,-91.485 	"/>
	<text transform="matrix(1 0 0 1 -57.3804 -80.2959)" font-family="'ArialMT'" font-size="51.167">OH</text>
	
		<line fill="none" stroke="#000000" stroke-width="0.1364" stroke-linecap="square" stroke-miterlimit="10" x1="-55.608" y1="-88.211" x2="-108.685" y2="-57.783"/>
	<polyline points="-56.154,-89.985 -54.516,-86.983 -107.184,-56.556 -110.732,-58.465 -56.154,-89.985 	"/>
	
		<line fill="none" stroke="#000000" stroke-width="0.1364" stroke-linecap="square" stroke-miterlimit="10" x1="105.671" y1="66.245" x2="52.184" y2="35.545"/>
	<polyline points="105.807,64.472 105.807,68.428 51.093,36.909 52.866,33.907 105.807,64.472 	"/>
	
		<line fill="none" stroke="#000000" stroke-width="0.1364" stroke-linecap="square" stroke-miterlimit="10" x1="177.305" y1="25.311" x2="106.08" y2="66.245"/>
	<polyline points="176.622,23.674 177.441,25.176 178.26,26.676 105.807,68.428 105.807,64.472 176.622,23.674 	"/>
	<text transform="matrix(1 0 0 1 85.8867 167.7617)" font-family="'ArialMT'" font-size="51.167">O</text>
	
		<line fill="none" stroke="#000000" stroke-width="0.1364" stroke-linecap="square" stroke-miterlimit="10" x1="110.856" y1="127.918" x2="110.856" y2="63.789"/>
	<polyline points="112.493,128.192 109.082,128.192 109.082,63.653 112.493,63.653 112.493,128.192 	"/>
	
		<line fill="none" stroke="#000000" stroke-width="0.1364" stroke-linecap="square" stroke-miterlimit="10" x1="100.895" y1="127.918" x2="100.895" y2="63.789"/>
	<polyline points="102.669,128.192 99.121,128.192 99.121,63.653 102.669,63.653 102.669,128.192 	"/>
</g>
</svg>
