<?xml version="1.0" encoding="utf-8"?>
<!-- Generator: Adobe Illustrator 20.0.0, SVG Export Plug-In . SVG Version: 6.00 Build 0)  -->
<svg version="1.1" id="Layer_1" xmlns="http://www.w3.org/2000/svg" xmlns:xlink="http://www.w3.org/1999/xlink" x="0px" y="0px"
	 viewBox="0 0 300.3 335.8" style="enable-background:new 0 0 300.3 335.8;" xml:space="preserve">
<style type="text/css">
	.st0{fill:none;stroke:#3881B1;stroke-width:1.5;stroke-miterlimit:10;}
	.st1{fill:none;stroke:#3881B1;stroke-width:1.5;stroke-linecap:round;stroke-miterlimit:10;}
	.st2{fill:#3881B1;}
	.st3{fill:none;stroke:#3881B1;stroke-width:1.5;stroke-linecap:round;stroke-linejoin:round;stroke-miterlimit:10;}
</style>
<path class="st0" d="M218.8,86.8L218.8,86.8c2.5,0,4.5,2,4.5,4.5v6.5h-9.1v-6.5C214.3,88.8,216.3,86.8,218.8,86.8z"/>
<circle class="st0" cx="65.4" cy="186.2" r="4.5"/>
<circle class="st0" cx="65.4" cy="200" r="4.5"/>
<circle class="st0" cx="65.4" cy="213.9" r="4.5"/>
<line class="st0" x1="60.9" y1="200" x2="56.3" y2="200"/>
<line class="st0" x1="60.9" y1="213.9" x2="56.3" y2="213.9"/>
<line class="st0" x1="60.9" y1="186.2" x2="56.3" y2="186.2"/>
<path class="st0" d="M56.3,177.2v44.7H45.6v-44.7c1.6,0.9,3.4,1.4,5.3,1.4C52.9,178.6,54.7,178.1,56.3,177.2z"/>
<path class="st0" d="M55.8,126.4h-9.5c0-2.6,2.1-4.8,4.8-4.8C53.6,121.6,55.8,123.7,55.8,126.4z"/>
<path class="st0" d="M146.4,112.4v8.2h-7.2v-8.2c1.1,0.5,2.3,0.8,3.6,0.8C144,113.1,145.3,112.9,146.4,112.4z"/>
<path class="st0" d="M145.7,131.9v2.7c0,2,1.6,3.6,3.6,3.6h17.3c2,0,3.6,1.6,3.6,3.6v1.5"/>
<path class="st0" d="M61.2,129.2h12c4,0,7.2,3.2,7.2,7.2v10.1"/>
<path class="st0" d="M166.4,155.8c-2,1-3.6,2.6-4.5,4.6"/>
<path class="st0" d="M179.2,168.4c-0.9,2-2.5,3.6-4.5,4.6"/>
<path class="st0" d="M166.4,173c-2-0.9-3.6-2.5-4.5-4.5"/>
<path class="st0" d="M179.2,160.3c-0.9-2-2.6-3.6-4.6-4.6"/>
<path class="st0" d="M155.8,160.3c1.4-5.2,5.6-9.3,10.8-10.7"/>
<path class="st0" d="M155.8,168.4c1.4,5.2,5.6,9.4,10.8,10.8"/>
<path class="st0" d="M174.5,149.6c5.2,1.4,9.3,5.5,10.8,10.7"/>
<path class="st0" d="M174.4,179.2c5.2-1.4,9.4-5.5,10.8-10.7"/>
<path class="st0" d="M100.8,129.2h-4.9c-4,0-7.2,3.2-7.2,7.2v10"/>
<circle class="st0" cx="84.3" cy="112.4" r="3"/>
<circle class="st0" cx="84.3" cy="112.4" r="7.5"/>
<path class="st0" d="M68.4,129.2c-3.1-2.8-5-6.8-5-11.3c0-8.5,6.9-15.4,15.4-15.4c4.6,0,8.7,2,11.5,5.2c0,0,8.2,3.5,14.1-2.7"/>
<path class="st0" d="M91.2,115.4c0,0,7-1.8,12.6,3.2"/>
<path class="st0" d="M137.4,54.1V40.7c-1.2-0.2-2.1-1.2-2.1-2.4c0-1.4,1.1-2.5,2.5-2.5h2l0.5,4.1h5l0.5-4.1h2c1.4,0,2.5,1.1,2.5,2.5
	c0,1.2-0.9,2.2-2.1,2.4V54l2.6,5.8h-16L137.4,54.1z"/>
<line class="st1" x1="51" y1="99.4" x2="51" y2="89.4"/>
<polyline class="st1" points="46.6,93.4 51,89 55.4,93.4 "/>
<circle class="st0" cx="263.3" cy="172.9" r="3.3"/>
<circle class="st0" cx="274.2" cy="172.9" r="3.3"/>
<circle class="st0" cx="252.6" cy="172.9" r="3.3"/>
<path class="st0" d="M281.3,198.8c0-9.9-8-18-18-18s-18,8-18,18c0,8.2,5.5,15.1,13,17.3V233h9.9v-16.9
	C275.8,213.9,281.3,207,281.3,198.8z"/>
<path class="st0" d="M157.4,143.3h26.3c4.4,0,8,3.6,8,8v26.3c0,4.4-3.6,8-8,8h-26.3c-4.4,0-8-3.6-8-8v-26.3
	C149.4,146.9,153,143.3,157.4,143.3z"/>
<path class="st0" d="M175,152.2c0,2.6-0.8,6.2-1.9,8.5c-0.7-0.5-1.6-0.8-2.5-0.8c-1,0-1.9,0.3-2.6,0.8c-1.1-2.2-1.9-5.6-1.9-8.5
	c0-2.5,1.3-5.6,4.5-5.6C173.6,146.7,175,149.7,175,152.2z"/>
<path class="st0" d="M175,176.3c0,2.5-1.2,5.6-4.5,5.6c-3.1,0-4.5-3-4.5-5.5c0-2.6,0.7-6.1,1.9-8.4c0.7,0.5,1.6,0.8,2.6,0.8
	s1.9-0.3,2.6-0.9C174.3,170.2,175,173.5,175,176.3z"/>
<path class="st0" d="M188.6,164.4c0,3.1-3,4.5-5.5,4.5c-2.7,0-6.5-0.8-8.8-2.1c0.5-0.7,0.7-1.5,0.7-2.4s-0.3-1.8-0.7-2.5
	c2.2-1.2,5.7-2,8.7-2C185.5,159.9,188.6,161.2,188.6,164.4z"/>
<path class="st0" d="M166.9,166.9c-2.2,1.2-5.6,1.9-8.6,1.9c-2.5,0-5.6-1.3-5.6-4.5c0-3.1,3-4.5,5.5-4.5c2.7,0,6.3,0.8,8.6,2
	c-0.5,0.7-0.8,1.6-0.8,2.5C166.1,165.3,166.4,166.2,166.9,166.9z"/>
<path class="st0" d="M175,164.4c0,0.9-0.2,1.7-0.7,2.4c-0.3,0.5-0.7,0.9-1.1,1.2c-0.7,0.5-1.7,0.9-2.6,0.9c-1,0-1.9-0.3-2.6-0.8
	c-0.4-0.3-0.8-0.7-1.1-1.1c-0.5-0.7-0.8-1.6-0.8-2.5s0.3-1.8,0.8-2.5c0.3-0.5,0.7-0.8,1.1-1.2c0.7-0.5,1.6-0.8,2.6-0.8
	c0.9,0,1.8,0.3,2.5,0.8c0.5,0.3,0.9,0.8,1.2,1.2C174.7,162.6,175,163.5,175,164.4z"/>
<line class="st0" x1="263.3" y1="233" x2="263.3" y2="185.5"/>
<circle class="st0" cx="248.1" cy="132.1" r="5.8"/>
<line class="st0" x1="248.1" y1="126.4" x2="248.1" y2="53.1"/>
<circle class="st0" cx="51" cy="152" r="2.8"/>
<circle class="st0" cx="51" cy="152" r="8"/>
<path class="st0" d="M56.7,167.5c0,3.2-2.6,5.7-5.7,5.7c-3.2,0-5.7-2.6-5.7-5.7c0-0.8,0.2-1.6,0.5-2.3c1.6,0.7,3.4,1,5.3,1
	c1.8,0,3.6-0.3,5.3-1C56.6,166,56.7,166.7,56.7,167.5z"/>
<path class="st0" d="M65.3,151.9c0,4-1.7,7.7-4.3,10.3c-1.3,1.3-3,2.4-4.7,3.1c-1.6,0.7-3.4,1-5.3,1c-1.9,0-3.6-0.3-5.3-1
	c-1.8-0.7-3.4-1.8-4.7-3.1c-2.7-2.6-4.3-6.2-4.3-10.3c0-7.9,6.4-14.3,14.3-14.3C58.9,137.6,65.3,144,65.3,151.9z"/>
<path class="st0" d="M62.2,167.3c0,4.3-2.4,8-5.9,9.9c-1.6,0.9-3.4,1.4-5.3,1.4c-1.9,0-3.8-0.5-5.3-1.4c-3.5-1.9-5.9-5.6-5.9-9.9
	c0-1.8,0.5-3.6,1.2-5.1c1.3,1.3,2.9,2.4,4.7,3.1c1.6,0.7,3.4,1,5.3,1c1.8,0,3.6-0.3,5.3-1c1.8-0.7,3.4-1.8,4.7-3.1
	C61.8,163.8,62.2,165.5,62.2,167.3z"/>
<path class="st0" d="M109.4,120.6c-4.8,0-8.6-3.9-8.6-8.6c0-4.8,3.9-8.6,8.6-8.6H127c3,0,5.7,1.4,7.3,3.8"/>
<path class="st0" d="M109.4,120.6c-4.8,0-8.6,3.9-8.6,8.6s3.9,8.6,8.6,8.6"/>
<path class="st0" d="M113.7,129.2c4.8,0,8.6-3.9,8.6-8.6c0-4.8-3.9-8.6-8.6-8.6"/>
<path class="st0" d="M166.6,123.6c-1.2-1.4-2-3.2-2-5.2s0.8-3.8,2-5.2"/>
<path class="st0" d="M166.6,113.1c-1.2-1.4-2-3.2-2-5.2c0-2.1,0.8-4,2.1-5.4"/>
<path class="st0" d="M166.6,123.6c-1.2,1.4-2,2.9-2,5.2l0,0c0,2.3,2,4,4.2,4h7.5c1.5,0,2.7,1.2,2.7,2.7v7.6"/>
<path class="st0" d="M165.2,94.1L165.2,94.1c-0.4,1-0.6,2-0.6,3.1c0,2.1,0.8,4,2.1,5.4"/>
<path class="st0" d="M174.9,102.5c0,1.4-1.1,2.5-2.5,2.5c-0.1,0-0.2,0-0.3,0c-2.2-0.1-4.1-1-5.5-2.5c1.4-1.5,3.3-2.4,5.5-2.5
	c0.1,0,0.2,0,0.3,0C173.8,100,174.9,101.1,174.9,102.5z"/>
<path class="st0" d="M175.1,113.1c0,1.5-1.2,2.6-2.6,2.6c-0.1,0-0.2,0-0.3,0c-2.2-0.1-4.2-1.1-5.6-2.6c1.4-1.6,3.4-2.6,5.6-2.6
	c0.1,0,0.2,0,0.3,0C173.9,110.5,175.1,111.7,175.1,113.1z"/>
<path class="st0" d="M175.1,123.6c0,1.5-1.2,2.7-2.6,2.7c-0.1,0-0.2,0-0.3,0c-2.2-0.1-4.2-1.1-5.6-2.6c1.4-1.6,3.4-2.6,5.6-2.6
	c0.1,0,0.2,0,0.3,0C173.9,120.9,175.1,122.1,175.1,123.6z"/>
<circle class="st0" cx="168.9" cy="90.8" r="5"/>
<path class="st0" d="M254.8,160.3c-5.1,2-9.4,5.9-11.9,10.7c-1.9-1.5-3.2-3.8-3.2-6.5c0-4.5,3.6-8.1,8.1-8.1
	C250.8,156.4,253.4,157.9,254.8,160.3z"/>
<path class="st0" d="M192.2,46.3c0-3.4,6.2-12.8,6.2-12.8s6.2,9.4,6.2,12.8c0,3.4-2.8,6.2-6.2,6.2S192.2,49.8,192.2,46.3z"/>
<path class="st2" d="M195.2,46.1c0-1.8,3.3-6.8,3.3-6.8s3.3,5,3.3,6.8s-1.5,3.3-3.3,3.3S195.2,48,195.2,46.1z"/>
<path class="st2" d="M167.5,53.4c0-1.5,2.7-5.5,2.7-5.5s2.7,4,2.7,5.5s-1.2,2.7-2.7,2.7S167.5,54.8,167.5,53.4z"/>
<path class="st2" d="M107.9,52.8c0-1,1.8-3.8,1.8-3.8s1.8,2.8,1.8,3.8s-0.8,1.8-1.8,1.8C108.8,54.7,107.9,53.9,107.9,52.8z"/>
<path class="st2" d="M107.2,64.2c0-1.4,2.6-5.3,2.6-5.3s2.6,3.9,2.6,5.3c0,1.4-1.2,2.6-2.6,2.6S107.2,65.7,107.2,64.2z"/>
<path class="st2" d="M167.5,65.5c0-1.5,2.7-5.5,2.7-5.5s2.7,4,2.7,5.5s-1.2,2.7-2.7,2.7S167.5,66.9,167.5,65.5z"/>
<path class="st2" d="M184.8,129.9c0-1.5,2.7-5.5,2.7-5.5s2.7,4,2.7,5.5s-1.2,2.7-2.7,2.7S184.8,131.3,184.8,129.9z"/>
<path class="st0" d="M103.4,241.6c0,7.2-5.4,13.1-12.3,14c-0.5-3.1-3.1-5.4-6.3-5.4c-3.2,0-5.9,2.4-6.4,5.5h-49
	c-7.8,0-14.1-6.3-14.1-14.1s6.3-14.1,14.1-14.1h41c0-8,6.5-14.5,14.5-14.5s14.5,6.5,14.5,14.5c0,1.3-0.2,2.5-0.5,3.7
	C101.6,233.8,103.4,237.5,103.4,241.6z"/>
<circle class="st0" cx="84.8" cy="227.5" r="9.8"/>
<circle class="st0" cx="29.6" cy="241.7" r="9.2"/>
<path class="st0" d="M275.6,114.3c1.5,1.6,2.4,3.7,2.4,6c0,2.2-0.8,4.2-2.1,5.7"/>
<path class="st0" d="M275.9,126c1.3,1.5,2.1,3.5,2.1,5.7s-0.8,4.2-2.2,5.8"/>
<path class="st0" d="M267.3,159v-7.6c0-2.6,2.1-4.6,4.6-4.6h2.5c1.9,0,3.6-1.5,3.6-3.4l0,0c0-2.2-0.8-4.2-2.2-5.8"/>
<path class="st0" d="M275.4,114.3c-1.5,1.6-3.6,2.6-6,2.7c-0.1,0-0.2,0-0.3,0c-1.5,0-2.7-1.2-2.7-2.7s1.2-2.7,2.7-2.7
	c0.1,0,0.2,0,0.3,0C271.7,111.7,273.9,112.7,275.4,114.3z"/>
<path class="st0" d="M275.9,126c-1.6,1.8-3.9,3-6.5,3c-1.6,0-3-1.3-3-3c0-1.6,1.3-3,3-3C272,123.1,274.3,124.2,275.9,126z"/>
<path class="st0" d="M275.8,137.5c-1.5,1.7-3.7,2.8-6.2,2.9c-0.1,0-0.2,0-0.3,0c-1.6,0-2.9-1.3-2.9-2.9c0-1.6,1.3-2.9,2.9-2.9
	C271.9,134.6,274.2,135.7,275.8,137.5z"/>
<path class="st0" d="M275.6,114.3c1.5-1.6,2.4-3.7,2.4-6c0-0.6-0.1-1.3-0.2-1.9c-0.5-2.1-2.4-3.6-4.5-3.6l0,0h-14.5"/>
<circle class="st0" cx="270.7" cy="88.8" r="4.1"/>
<circle class="st0" cx="270.7" cy="77" r="4.1"/>
<circle class="st0" cx="270.7" cy="64.8" r="4.1"/>
<circle class="st0" cx="226.2" cy="51.4" r="4.6"/>
<circle class="st0" cx="226.2" cy="65.3" r="4.6"/>
<circle class="st0" cx="226.2" cy="78.9" r="4.6"/>
<line class="st0" x1="230.8" y1="78.9" x2="237.3" y2="78.9"/>
<line class="st0" x1="258.8" y1="64.8" x2="266.6" y2="64.8"/>
<line class="st0" x1="237.3" y1="65.3" x2="230.8" y2="65.3"/>
<line class="st0" x1="237.3" y1="51.6" x2="230.8" y2="51.6"/>
<line class="st0" x1="266.6" y1="77" x2="258.8" y2="77"/>
<line class="st0" x1="266.6" y1="88.8" x2="258.8" y2="88.8"/>
<circle class="st0" cx="218.7" cy="162.6" r="8.4"/>
<path class="st0" d="M243.3,235.9c-1.5-0.6-3.2-0.9-5-0.9h-19.1v-57.1c-8.5,0-15.8-6.4-15.8-15.2c0-8.5,6.9-15.4,15.4-15.4
	s15.4,7,15.4,15.4c0,8.2-17,26-4.9,52.7c-1.6,1.4-2.7,3.5-2.7,5.9c0,4.3,3.5,7.9,7.9,7.9c1,0,1.9-0.2,2.8-0.5
	C238.9,231,241,233.4,243.3,235.9z"/>
<path class="st0" d="M242.4,221.4c0,3.4-2.1,6.2-5.1,7.3c-0.9,0.3-1.8,0.5-2.8,0.5c-4.3,0-7.9-3.5-7.9-7.9c0-2.4,1-4.5,2.7-5.9
	c1.4-1.2,3.2-2,5.2-2C238.9,213.6,242.4,217.1,242.4,221.4z"/>
<circle class="st0" cx="234.3" cy="221.2" r="3.1"/>
<path class="st0" d="M234.3,213.4v-15.2c0-3.5,2.5-6.4,5.9-6.9"/>
<circle class="st0" cx="109.4" cy="112" r="4.3"/>
<circle class="st0" cx="109.4" cy="129.2" r="4.3"/>
<circle class="st0" cx="109.4" cy="146.5" r="4.3"/>
<circle class="st0" cx="142.7" cy="105.7" r="3.6"/>
<line class="st0" x1="142.7" y1="102" x2="142.7" y2="96.9"/>
<line class="st0" x1="139.1" y1="96.9" x2="146.4" y2="96.9"/>
<line class="st0" x1="198.4" y1="62.3" x2="198.4" y2="80.8"/>
<line class="st0" x1="206" y1="80.8" x2="190.9" y2="80.8"/>
<circle class="st0" cx="84.8" cy="155.4" r="5.1"/>
<circle class="st0" cx="84.8" cy="155.4" r="9.9"/>
<circle class="st0" cx="84.8" cy="192.7" r="5.1"/>
<line class="st0" x1="74.9" y1="155.4" x2="74.9" y2="192.7"/>
<line class="st0" x1="94.7" y1="155.4" x2="94.7" y2="192.7"/>
<path class="st0" d="M75.7,87.7l17-10.9c1.1-0.7,1.8-2,1.6-3.3c-0.3-2.1-2.4-2.9-4-2l-0.9,0.6L86,74.3c-1.5,0.9-3.5,0.4-4.3-1.2
	c-0.8-1.5-0.2-3.4,1.2-4.3l12.4-7.9c2.8-1.8,3.8-5.4,2.1-8.3c-1.7-2.9-5.5-3.8-8.4-2l-4.8,3"/>
<path class="st0" d="M60.5,80.2V90c0,5.2-4.3,9.5-9.5,9.5l0,0c-5.2,0-9.5-4.2-9.5-9.5v-9.8c2.4,2.5,5.8,4,9.5,4
	C54.7,84.1,58.1,82.6,60.5,80.2z"/>
<circle class="st0" cx="72.3" cy="89.4" r="4"/>
<path class="st1" d="M110,33.7V17.4c0-9,7.3-16.4,16.4-16.4l0,0c9,0,16.4,7.3,16.4,16.4v13.7"/>
<path class="st0" d="M110.1,33.7L110.1,33.7c1.8,0,3.3,1.5,3.3,3.3v2.2h-6.7V37C106.7,35.2,108.2,33.7,110.1,33.7z"/>
<path class="st0" d="M105.2,56.5v-13c-1.1-0.1-2-1-2-2.1c0-1.2,1-2.2,2.2-2.2h8.8c1.2,0,2.2,1,2.2,2.2c0,1.1-0.9,2-2,2.1v13
	l3.4,15.8h-16.1L105.2,56.5z"/>
<path class="st0" d="M116.5,98.9c-0.2,0-0.4,0-0.7,0h-12.1c-0.2,0-0.4,0-0.7,0c-3.8-0.4-6.3-4.2-5.5-7.9l4.2-18.7h16.1l4.1,18.7
	C122.8,94.7,120.3,98.5,116.5,98.9z"/>
<path class="st0" d="M227.9,150.4h21.2c6,0,11.1,3.4,13.2,8.3"/>
<path class="st0" d="M203.7,87.3H193c-6.9,0-12.5-5.6-12.5-12.5v-0.5h35.8v0.5C216.2,81.7,210.6,87.3,203.7,87.3z"/>
<path class="st0" d="M216.2,70.9v3.3h-35.8v-3.3c0-2.6,2.1-4.7,4.7-4.7h2.7c2.1,0,3.8-1.5,4.2-3.4h12.5c0.1,0,0.2,0,0.3,0
	c0.4,2,2.1,3.4,4.2,3.4h2.5C214.1,66.3,216.2,68.4,216.2,70.9z"/>
<path class="st0" d="M207.3,58.2v2.3c0,1.2-0.9,2.2-2.1,2.4c-0.1,0-0.2,0-0.3,0H192c-1.3,0-2.4-1.1-2.4-2.4v-2.3
	c0-1.3,1.1-2.4,2.4-2.4h12.9C206.2,55.8,207.3,56.9,207.3,58.2z"/>
<path class="st0" d="M151.1,84.3c-0.2,0-0.5,0-0.7,0h-15.1c-0.2,0-0.5,0-0.7,0c-5.1-0.5-8.1-6.1-6-10.8l6.2-13.7h16l6.2,13.7
	C159.2,78.2,156.2,83.8,151.1,84.3z"/>
<circle class="st0" cx="170.2" cy="40.6" r="4"/>
<path class="st0" d="M166.2,40.6V29.8c0-5.5-4.5-10-10-10h-13.4h19.8c6.4,0,11.5,5.2,11.5,11.5v9.1"/>
<circle class="st0" cx="200.9" cy="126.6" r="3.4"/>
<path class="st0" d="M191.4,108.8h3c5.5,0,9.9,4.5,9.9,9.9v7.9"/>
<path class="st0" d="M191.4,109.2c3.5,1.1,6.1,4.3,6.1,8.2v9.2"/>
<circle class="st0" cx="187.5" cy="114" r="4"/>
<path class="st0" d="M191.4,114v-10.7c0-5.5,4.5-10,10-10h21.9H195c-6.4,0-11.5,5.2-11.5,11.5v9.1"/>
<path class="st0" d="M233.3,100.8c0,0.8-0.3,1.5-0.9,2.1c-0.5,0.5-1.3,0.9-2.1,0.9h-23.1c-1.6,0-3-1.3-3-2.9c0-0.8,0.3-1.5,0.9-2.1
	c0.5-0.5,1.3-0.9,2.1-0.9h23.1C232,97.9,233.3,99.2,233.3,100.8z"/>
<path class="st0" d="M156.8,131.9h-28c-1.4,0-2.5-1.1-2.5-2.5l0,0c0-1.4,1.1-2.5,2.5-2.5h28c1.4,0,2.5,1.1,2.5,2.5l0,0
	C159.3,130.7,158.2,131.9,156.8,131.9z"/>
<path class="st0" d="M135.6,120.6H150c3.3,0,6.1,2.7,6.1,6.1l0,0c0,0.1-0.1,0.2-0.2,0.2h-26.2c-0.1,0-0.2-0.1-0.2-0.2l0,0
	C129.6,123.3,132.3,120.6,135.6,120.6z"/>
<path class="st0" d="M151.6,89.9v14.3c0,3.6-2.2,6.8-5.3,8.2c-1.1,0.5-2.3,0.8-3.6,0.8s-2.5-0.3-3.6-0.8c-3.1-1.4-5.3-4.5-5.3-8.2
	V89.9H151.6z"/>
<path class="st0" d="M117.3,200.9H99.9c-1.4,0-2.5-1.1-2.5-2.5c0-0.7,0.3-1.3,0.7-1.8c0.5-0.4,1.1-0.7,1.8-0.7h19.9"/>
<path class="st0" d="M135.4,200.9h8.4c0.7,0,1.3-0.3,1.8-0.7c0.4-0.4,0.7-1.1,0.7-1.8c0-1.4-1.1-2.5-2.5-2.5h-11"/>
<path class="st0" d="M119.7,195.9V136c0-2.3,1.9-4.2,4.2-4.2h5.1"/>
<path class="st0" d="M178.9,205.3c0,7.8-6.7,14-14.5,14h-7.7v10c0,7.5-6.1,13.6-13.6,13.6h-9.5c0.3-1,0.4-2.1,0.4-3.2
	c0-0.9-0.1-1.9-0.3-2.8h9.1c4.3,0,7.8-3.5,7.8-7.8v-23.4c0-7.8,6.2-14.4,14-14.5C172.6,191.1,179,197.5,178.9,205.3z"/>
<circle class="st0" cx="164.9" cy="205.2" r="4"/>
<circle class="st0" cx="164.9" cy="205.2" r="9.2"/>
<path class="st0" d="M134.2,239.6c0,1.1-0.2,2.2-0.4,3.2c-1.4,5.4-6.4,9.4-12.2,9.4c-7,0-12.7-5.7-12.7-12.6s5.7-12.7,12.7-12.7
	c6,0,11.1,4.2,12.3,9.9C134.1,237.8,134.2,238.7,134.2,239.6z"/>
<circle class="st0" cx="121.5" cy="239.6" r="8.2"/>
<circle class="st0" cx="121.5" cy="239.6" r="3.1"/>
<line class="st0" x1="256.8" y1="190.1" x2="269.8" y2="190.1"/>
<line class="st0" x1="256.8" y1="210.8" x2="269.8" y2="210.8"/>
<line class="st0" x1="259.4" y1="193.9" x2="267.2" y2="193.9"/>
<line class="st0" x1="259.4" y1="198.3" x2="267.2" y2="198.3"/>
<line class="st0" x1="259.4" y1="202.3" x2="267.2" y2="202.3"/>
<line class="st0" x1="259.4" y1="206.9" x2="267.2" y2="206.9"/>
<line class="st0" x1="241.4" y1="66.1" x2="254.7" y2="66.1"/>
<line class="st0" x1="241.4" y1="92.9" x2="254.7" y2="92.9"/>
<line class="st0" x1="241.4" y1="119.9" x2="254.7" y2="119.9"/>
<line class="st0" x1="244.2" y1="71.8" x2="251.9" y2="71.8"/>
<line class="st0" x1="244.2" y1="76.8" x2="251.9" y2="76.8"/>
<line class="st0" x1="244.2" y1="82.4" x2="251.9" y2="82.4"/>
<line class="st0" x1="244.2" y1="87.9" x2="251.9" y2="87.9"/>
<line class="st0" x1="244.2" y1="98.5" x2="251.9" y2="98.5"/>
<line class="st0" x1="244.2" y1="103.9" x2="251.9" y2="103.9"/>
<line class="st0" x1="244.2" y1="109" x2="251.9" y2="109"/>
<line class="st0" x1="244.2" y1="114.3" x2="251.9" y2="114.3"/>
<path class="st0" d="M119.7,140.7h21.7c1.6,0,2.9,1.3,2.9,2.9l0,0c0,1.6-1.3,2.9-2.9,2.9h-15.3c-1.5,0-2.7,1.2-2.7,2.7l0,0
	c0,1.5,1.2,2.7,2.7,2.7h15.7c1.4,0,2.5,1.1,2.5,2.5l0,0c0,1.4-1.1,2.5-2.5,2.5h-15.6c-1.6,0-3,1.3-3,3l0,0c0,1.6,1.3,3,3,3h15.4
	c1.4,0,2.6,1.2,2.6,2.6l0,0c0,1.4-1.2,2.6-2.6,2.6h-15.5c-1.6,0-2.9,1.3-2.9,2.9l0,0c0,1.6,1.3,2.9,2.9,2.9h15.6
	c1.4,0,2.5,1.1,2.5,2.5l0,0c0,1.4-1.1,2.5-2.5,2.5h-15.4c-1.7,0-3,1.3-3,3l0,0c0,1.7,1.3,3,3,3h15.4c1.4,0,2.5,1.1,2.5,2.5l0,0
	c0,1.4-1.1,2.5-2.5,2.5h-22.1"/>
<path class="st0" d="M228.6,103.7v23.1c0,5.4-4.4,9.8-9.8,9.8l0,0c-5.4,0-9.8-4.4-9.8-9.8v-23.1C209,103.7,228.6,103.7,228.6,103.7z
	"/>
<path class="st0" d="M218.8,132.1L218.8,132.1c-3.1,0-5.6-2.5-5.6-5.6v-6c0-3.1,2.5-5.6,5.6-5.6l0,0c3.1,0,5.6,2.5,5.6,5.6v6
	C224.4,129.6,221.9,132.1,218.8,132.1z"/>
<line class="st0" x1="218.8" y1="114.9" x2="218.8" y2="103.7"/>
<path class="st1" d="M61.2,129.2L61.2,129.2c0,1.6-1.3,2.9-2.9,2.9H44.2c-1.6,0-2.9-1.3-2.9-2.9l0,0c0-1.6,1.3-2.9,2.9-2.9h14.1
	C59.9,126.4,61.2,127.7,61.2,129.2z"/>
<line class="st0" x1="51" y1="121.6" x2="51" y2="115.9"/>
<path class="st0" d="M55.2,107.6h-8.4c-1.3,0-2.3-1-2.3-2.3l0,0c0-1.3,1-2.3,2.3-2.3h8.4c1.3,0,2.3,1,2.3,2.3l0,0
	C57.5,106.6,56.4,107.6,55.2,107.6z"/>
<path class="st0" d="M55.2,115.9h-8.4c-1.3,0-2.3-1-2.3-2.3l0,0c0-1.3,1-2.3,2.3-2.3h8.4c1.3,0,2.3,1,2.3,2.3l0,0
	C57.5,114.8,56.4,115.9,55.2,115.9z"/>
<polyline class="st1" points="30.3,141.1 25.9,145.5 21.5,141.1 "/>
<circle class="st1" cx="31.9" cy="112.7" r="6"/>
<line class="st1" x1="25.9" y1="112.7" x2="25.9" y2="144.9"/>
<line class="st1" x1="37.9" y1="112.7" x2="42" y2="127.4"/>
<path class="st0" d="M244.5,284.5H132.2c-4.3,0-7.8-3.5-7.8-7.8l0,0c0-4.3,3.5-7.8,7.8-7.8h112.3c4.3,0,7.8,3.5,7.8,7.8l0,0
	C252.3,281,248.8,284.5,244.5,284.5z"/>
<circle class="st0" cx="182.5" cy="276.7" r="3.9"/>
<circle class="st0" cx="194.8" cy="276.7" r="3.9"/>
<circle class="st0" cx="207.2" cy="276.7" r="3.9"/>
<circle class="st0" cx="219.6" cy="276.7" r="3.9"/>
<circle class="st0" cx="231.9" cy="276.7" r="3.9"/>
<circle class="st0" cx="244.2" cy="276.7" r="3.9"/>
<circle class="st0" cx="133.3" cy="276.7" r="3.9"/>
<circle class="st0" cx="145.6" cy="276.7" r="3.9"/>
<circle class="st0" cx="157.9" cy="276.7" r="3.9"/>
<circle class="st0" cx="170.3" cy="276.7" r="3.9"/>
<circle class="st0" cx="29.6" cy="241.7" r="4.7"/>
<polyline class="st1" points="50.5,232.9 48.3,235 46.2,232.9 "/>
<polyline class="st1" points="46.2,237.2 48.3,235 50.5,237.2 "/>
<polyline class="st1" points="58.5,232.9 56.3,235 54.2,232.9 "/>
<polyline class="st1" points="54.2,237.2 56.3,235 58.5,237.2 "/>
<polyline class="st1" points="66.5,232.9 64.3,235 62.2,232.9 "/>
<polyline class="st1" points="62.2,237.2 64.3,235 66.5,237.2 "/>
<polyline class="st1" points="54.3,67.3 51,70.7 47.6,67.3 "/>
<polyline class="st1" points="47.6,74.1 51,70.7 54.3,74.1 "/>
<polyline class="st1" points="221,160.3 218.7,162.6 216.3,160.3 "/>
<polyline class="st1" points="216.3,165 218.7,162.6 221,165 "/>
<polyline class="st1" points="241.1,246.9 238.8,249.2 236.5,246.9 "/>
<polyline class="st1" points="236.5,251.5 238.8,249.2 241.1,251.5 "/>
<circle class="st1" cx="238.6" cy="249" r="7.6"/>
<path class="st1" d="M139.3,258.9L139.3,258.9c-1.6,0-3,1.3-3,3v7h5.9v-7C142.2,260.2,140.9,258.9,139.3,258.9z"/>
<path class="st1" d="M150.3,258.9L150.3,258.9c-1.6,0-3,1.3-3,3v7h5.9v-7C153.3,260.2,151.9,258.9,150.3,258.9z"/>
<path class="st1" d="M121.6,252.3v3.9c0,4.8,3.9,8.7,8.7,8.7h6"/>
<line class="st1" x1="84.5" y1="223" x2="84.5" y2="230.9"/>
<line class="st1" x1="81.1" y1="225" x2="88" y2="228.9"/>
<line class="st1" x1="88" y1="225" x2="81.1" y2="228.9"/>
<line class="st1" x1="100.8" y1="146.5" x2="100.8" y2="195.9"/>
<line class="st1" x1="126.4" y1="29.4" x2="126.4" y2="26"/>
<line class="st1" x1="126.4" y1="10.3" x2="126.4" y2="6.9"/>
<line class="st1" x1="132" y1="27.9" x2="130.3" y2="25"/>
<line class="st1" x1="122.5" y1="11.4" x2="120.8" y2="8.4"/>
<line class="st1" x1="122.5" y1="25" x2="120.8" y2="27.9"/>
<line class="st1" x1="132" y1="8.4" x2="130.3" y2="11.4"/>
<line class="st1" x1="136.1" y1="12.5" x2="133.2" y2="14.2"/>
<line class="st1" x1="119.6" y1="22.1" x2="116.7" y2="23.8"/>
<line class="st1" x1="137.6" y1="18.2" x2="134.3" y2="18.2"/>
<line class="st1" x1="118.5" y1="18.2" x2="115.2" y2="18.2"/>
<line class="st1" x1="136.1" y1="23.8" x2="133.2" y2="22.1"/>
<line class="st1" x1="119.6" y1="14.2" x2="116.7" y2="12.5"/>
<path class="st1" d="M134.3,18.2L134.3,18.2c0,1.4-0.4,2.8-1,3.9c-0.7,1.2-1.7,2.2-2.9,2.9c-1.2,0.7-2.5,1.1-3.9,1.1
	s-2.8-0.4-3.9-1.1c-1.2-0.7-2.2-1.7-2.9-2.9c-0.7-1.1-1.1-2.5-1.1-3.9l0,0c0-1.4,0.4-2.8,1.1-3.9c0.7-1.2,1.7-2.2,2.9-2.9
	c1.2-0.7,2.5-1,3.9-1s2.8,0.4,3.9,1c1.2,0.7,2.2,1.7,2.9,2.9C133.9,15.4,134.3,16.7,134.3,18.2z"/>
<circle class="st2" cx="126.4" cy="18.4" r="1.2"/>
<path class="st0" d="M35.1,193.5c-0.2,0-0.6,0-0.8,0h-12c-0.2,0-0.6,0-0.8,0c-3.2-0.3-5-3.8-3.7-6.7l6.6-15v-10c-1.1,0-2-0.9-2-2
	c0-0.5,0.2-1,0.6-1.4s0.9-0.6,1.4-0.6h7.9c1.1,0,2,0.9,2,2c0,0.5-0.2,1-0.6,1.4c-0.4,0.4-0.9,0.6-1.4,0.6v10l6.6,15
	C40.1,189.7,38.3,193.2,35.1,193.5z"/>
<path class="st0" d="M37.8,200.9c1.4,0,2.5,1.1,2.5,2.5l0,0c0,1.4-1.1,2.5-2.5,2.5h-18c-1.4,0-2.5-1.1-2.5-2.5l0,0
	c0-1.4,1.1-2.5,2.5-2.5"/>
<polyline class="st1" points="40.6,198.2 36.2,202.6 32.5,198.9 32.5,198.9 28.9,202.6 25.1,198.9 25.1,198.9 21.4,202.6 17,198.2 
	"/>
<path class="st0" d="M28.4,223.4L28.4,223.4c-3.9,0-7-3.1-7-6.9v-10.5h14v10.5C35.4,220.3,32.3,223.4,28.4,223.4z"/>
<circle class="st0" cx="28.4" cy="216.5" r="2.9"/>
<path class="st0" d="M62.3,227.5h-23l0,0c0-3.1,2.5-5.6,5.6-5.6h11.8C59.8,221.9,62.3,224.4,62.3,227.5L62.3,227.5z"/>
<path class="st0" d="M91.1,256.6c0,3.5-2.9,6.4-6.4,6.4s-6.4-2.9-6.4-6.4c0-0.3,0-0.6,0.1-0.9c0.4-3.1,3.1-5.5,6.4-5.5
	c3.2,0,5.9,2.3,6.3,5.4C91.1,255.9,91.1,256.2,91.1,256.6z"/>
<circle class="st0" cx="84.7" cy="256.6" r="2.8"/>
<path class="st0" d="M78.3,234.9c0,0,3.7,3.8,1.4,17.7"/>
<path class="st0" d="M91.4,234.9c0,0-3.7,3.8-1.4,17.7"/>
<path class="st0" d="M35,249.1c0,0,18.2-13.9,45.4-3.4"/>
<path class="st0" d="M18.5,263h82.8c4.5,0,8.1-3.6,8.1-8.1l0,0c0-4-3-7.4-6.8-8"/>
<path class="st0" d="M102.2,262.9v5.1c0,4.3,3.5,7.8,7.8,7.8h14.4"/>
<path class="st0" d="M124.4,309.9v12.8c0,0.6-0.5,1-1,1h-6c-0.6,0-1-0.5-1-1v-12.8c0-0.6,0.5-1,1-1c0,0,1.9-1,0.5-2.6
	c-0.3-0.3-0.5-0.7-0.4-1.2l0.8-8.4c0.1-1,1-1.8,2-1.8s1.9,0.8,2,1.8l0.9,8.4c0,0.4-0.1,0.9-0.4,1.2c-1.2,1.5,0.5,2.6,0.5,2.6
	C123.9,308.9,124.4,309.3,124.4,309.9z"/>
<path class="st0" d="M137.4,309.9v12.8c0,0.6-0.5,1-1,1h-6c-0.6,0-1-0.5-1-1v-12.8c0-0.6,0.5-1,1-1c0,0,1.9-1,0.5-2.6
	c-0.3-0.3-0.5-0.7-0.4-1.2l0.8-8.4c0.1-1,1-1.8,2-1.8s1.9,0.8,2,1.8l0.9,8.4c0,0.4-0.1,0.9-0.4,1.2c-1.2,1.5,0.5,2.6,0.5,2.6
	C136.9,308.9,137.4,309.3,137.4,309.9z"/>
<path class="st0" d="M150.5,309.9v12.8c0,0.6-0.5,1-1,1h-6c-0.6,0-1-0.5-1-1v-12.8c0-0.6,0.5-1,1-1c0,0,1.9-1,0.5-2.6
	c-0.3-0.3-0.5-0.7-0.4-1.2l0.8-8.4c0.1-1,1-1.8,2-1.8s1.9,0.8,2,1.8l0.9,8.4c0,0.4-0.1,0.9-0.4,1.2c-1.2,1.5,0.5,2.6,0.5,2.6
	C150,308.9,150.5,309.3,150.5,309.9z"/>
<line class="st0" x1="231" y1="249" x2="221.5" y2="249"/>
<path class="st0" d="M252.4,248.8c0.9,0.3,1.9,0.5,2.9,0.5c4.6,0,8.3-3.7,8.3-8.3c0-1.1-0.2-2.1-0.6-3.1"/>
<path class="st0" d="M179.7,218.2h9.1c2.4,0,4.4,2,4.4,4.4l0,0c0,2.4-2,4.4-4.4,4.4h-9.1c-2.4,0-4.4-2-4.4-4.4l0,0
	C175.3,220.1,177.2,218.2,179.7,218.2z"/>
<path class="st0" d="M198.6,219.3h7.4c1.5,0,2.7-1.2,2.7-2.7v-7.4c0-1.5-1.2-2.7-2.7-2.7h-7.4c-1.5,0-2.7,1.2-2.7,2.7v7.4
	C195.9,218.1,197.1,219.3,198.6,219.3z"/>
<path class="st0" d="M213.3,235v-44.2c0-2.2-1.8-4-4-4l0,0c-2.2,0-4,1.8-4,4v15.7"/>
<line class="st0" x1="201.8" y1="219.3" x2="201.8" y2="235"/>
<path class="st0" d="M182.2,218.2v-16.5c0-5.4,4.4-9.8,9.8-9.8l0,0c5.4,0,9.8,4.4,9.8,9.8v4.8"/>
<circle class="st2" cx="209.3" cy="191.2" r="1.7"/>
<path class="st0" d="M27.7,157.9c0.8-5,4.6-9.1,9.5-10.2"/>
<circle class="st0" cx="9.7" cy="263" r="8.7"/>
<circle class="st0" cx="9.7" cy="263" r="4.5"/>
<circle class="st0" cx="19.2" cy="75.6" r="4.9"/>
<circle class="st0" cx="21.3" cy="58.7" r="4.9"/>
<circle class="st0" cx="31" cy="45.8" r="4.9"/>
<circle class="st0" cx="46.1" cy="39.5" r="4.9"/>
<circle class="st0" cx="63" cy="41.4" r="4.9"/>
<circle class="st0" cx="25.5" cy="90.2" r="4.9"/>
<line class="st0" x1="33.1" y1="70.8" x2="19.2" y2="70.8"/>
<line class="st0" x1="51" y1="39.5" x2="51" y2="52.9"/>
<line class="st0" x1="35.4" y1="43.7" x2="42.1" y2="55.2"/>
<line class="st0" x1="67.2" y1="43.7" x2="59.9" y2="55.3"/>
<line class="st0" x1="23.8" y1="54.6" x2="35.3" y2="62.1"/>
<line class="st0" x1="23.1" y1="86" x2="35.4" y2="79.6"/>
<line class="st0" x1="132.8" y1="195.9" x2="119.8" y2="195.9"/>
<path class="st0" d="M135.4,200.9c-1,4.1-4.7,7.2-9.1,7.2s-8.1-3-9.1-7.2H135.4z"/>
<line class="st0" x1="126.3" y1="208" x2="126.3" y2="216.3"/>
<circle class="st0" cx="126.3" cy="219.6" r="3.4"/>
<circle class="st0" cx="136.7" cy="217" r="3.4"/>
<circle class="st0" cx="143.9" cy="209.7" r="3.4"/>
<circle class="st0" cx="116.4" cy="217" r="3.4"/>
<circle class="st0" cx="108.8" cy="209.7" r="3.4"/>
<line class="st0" x1="111.5" y1="207.7" x2="118.5" y2="203.8"/>
<line class="st0" x1="122.2" y1="207.1" x2="117.7" y2="213.9"/>
<line class="st0" x1="130.6" y1="207" x2="135" y2="214.2"/>
<line class="st0" x1="134.2" y1="203.7" x2="140.9" y2="208"/>
<path class="st0" d="M25.5,274.7h12.9c1.2,0,2.1,0.9,2.1,2.1v4.9c0,1.2-0.9,2.1-2.1,2.1H25.5c-1.2,0-2.1-0.9-2.1-2.1v-4.9
	C23.4,275.7,24.4,274.7,25.5,274.7z"/>
<path class="st0" d="M43.6,292.3V326c0,1.6-1.3,2.9-2.9,2.9H23.2c-1.6,0-2.9-1.3-2.9-2.9v-33.7c0-2.1,1.7-3.8,3.8-3.8
	c0,0,1.2,0.1,1.2-1.2v-3.4h13.3v3.4c0,0.6,0.5,1.2,1.2,1.2l0,0C41.9,288.4,43.6,290.1,43.6,292.3z"/>
<path class="st0" d="M26.4,300.4h11.2c0.6,0,1,0.5,1,1v20c0,0.6-0.5,1-1,1H26.4c-0.6,0-1-0.5-1-1v-20
	C25.4,300.8,25.9,300.4,26.4,300.4z"/>
<path class="st0" d="M54,274.7h12.9c1.2,0,2.1,0.9,2.1,2.1v4.9c0,1.2-0.9,2.1-2.1,2.1H54c-1.2,0-2.1-0.9-2.1-2.1v-4.9
	C51.9,275.7,52.8,274.7,54,274.7z"/>
<path class="st0" d="M72,292.3V326c0,1.6-1.3,2.9-2.9,2.9H51.6c-1.6,0-2.9-1.3-2.9-2.9v-33.7c0-2.1,1.7-3.8,3.8-3.8
	c0,0,1.2,0.1,1.2-1.2v-3.4H67v3.4c0,0.6,0.5,1.2,1.2,1.2l0,0C70.3,288.4,72,290.1,72,292.3z"/>
<path class="st0" d="M54.9,300.4h11.2c0.6,0,1,0.5,1,1v20c0,0.6-0.5,1-1,1H54.9c-0.6,0-1-0.5-1-1v-20
	C53.9,300.8,54.3,300.4,54.9,300.4z"/>
<path class="st0" d="M82.8,274.7h12.9c1.2,0,2.1,0.9,2.1,2.1v4.9c0,1.2-0.9,2.1-2.1,2.1H82.8c-1.2,0-2.1-0.9-2.1-2.1v-4.9
	C80.7,275.7,81.6,274.7,82.8,274.7z"/>
<path class="st0" d="M100.8,292.3V326c0,1.6-1.3,2.9-2.9,2.9H80.4c-1.6,0-2.9-1.3-2.9-2.9v-33.7c0-2.1,1.7-3.8,3.8-3.8
	c0,0,1.2,0.1,1.2-1.2v-3.4h13.3v3.4c0,0.6,0.5,1.2,1.2,1.2l0,0C99.1,288.4,100.8,290.1,100.8,292.3z"/>
<path class="st0" d="M83.7,300.4h11.2c0.6,0,1,0.5,1,1v20c0,0.6-0.5,1-1,1H83.7c-0.6,0-1-0.5-1-1v-20
	C82.7,300.8,83.1,300.4,83.7,300.4z"/>
<line class="st0" x1="84.8" y1="160.5" x2="84.8" y2="182.8"/>
<polyline class="st1" points="80.8,173.2 84.8,169.2 88.8,173.2 "/>
<polyline class="st1" points="80.8,178.7 84.8,174.7 88.8,178.7 "/>
<circle class="st2" cx="217" cy="142.6" r="1.8"/>
<circle class="st2" cx="209.2" cy="144.4" r="1.8"/>
<circle class="st2" cx="202.3" cy="149" r="1.8"/>
<circle class="st2" cx="198.3" cy="156.4" r="1.8"/>
<circle class="st2" cx="197.3" cy="164.4" r="1.8"/>
<circle class="st2" cx="199.8" cy="172.4" r="1.8"/>
<circle class="st2" cx="205.3" cy="178.5" r="1.8"/>
<circle class="st2" cx="213" cy="181.8" r="1.8"/>
<path class="st1" d="M276.4,271.3l-7.5,13c-1.2,2.1-3.8,2.8-5.9,1.6l0,0c-2.1-1.2-2.8-3.8-1.6-5.9l7.5-13c1.2-2.1,3.8-2.8,5.9-1.6
	l0,0C276.9,266.6,277.6,269.3,276.4,271.3z"/>
<path class="st1" d="M155.3,328.8h-43c-2.1,0-3.7-1.7-3.7-3.7v-30.9c0-2.1,1.7-3.7,3.7-3.7h43c2.1,0,3.7,1.7,3.7,3.7v30.9
	C159.1,327.2,157.4,328.8,155.3,328.8z"/>
<path class="st3" d="M193.8,307.3c-4.4,0-18.1,1.1-26.2,12.5v-30.2c6.4,12.7,21.5,12.9,26.2,12.6c-0.3,0.8-0.4,1.6-0.4,2.5
	C193.3,305.7,193.5,306.5,193.8,307.3z"/>
<path class="st1" d="M208.6,304.7c0,0.9-0.2,1.8-0.5,2.6c-1.1,2.9-3.9,5-7.2,5s-6.1-2.1-7.2-5c-0.3-0.8-0.5-1.7-0.5-2.6
	s0.2-1.7,0.4-2.5c1-3,3.9-5.1,7.2-5.1s6.1,2.1,7.2,5C208.4,302.9,208.6,303.8,208.6,304.7z"/>
<path class="st1" d="M220.5,302.1v5.2h-12.4c0.3-0.8,0.5-1.7,0.5-2.6s-0.2-1.8-0.5-2.6H220.5z"/>
<circle class="st1" cx="200.9" cy="304.7" r="3.5"/>
<path class="st1" d="M171.5,309.2c2.1,0,3.8-2,3.8-4.5s-1.7-4.5-3.8-4.5V309.2z"/>
<line class="st1" x1="193.3" y1="304.7" x2="175.2" y2="304.7"/>
<path class="st1" d="M225.3,321.9L225.3,321.9c-2.7,0-4.9-2.2-4.9-4.9v-23.3c0-2.7,2.2-4.9,4.9-4.9l0,0c2.7,0,4.9,2.2,4.9,4.9V317
	C230.2,319.7,228,321.9,225.3,321.9z"/>
<path class="st1" d="M236,309.6h-5.8v-8.8h5.8c2.4,0,4.4,2,4.4,4.4l0,0C240.4,307.6,238.5,309.6,236,309.6z"/>
<path class="st1" d="M252.3,316.9h-22.1v-24h22.1c6.6,0,12,5.4,12,12l0,0C264.3,311.6,258.9,316.9,252.3,316.9z"/>
<circle class="st1" cx="252" cy="304.9" r="7.2"/>
<circle class="st1" cx="252" cy="304.9" r="2.2"/>
<line class="st1" x1="262.9" y1="286" x2="253" y2="302.9"/>
<line class="st0" x1="19.1" y1="183.7" x2="37.6" y2="183.7"/>
<circle class="st2" cx="146.5" cy="73.4" r="1.5"/>
<circle class="st2" cx="143.3" cy="65.5" r="1.5"/>
<circle class="st2" cx="137" cy="69.6" r="1.5"/>
<circle class="st2" cx="134.8" cy="75.4" r="1.5"/>
<circle class="st2" cx="140.7" cy="73.4" r="1.5"/>
<circle class="st2" cx="143.6" cy="78.9" r="1.5"/>
<circle class="st2" cx="152.4" cy="75.7" r="1.5"/>
<circle class="st2" cx="150.1" cy="69.6" r="1.5"/>
<circle class="st0" cx="114.8" cy="88.5" r="2.7"/>
<circle class="st0" cx="109.1" cy="78.9" r="2.7"/>
<circle class="st0" cx="105.3" cy="91.2" r="2.7"/>
<path class="st0" d="M109.9,159v7.7c-0.3,0.1-0.6,0.1-0.9,0.1c-2.2,0-4-1.8-4-4s1.8-4,4-4C109.4,158.9,109.7,158.9,109.9,159z"/>
<path class="st0" d="M109.9,169.4v7.7c-0.3,0.1-0.6,0.1-0.9,0.1c-2.2,0-4-1.8-4-4s1.8-4,4-4C109.4,169.3,109.7,169.3,109.9,169.4z"
	/>
<path class="st0" d="M109.9,180v7.7c-0.3,0.1-0.6,0.1-0.9,0.1c-2.2,0-4-1.8-4-4s1.8-4,4-4C109.4,179.9,109.7,179.9,109.9,180z"/>
<line class="st1" x1="224.3" y1="328.8" x2="163.4" y2="328.8"/>
<path class="st1" d="M173.4,321.9L173.4,321.9c1.6,0,3,1.3,3,3v4h-5.9v-4C170.4,323.2,171.7,321.9,173.4,321.9z"/>
<path class="st1" d="M183.2,321.9L183.2,321.9c1.6,0,3,1.3,3,3v4h-5.9v-4C180.3,323.2,181.6,321.9,183.2,321.9z"/>
<path class="st1" d="M193.8,321.9L193.8,321.9c1.6,0,3,1.3,3,3v4h-5.9v-4C190.8,323.2,192.1,321.9,193.8,321.9z"/>
<path class="st1" d="M203.9,321.9L203.9,321.9c1.6,0,3,1.3,3,3v4H201v-4C200.9,323.2,202.3,321.9,203.9,321.9z"/>
<path class="st1" d="M214.3,321.9L214.3,321.9c1.6,0,3,1.3,3,3v4h-5.9v-4C211.3,323.2,212.7,321.9,214.3,321.9z"/>
<polyline class="st3" points="82.1,213.3 84.8,202.6 87.6,213.3 "/>
<path class="st0" d="M239.6,316.9v7.8c0,5.5-4.5,10-10,10H8.4"/>
<path class="st0" d="M244.3,316.9v7.8c0,5.5,4.5,10,10,10h13"/>
<circle class="st0" cx="267.3" cy="330.8" r="4"/>
<circle class="st0" cx="8.4" cy="330.8" r="4"/>
<line class="st1" x1="9.7" y1="275.8" x2="9.7" y2="284.5"/>
<line class="st1" x1="5.2" y1="274.7" x2="1" y2="282"/>
<line class="st1" x1="13.5" y1="274.9" x2="17.7" y2="282.4"/>
<line class="st1" x1="259.3" y1="317.9" x2="264" y2="324.8"/>
<line class="st1" x1="267.8" y1="315.8" x2="267.8" y2="323.7"/>
<line class="st1" x1="275.6" y1="317.5" x2="271.3" y2="324.4"/>
<path class="st0" d="M81.6,62.3l-12.7,8.9c-0.2,6.2-3.5,11.6-8.4,14.7v-5.8c-2.4,2.5-5.8,4-9.5,4s-7.1-1.5-9.5-4V86
	c-5.1-3.2-8.4-8.8-8.4-15.2c0-9.9,8-17.9,17.9-17.9c4.5,0,8.5,1.6,11.7,4.3L73,50c3.4-2.4,8.1-1.6,10.5,1.8
	C85.8,55.3,85,60,81.6,62.3z"/>
<path class="st0" d="M64.3,70.8c0,3.7-1.5,7-3.8,9.4c-2.4,2.5-5.8,4-9.5,4s-7.1-1.5-9.5-4c-2.4-2.4-3.8-5.7-3.8-9.4
	c0-7.4,6-13.3,13.3-13.3C58.3,57.5,64.3,63.4,64.3,70.8z"/>
<path class="st0" d="M248.1,143.3L248.1,143.3c-5.9,0-10.8-4.8-10.8-10.8V51.6c0-5.9,4.8-10.7,10.7-10.7l0,0
	c5.9,0,10.7,4.8,10.7,10.7v80.9C258.8,138.5,254,143.3,248.1,143.3z"/>
<polygon class="st0" points="146.2,31.8 145.8,35.8 145.3,39.9 140.3,39.9 139.8,35.8 139.3,31.8 "/>
<line class="st1" x1="126.3" y1="89.9" x2="159.8" y2="89.9"/>
<path class="st0" d="M109.4,137.9c-4.8,0-8.6,3.9-8.6,8.6c0,5.5,4.4,8.6,9.1,8.6v4.9v7.7v1.7v7.7v1.8v7.7v9.6"/>
<circle class="st0" cx="84.8" cy="192.7" r="9.9"/>
<path class="st0" d="M286.5,181.8v16.5c0,9.6-5.8,17.8-14.2,21.3V233h-18v-13.4c-8.3-3.5-14.2-11.7-14.2-21.3v-16.5
	c0-3.9,1-7.6,2.7-10.8c2.6-4.8,6.8-8.7,11.9-10.7c2.7-1.1,5.5-1.6,8.6-1.6C276.1,158.6,286.5,169,286.5,181.8z"/>
<path class="st0" d="M252.3,249c0,3.9-1.6,7.4-4.1,9.9s-6,4.1-9.9,4.1h-64.1c-7.7,0-14-6.3-14-14c0-3.9,1.6-7.4,4.1-9.9
	s6-4.1,9.9-4.1h5.3l-0.6,6.2c0,0.4,0.1,0.8,0.4,1.2c1.4,1.6-0.5,2.6-0.5,2.6c-0.6,0-1,0.5-1,1v12.8c0,0.6,0.5,1,1,1h6
	c0.6,0,1-0.5,1-1V246c0-0.6-0.5-1-1-1c0,0-1.7-1.1-0.5-2.6c0.3-0.3,0.5-0.8,0.4-1.2L184,235h8.5l-0.6,6.2c0,0.4,0.1,0.8,0.4,1.2
	c1.4,1.6-0.5,2.6-0.5,2.6c-0.6,0-1,0.5-1,1v12.8c0,0.6,0.5,1,1,1h6c0.6,0,1-0.5,1-1V246c0-0.6-0.5-1-1-1c0,0-1.7-1.1-0.5-2.6
	c0.3-0.3,0.5-0.8,0.4-1.2L197,235h8.6l-0.6,6.2c0,0.4,0.1,0.8,0.4,1.2c1.4,1.6-0.5,2.6-0.5,2.6c-0.6,0-1,0.5-1,1v12.8
	c0,0.6,0.5,1,1,1h6c0.6,0,1-0.5,1-1V246c0-0.6-0.5-1-1-1c0,0-1.7-1.1-0.5-2.6c0.3-0.3,0.5-0.8,0.4-1.2l-0.7-6.2h28.2
	c1.8,0,3.4,0.3,5,0.9C248.6,237.9,252.3,243,252.3,249z"/>
<path class="st0" d="M185.8,246v12.8c0,0.6-0.5,1-1,1h-6c-0.6,0-1-0.5-1-1V246c0-0.6,0.5-1,1-1c0,0,1.9-1,0.5-2.6
	c-0.3-0.3-0.5-0.7-0.4-1.2l0.6-6.2l0.2-2.2c0.1-1,1-1.8,2-1.8s1.9,0.8,2,1.8l0.2,2.2l0.7,6.2c0,0.5-0.2,0.9-0.4,1.2
	c-1.2,1.5,0.5,2.6,0.5,2.6C185.3,245,185.8,245.5,185.8,246z"/>
<path class="st0" d="M198.9,246v12.8c0,0.6-0.5,1-1,1h-6c-0.6,0-1-0.5-1-1V246c0-0.6,0.5-1,1-1c0,0,1.9-1,0.5-2.6
	c-0.3-0.3-0.5-0.7-0.4-1.2l0.6-6.2l0.2-2.2c0.1-1,1-1.8,2-1.8s1.9,0.8,2,1.8l0.2,2.2l0.7,6.2c0,0.5-0.1,0.9-0.4,1.2
	c-1.2,1.5,0.5,2.6,0.5,2.6C198.4,245,198.9,245.5,198.9,246z"/>
<path class="st0" d="M211.9,246v12.8c0,0.6-0.5,1-1,1h-6c-0.6,0-1-0.5-1-1V246c0-0.6,0.5-1,1-1c0,0,1.9-1,0.5-2.6
	c-0.3-0.3-0.5-0.7-0.4-1.2l0.6-6.2l0.2-2.2c0.1-1,1-1.8,2-1.8s1.9,0.8,2,1.8l0.2,2.2l0.7,6.2c0,0.5-0.1,0.9-0.4,1.2
	c-1.2,1.5,0.5,2.6,0.5,2.6C211.5,245,211.9,245.5,211.9,246z"/>
<path class="st0" d="M254.4,238.2h17.8c1.4,0,2.6-1.2,2.6-2.6l0,0c0-1.4-1.2-2.6-2.6-2.6h-17.8c-1.4,0-2.6,1.2-2.6,2.6l0,0
	C251.9,237,253,238.2,254.4,238.2z"/>
</svg>
