<?xml version="1.0" encoding="utf-8"?>
<!-- Generator: Adobe Illustrator 20.0.0, SVG Export Plug-In . SVG Version: 6.00 Build 0)  -->
<svg version="1.1" id="Layer_1" xmlns="http://www.w3.org/2000/svg" xmlns:xlink="http://www.w3.org/1999/xlink" x="0px" y="0px"
	 viewBox="0 0 542.4 108.6" style="enable-background:new 0 0 542.4 108.6;" xml:space="preserve">
<style type="text/css">
	.st0{fill:none;stroke:#28638A;stroke-width:1.5;stroke-linecap:round;stroke-miterlimit:10;}
	.st1{fill:#28638A;stroke:#28638A;stroke-width:1.5;stroke-linecap:round;stroke-miterlimit:10;}
	.st2{fill:none;stroke:#28638A;stroke-width:1.5;stroke-miterlimit:10;}
	.st3{fill:none;stroke:#28638A;stroke-width:1.5;stroke-linecap:round;stroke-linejoin:round;stroke-miterlimit:10;}
	.st4{fill:#28638A;}
	.st5{fill:none;}
	.st6{fill:none;stroke:#28638A;stroke-width:1.5;stroke-linejoin:round;stroke-miterlimit:10;}
	.st7{fill:none;stroke:#28638A;stroke-miterlimit:10;}
</style>
<line class="st0" x1="19.2" y1="94.2" x2="19.2" y2="54.5"/>
<line class="st0" x1="19.2" y1="102.4" x2="19.2" y2="97.9"/>
<line class="st0" x1="19.2" y1="50.8" x2="19.2" y2="44.4"/>
<line class="st0" x1="103.6" y1="94.2" x2="103.6" y2="54.5"/>
<polyline class="st1" points="449.2,107.9 279.7,107.9 261.7,107.9 7.9,107.9 "/>
<line class="st0" x1="103.6" y1="102.4" x2="103.6" y2="97.9"/>
<line class="st0" x1="103.6" y1="50.8" x2="103.6" y2="44.4"/>
<rect x="28.4" y="45.1" class="st2" width="13.6" height="5.8"/>
<rect x="28.4" y="54.5" class="st2" width="13.6" height="39.8"/>
<path class="st2" d="M28.4,97.9H42v0.4c0,3.7-3.1,6.8-6.8,6.8s-6.8-3.1-6.8-6.8V97.9z"/>
<rect x="54.6" y="45.1" class="st2" width="13.6" height="5.8"/>
<rect x="54.6" y="54.5" class="st2" width="13.6" height="39.8"/>
<path class="st2" d="M54.6,97.9h13.6v0.4c0,3.7-3.1,6.8-6.8,6.8s-6.8-3.1-6.8-6.8V97.9z"/>
<rect x="80.9" y="45.1" class="st2" width="13.6" height="5.8"/>
<rect x="80.9" y="54.5" class="st2" width="13.6" height="39.8"/>
<path class="st2" d="M80.9,97.9h13.6v0.4c0,3.7-3.1,6.8-6.8,6.8s-6.8-3.1-6.8-6.8V97.9z"/>
<path class="st2" d="M43.6,40.3H26.7c-0.6,0-1.1,0.5-1.1,1.1V44c0,0.6,0.5,1.1,1.1,1.1h16.8c0.6,0,1.1-0.5,1.1-1.1v-2.5
	C44.7,40.9,44.2,40.3,43.6,40.3z"/>
<path class="st2" d="M69.8,40.3H53c-0.6,0-1.1,0.5-1.1,1.1V44c0,0.6,0.5,1.1,1.1,1.1h16.8c0.6,0,1.1-0.5,1.1-1.1v-2.5
	C70.9,40.9,70.4,40.3,69.8,40.3z"/>
<path class="st2" d="M96.2,40.3H79.3c-0.6,0-1.1,0.5-1.1,1.1V44c0,0.6,0.5,1.1,1.1,1.1h16.8c0.6,0,1.1-0.5,1.1-1.1v-2.5
	C97.3,40.9,96.8,40.3,96.2,40.3z"/>
<path class="st2" d="M109.5,52.7c0,0.5-0.2,0.9-0.5,1.3c-0.3,0.3-0.8,0.5-1.3,0.5H16c-1,0-1.9-0.8-1.9-1.9c0-0.5,0.2-0.9,0.5-1.3
	c0.3-0.3,0.8-0.5,1.3-0.5h91.6C108.7,50.8,109.5,51.6,109.5,52.7z"/>
<path class="st2" d="M109.5,96.1c0,0.5-0.2,0.9-0.5,1.3c-0.3,0.3-0.8,0.5-1.3,0.5H16c-1,0-1.9-0.8-1.9-1.9c0-0.5,0.2-0.9,0.5-1.3
	c0.3-0.3,0.8-0.5,1.3-0.5h91.6C108.7,94.2,109.5,95.1,109.5,96.1z"/>
<line class="st0" x1="529.6" y1="107.9" x2="452.9" y2="107.9"/>
<line class="st0" x1="541.7" y1="107.9" x2="532.8" y2="107.9"/>
<line class="st0" x1="0.8" y1="107.9" x2="4.8" y2="107.9"/>
<rect x="16.6" y="102.6" class="st3" width="5.3" height="5.3"/>
<rect x="101" y="102.6" class="st3" width="5.3" height="5.3"/>
<path class="st0" d="M31.7,26.4c0,0,0.8,0.5,0.8,1.6c0,1.3-0.9,2.2-0.9,3.8c0,1.6,0.9,2.1,0.9,3.5c0,1.1-0.7,2-0.7,2"/>
<path class="st0" d="M35.1,26.4c0,0,0.8,0.5,0.8,1.6c0,1.3-0.9,2.2-0.9,3.8c0,1.6,0.9,2.1,0.9,3.5c0,1.1-0.7,2-0.7,2"/>
<path class="st0" d="M38.4,26.4c0,0,0.8,0.5,0.8,1.6c0,1.3-0.9,2.2-0.9,3.8c0,1.6,0.9,2.1,0.9,3.5c0,1.1-0.7,2-0.7,2"/>
<path class="st0" d="M266.5,23.3c0,0,0.7,0.4,0.7,1.3c0,1-0.8,1.8-0.8,3.1c0,1.3,0.8,1.7,0.8,2.8c0,0.8-0.6,1.6-0.6,1.6"/>
<path class="st0" d="M270.6,23.3c0,0,0.7,0.4,0.7,1.3c0,1-0.8,1.8-0.8,3.1c0,1.3,0.8,1.7,0.8,2.8c0,0.8-0.6,1.6-0.6,1.6"/>
<path class="st0" d="M274.6,23.3c0,0,0.7,0.4,0.7,1.3c0,1-0.8,1.8-0.8,3.1c0,1.3,0.8,1.7,0.8,2.8c0,0.8-0.6,1.6-0.6,1.6"/>
<path class="st0" d="M442.8,28.8c0,0,0.6,0.3,0.6,1c0,0.8-0.6,1.4-0.6,2.5s0.6,1.4,0.6,2.3c0,0.7-0.4,1.4-0.4,1.4"/>
<path class="st0" d="M446.6,28.8c0,0,0.7,0.4,0.7,1.3c0,1-0.8,1.7-0.8,2.9c0,1.2,0.8,1.6,0.8,2.7c0,0.8-0.5,1.6-0.5,1.6"/>
<path class="st0" d="M450.4,28.8c0,0,0.8,0.4,0.8,1.4c0,1.2-0.8,2-0.8,3.3c0,1.4,0.8,1.9,0.8,3.1c0,0.9-0.6,1.8-0.6,1.8"/>
<path class="st3" d="M60,37.1l-1.5-4.5c-0.4,0.4-1.1,0.8-1.8,0.8c-1.4,0-2.5-1.1-2.5-2.5c0-1.4,1.1-2.5,2.5-2.5
	c0.6,0,1.1,0.3,1.5,0.6c0.2-1.6,1.5-2.8,3.1-2.8c1.5,0,2.7,1,3.1,2.4c0.5-0.5,1.2-0.8,2-0.8c1.5,0,2.8,1.3,2.8,2.8
	c0,1.5-1.3,2.8-2.8,2.8c-0.8,0-1.5-0.3-2-0.8l-1.4,4.4"/>
<path class="st2" d="M126.4,33.6h-8.2c-2,0-3.6-1.6-3.6-3.6v-8.2c0-2,1.6-3.6,3.6-3.6h8.2c2,0,3.6,1.6,3.6,3.6v8.2
	C130,32,128.4,33.6,126.4,33.6z"/>
<circle class="st2" cx="122.3" cy="26" r="3.8"/>
<circle class="st2" cx="141.9" cy="26.1" r="4.1"/>
<g>
	<line class="st0" x1="137.6" y1="26.1" x2="130" y2="26.1"/>
</g>
<line class="st0" x1="146.3" y1="26.1" x2="173.6" y2="26.1"/>
<line class="st0" x1="114.2" y1="26.1" x2="107.9" y2="26.1"/>
<g>
	<path class="st4" d="M83.4,36.4L83.4,36.4C83.4,36.4,83.4,36.5,83.4,36.4C83.3,36.5,83.3,36.4,83.4,36.4
		C83.3,36.4,83.3,36.4,83.4,36.4 M83.4,35.2c-0.8,0-1.3,0.6-1.3,1.3c0,0.8,0.6,1.3,1.3,1.3c0.8,0,1.3-0.6,1.3-1.3
		S84.1,35.2,83.4,35.2L83.4,35.2z"/>
</g>
<g>
	<path class="st4" d="M83.4,31.8c-0.4,0-0.8,0.3-0.8,0.8c0,0.4,0.3,0.8,0.8,0.8c0.4,0,0.8-0.3,0.8-0.8
		C84.3,32.2,83.8,31.8,83.4,31.8L83.4,31.8z"/>
</g>
<g>
	<path class="st4" d="M85.9,29.4c-0.4,0-0.8,0.3-0.8,0.8c0,0.4,0.3,0.8,0.8,0.8s0.8-0.3,0.8-0.8C86.7,29.7,86.3,29.4,85.9,29.4
		L85.9,29.4z"/>
</g>
<g>
	<path class="st4" d="M85.9,25.7c-0.6,0-1,0.5-1,1s0.5,1,1,1s1-0.5,1-1S86.5,25.7,85.9,25.7L85.9,25.7z"/>
</g>
<g>
	<path class="st4" d="M90.2,27.8c-0.3,0-0.5,0.3-0.5,0.5s0.3,0.5,0.5,0.5s0.5-0.3,0.5-0.5S90.5,27.8,90.2,27.8L90.2,27.8z"/>
</g>
<g>
	<path class="st4" d="M91.3,29.4c-0.5,0-0.8,0.4-0.8,0.8c0,0.5,0.4,0.8,0.8,0.8c0.4,0,0.8-0.4,0.8-0.8
		C92.3,29.7,91.8,29.4,91.3,29.4L91.3,29.4z"/>
</g>
<g>
	<path class="st4" d="M89.5,31.9c-0.3,0-0.5,0.3-0.5,0.5c0,0.3,0.3,0.5,0.5,0.5c0.3,0,0.5-0.3,0.5-0.5
		C90.1,32.2,89.9,31.9,89.5,31.9L89.5,31.9z"/>
</g>
<g>
	<path class="st4" d="M92.9,32.5c-0.6,0-1.2,0.5-1.2,1.2c0,0.6,0.5,1.2,1.2,1.2c0.6,0,1.2-0.5,1.2-1.2S93.6,32.5,92.9,32.5
		L92.9,32.5z"/>
</g>
<g>
	<path class="st4" d="M93,35.7c-0.6,0-1,0.5-1,1c0,0.6,0.5,1,1,1c0.6,0,1-0.5,1-1C94.1,36.1,93.6,35.7,93,35.7L93,35.7z"/>
</g>
<g>
	<path class="st4" d="M87.3,34.6c-0.4,0-0.8,0.3-0.8,0.8c0,0.4,0.3,0.8,0.8,0.8c0.4,0,0.8-0.3,0.8-0.8C88.1,35,87.7,34.6,87.3,34.6
		L87.3,34.6z"/>
</g>
<g>
	<path class="st4" d="M88.9,37.2c-0.3,0-0.6,0.3-0.6,0.6c0,0.3,0.3,0.6,0.6,0.6s0.6-0.3,0.6-0.6C89.5,37.5,89.3,37.2,88.9,37.2
		L88.9,37.2z"/>
</g>
<path class="st2" d="M126.1,18.3h-7.6V2.5c0-0.9,0.8-1.8,1.8-1.8h4.1c0.9,0,1.8,0.8,1.8,1.8L126.1,18.3L126.1,18.3z"/>
<rect x="118.5" y="34" class="st2" width="7.6" height="65.8"/>
<path class="st2" d="M179.8,60.3l-13.3-30.1v-8.7h-9v8.7l-13.3,29.8c-0.6,1.4,0.3,3,1.9,3l31.8,0.3
	C179.4,63.3,180.4,61.8,179.8,60.3z"/>
<path class="st2" d="M156.9,16.7h10.4c0.6,0,1.1,0.5,1.1,1.1v2.6c0,0.6-0.5,1.1-1.1,1.1h-10.4c-0.6,0-1.1-0.5-1.1-1.1v-2.6
	C155.7,17.2,156.2,16.7,156.9,16.7z"/>
<path class="st2" d="M184.9,99.7h-67.8c-1.5,0-2.7,1.2-2.7,2.7v5.4h73.2v-5.4C187.6,101,186.3,99.7,184.9,99.7z"/>
<path class="st4" d="M143.5,93.9h38.1c1.5,0,2.7,1.3,2.7,2.7v3.1h-43.6v-3.1C140.8,95.1,142,93.9,143.5,93.9z"/>
<rect x="148.7" y="87" class="st2" width="27.8" height="9.3"/>
<path class="st2" d="M170.2,81.2c0,1.9-0.6,3.6-1.7,4.9h-12.2c-1.1-1.4-1.7-3.1-1.7-4.9c0-4.4,7.8-14.4,7.8-14.4
	S170.2,76.8,170.2,81.2z"/>
<polyline class="st5" points="167.1,83.3 165.8,83.3 159.1,83.3 158.4,83.3 "/>
<path class="st4" d="M166.7,80.5c0,1.1-0.4,2-1.1,2.8h-6c-0.7-0.8-1.1-1.7-1.1-2.8c0-2.3,4.1-7.6,4.1-7.6S166.7,78.2,166.7,80.5z"/>
<polyline class="st5" points="167.5,83.3 165.6,83.3 159.5,83.3 157.8,83.3 "/>
<line class="st2" x1="152.6" y1="41.4" x2="171.7" y2="41.4"/>
<path class="st2" d="M210.9,51.2h14.6c0.8,0,1.4-0.7,1.4-1.4v-3.4c0-0.8-0.7-1.4-1.4-1.4h-14.6c-0.8,0-1.4,0.7-1.4,1.4v3.4
	C209.4,50.5,210.1,51.2,210.9,51.2z"/>
<path class="st2" d="M240.1,107.9h-43.8c-2.6,0-4.2-2.9-2.9-5.2L212,73.1V51.2h12.4v21.8l9.7,15.5l8.8,14.2
	C244.3,105,242.7,107.9,240.1,107.9z"/>
<line class="st2" x1="205.6" y1="83.3" x2="230.8" y2="83.3"/>
<path class="st2" d="M256.5,25.5l-3.5,7.4v45.5c-2,3.1-3.1,6.9-3.1,10.8c0,4,1.1,7.6,3.1,10.9v7.8h-13c2.6,0,4.2-2.9,2.9-5.2
	L234,88.5V25h22.2C256.5,25,256.6,25.2,256.5,25.5z"/>
<path class="st2" d="M291.3,89.3c0,8.2-4.8,15.3-11.7,18.6h-17.9c-3.6-1.7-6.5-4.4-8.7-7.8c-2-3.1-3.1-6.9-3.1-10.9
	s1.1-7.6,3.1-10.8c2.5-4.2,6.5-7.3,11.1-8.8V41.7H277v27.9C285.4,72.3,291.3,80.1,291.3,89.3z"/>
<path class="st2" d="M278.7,41.7h-16.1c-0.8,0-1.4-0.7-1.4-1.4v-3.4c0-0.8,0.7-1.4,1.4-1.4h16.1c0.8,0,1.4,0.7,1.4,1.4v3.4
	C280.2,41,279.5,41.7,278.7,41.7z"/>
<line class="st2" x1="234" y1="44.8" x2="253.1" y2="44.8"/>
<line class="st2" x1="251.6" y1="81.2" x2="289.9" y2="81.2"/>
<path class="st2" d="M308.6,85.9c0,1.8-1.4,3.2-3.2,3.2c-1.8,0-3.2-1.4-3.2-3.2c0-1.3,1.7-4.8,2.6-6.6c0.3-0.5,0.9-0.5,1.2,0
	C306.9,81,308.6,84.6,308.6,85.9z"/>
<path class="st2" d="M498.1,74.6c0,2.2-1.8,4-4,4c-2.2,0-4-1.8-4-4c0-1.7,2.5-6.6,3.5-8.7c0.2-0.4,0.8-0.4,0.9,0
	C495.6,68,498.1,72.9,498.1,74.6z"/>
<path class="st6" d="M317.3,99.7c0,2.1,0,5.2,0,5.2c0,1.6-1.4,3-3,3h-17.8c-1.6,0-3-1.4-3-3c0,0,0-3.5,0-5.2c0-0.4,0.5-1.1,1.3-1.9
	h21C316.7,98.6,317.3,99.3,317.3,99.7z"/>
<path class="st6" d="M315.9,97.9h-21c2-2.1,5.9-4.8,5.9-4.8v-1.8h9.3v1.8C310.1,93.1,313.8,95.8,315.9,97.9z"/>
<g>
	<rect x="304.2" y="90.3" class="st4" width="2.5" height="3.9"/>
</g>
<line class="st7" x1="305.4" y1="94.2" x2="305.4" y2="97.9"/>
<path class="st2" d="M367.4,44.4h-4.3l-17.9,10.4l-6.5,3.7l-30.2,17.4c-2.2,1.3-5.2,0.8-6.6-1.3c-0.7-0.8-0.9-1.9-0.9-2.9
	c0-1.7,0.8-3.4,2.5-4.3l35.3-20.4l6.5-3.7l13-7.5l1.8-3.7c0.1-0.1,0.2-0.1,0.3,0l7.4,12.1C367.6,44.3,367.5,44.4,367.4,44.4z"/>
<path class="st4" d="M360.5,48.2l-6.5,3.7c-0.5,0.3-1.2,0.1-1.4-0.4l-1.2-2.1c-0.3-0.5-0.1-1.2,0.4-1.4l6.5-3.7
	c0.5-0.3,1.2-0.1,1.4,0.4l1.2,2.1C361.1,47.3,361,48,360.5,48.2z"/>
<path class="st4" d="M355.5,40.4l-6.5,3.7c-0.5,0.3-1.2,0.1-1.4-0.4l-1.2-2.1c-0.3-0.5-0.1-1.2,0.4-1.4l6.5-3.7
	c0.5-0.3,1.2-0.1,1.4,0.4L356,39C356.2,39.5,356,40.2,355.5,40.4z"/>
<path class="st4" d="M367.4,39.1l-6.4,3.7c-0.5,0.3-1.3,0.2-1.5-0.4l-1.4-2.3c-0.3-0.5-0.2-1.3,0.4-1.5l6.4-3.7
	c0.5-0.3,1.3-0.2,1.5,0.4l1.4,2.3C368.1,38,367.9,38.7,367.4,39.1z"/>
<path class="st2" d="M450.6,50.6L425.9,86l-6.4,9l-4.2,5.9c-1.1,1.6-3.3,2-4.9,0.8l-9.8-6.8l-0.8-0.6c-1.6-1.1-2-3.3-0.8-4.9
	l2.5-3.6l32.7-46.7L450.6,50.6z"/>
<path class="st2" d="M452.8,52.2L432,37.5c-0.5-0.3-0.7-1.1-0.3-1.6l1.5-2.2c0.3-0.5,1.1-0.7,1.6-0.3l20.8,14.6
	c0.5,0.3,0.7,1.1,0.3,1.6l-1.5,2.2C454,52.3,453.3,52.5,452.8,52.2z"/>
<path class="st2" d="M367.1,36.4l4.8-2.7c2.2-1.3,5,0,5.6,2.5l14.8,62c1.4,5.9,9.3,7.1,12.3,1.8l1-1.7"/>
<path class="st0" d="M359.9,107.9h-35.9c-0.6,0-1-0.4-1-1v-2.4c0-0.6,0.4-1,1-1h35.9c0.6,0,1,0.4,1,1v2.4
	C360.9,107.5,360.4,107.9,359.9,107.9z"/>
<path class="st2" d="M345.1,24.1v19.1l-6.5,3.7V24.1c0-0.6,0.5-1.1,1.1-1.1h4.2C344.6,23,345.1,23.5,345.1,24.1z"/>
<polygon class="st2" points="338.6,58.4 345.1,54.7 345.1,103.5 338.6,103.5 "/>
<path class="st2" d="M516.2,39.7c0,12.1-9.8,21.8-21.8,21.8c-12.1,0-21.8-9.8-21.8-21.8c0-1.5,0.2-3.1,0.4-4.5h42.6
	C516,36.7,516.2,38.2,516.2,39.7z"/>
<path class="st2" d="M515.7,35.2H473c1.4-6.8,6-12.4,12.1-15.3v-8.8H504v9c1.6,0.8,3.1,1.8,4.4,2.9c3.1,2.5,5.4,5.9,6.6,9.7
	C515.3,33.5,515.5,34.4,515.7,35.2z"/>
<path class="st2" d="M522.7,27l-7.6,5.8c-1.3-3.8-3.7-7.1-6.6-9.7l7.2-5.4L522.7,27z"/>
<path class="st4" d="M516.5,26.8l-2.4-3.1c-0.6-0.8-0.4-1.8,0.3-2.4l5.2-4.1c0.8-0.6,1.8-0.4,2.4,0.3l2.4,3.1
	c0.6,0.8,0.4,1.8-0.3,2.4l-5.2,4.1C518.1,27.8,517,27.6,516.5,26.8z"/>
<path class="st4" d="M523.1,44h-57.4c-0.8,0-1.4-0.7-1.4-1.4v-3.3c0-0.8,0.7-1.4,1.4-1.4h57.4c0.8,0,1.4,0.7,1.4,1.4v3.3
	C524.5,43.3,523.9,44,523.1,44z"/>
<line class="st2" x1="462.9" y1="107.9" x2="468.3" y2="42.8"/>
<line class="st2" x1="525.5" y1="107.9" x2="520.8" y2="43.5"/>
<rect x="491" y="78.1" class="st4" width="6.1" height="7"/>
<rect x="492.2" y="84.8" class="st4" width="4" height="5.4"/>
<line class="st2" x1="494.1" y1="90.1" x2="494.1" y2="96.9"/>
<rect x="489.6" y="80.7" class="st4" width="9.3" height="4.3"/>
<path class="st2" d="M511.5,96.9v7.9c0,1.7-1.4,3.1-3.1,3.1h-28.6c-1.7,0-3.1-1.4-3.1-3.1v-7.9H511.5z"/>
<path class="st2" d="M511.5,95.2v1.7h-34.8v-1.7c0-1.3,8.3-4.2,11.2-4.2l0.4-7.1h11.7l0.4,7.1C502.4,91.1,511.5,93.5,511.5,95.2z"/>
<path class="st2" d="M447.2,86.4L442,104c-0.7,2.3-2.8,3.9-5.2,3.9h-55.3c-2.4,0-4.5-1.6-5.2-3.9l-2.7-9.1l-2.5-8.6
	c-0.1-0.3,0.1-0.5,0.3-0.5h30.1l-2.5,3.6c-1.1,1.6-0.8,3.8,0.8,4.9l0.8,0.6l9.8,6.8c1.6,1.1,3.8,0.8,4.9-0.8l4.2-5.9l6.4-9h21
	C447,85.9,447.3,86.1,447.2,86.4z"/>
<line class="st2" x1="444.4" y1="95" x2="419.5" y2="95"/>
<line class="st2" x1="400.7" y1="95" x2="373.6" y2="95"/>
<line class="st2" x1="404.3" y1="81.9" x2="428.8" y2="81.9"/>
<line class="st2" x1="318.4" y1="58.7" x2="338.3" y2="58.7"/>
<circle class="st4" cx="494.6" cy="55.4" r="2"/>
<circle class="st4" cx="496.3" cy="47.6" r="2"/>
<circle class="st4" cx="501" cy="55.4" r="2"/>
<circle class="st4" cx="489.6" cy="51.7" r="2"/>
<circle class="st4" cx="504.1" cy="49.2" r="2"/>
<circle class="st4" cx="484.2" cy="48.4" r="2"/>
<circle class="st4" cx="414.2" cy="90.8" r="2"/>
<circle class="st4" cx="430" cy="100.4" r="2"/>
<circle class="st4" cx="437.9" cy="101.4" r="2"/>
<circle class="st4" cx="419.5" cy="103.5" r="2"/>
<circle class="st4" cx="397.3" cy="99" r="2"/>
<circle class="st4" cx="388.3" cy="103.5" r="2"/>
<circle class="st4" cx="380.3" cy="98.3" r="2"/>
<circle class="st4" cx="408.1" cy="94.1" r="2"/>
<circle class="st4" cx="407.6" cy="87.9" r="2"/>
<circle class="st4" cx="153.1" cy="54.7" r="2"/>
<circle class="st4" cx="162.7" cy="53.6" r="2"/>
<circle class="st4" cx="211.5" cy="96.2" r="2"/>
<circle class="st4" cx="216.1" cy="100.2" r="2"/>
<circle class="st4" cx="218.2" cy="93.7" r="2"/>
<circle class="st4" cx="206.4" cy="100.2" r="2"/>
<circle class="st4" cx="243.2" cy="54.7" r="2"/>
<circle class="st4" cx="241.9" cy="61.8" r="2"/>
<circle class="st4" cx="246.7" cy="65.6" r="2"/>
<circle class="st4" cx="242.5" cy="74.8" r="2"/>
<circle class="st4" cx="238.4" cy="67.6" r="2"/>
<circle class="st4" cx="247.7" cy="78.8" r="2"/>
<circle class="st4" cx="242.5" cy="84" r="2"/>
<circle class="st4" cx="245.6" cy="92.4" r="2"/>
<circle class="st4" cx="261.1" cy="87.5" r="2"/>
<circle class="st4" cx="267.9" cy="94.2" r="2"/>
<circle class="st4" cx="259.5" cy="95.7" r="2"/>
<circle class="st4" cx="269.1" cy="86" r="2"/>
<circle class="st4" cx="274.5" cy="95.7" r="2"/>
<circle class="st4" cx="265.8" cy="102.9" r="2"/>
<circle class="st4" cx="273.9" cy="102.9" r="2"/>
<circle class="st4" cx="283.1" cy="88.9" r="2"/>
<circle class="st4" cx="305.9" cy="73.1" r="2"/>
<circle class="st4" cx="311" cy="67.6" r="2"/>
<circle class="st4" cx="325" cy="62.3" r="2"/>
<circle class="st4" cx="318.4" cy="66.2" r="2"/>
<circle class="st4" cx="283.1" cy="97.7" r="2"/>
<circle class="st4" cx="277" cy="87" r="2"/>
<circle class="st4" cx="225" cy="91.6" r="2"/>
<circle class="st4" cx="211.5" cy="88.2" r="2"/>
<circle class="st4" cx="225" cy="99.7" r="2"/>
<circle class="st4" cx="231.8" cy="95.7" r="2"/>
<circle class="st4" cx="158.4" cy="48.7" r="2"/>
<circle class="st4" cx="166.7" cy="47.5" r="2"/>
<circle class="st4" cx="168.9" cy="55.6" r="2"/>
<path class="st2" d="M505.6,11.1h-21.7c-0.6,0-1.1-0.5-1.1-1.1V7.5c0-0.6,0.5-1.1,1.1-1.1h21.7c0.6,0,1.1,0.5,1.1,1.1V10
	C506.6,10.7,506.2,11.1,505.6,11.1z"/>
</svg>
