<?xml version="1.0" encoding="utf-8"?>
<!-- Generator: Adobe Illustrator 17.0.0, SVG Export Plug-In . SVG Version: 6.00 Build 0)  -->
<!DOCTYPE svg PUBLIC "-//W3C//DTD SVG 1.1//EN" "http://www.w3.org/Graphics/SVG/1.1/DTD/svg11.dtd">
<svg version="1.1"
	 id="Layer_1" shape-rendering="geometricPrecision" xmlns:cc="http://creativecommons.org/ns#" xmlns:dc="http://purl.org/dc/elements/1.1/" xmlns:rdf="http://www.w3.org/1999/02/22-rdf-syntax-ns#"
	 xmlns="http://www.w3.org/2000/svg" xmlns:xlink="http://www.w3.org/1999/xlink" x="0px" y="0px" width="500px" height="500px"
	 viewBox="-262.006 -214.828 500 500" enable-background="new -262.006 -214.828 500 500" xml:space="preserve">
<text transform="matrix(1 0 0 1 -164.397 -87.5395)" font-family="'ArialMT'" font-size="52.4127">O</text>
<path id="path3741" fill="none" stroke="#000000" stroke-width="3.1765" d="M-68.322,26.817l76.27,44.035 M-9.493-94.95
	l-58.829,33.965l0,87.803l-76.271,44.035l0,88.07l76.27,44.035l76.27-44.035l0-88.07l58.829-33.965"/>
<path id="path3744" fill="none" stroke="#000000" stroke-width="3.1765" d="M-68.322,40.73l32.111,18.539l32.111,18.539
	 M-4.101,151.964l-32.111,18.539l-32.111,18.539 M-132.543,151.964v-37.078V77.808"/>
<path id="path3760" fill="none" stroke="#000000" stroke-width="3.1765" d="M-64.185-65.933L-122.498-99.6 M-70.536-54.933
	L-128.849-88.6"/>
<text transform="matrix(1 0 0 1 64.2207 43.8668)" font-family="'ArialMT'" font-size="52.4127">OH</text>
<text transform="matrix(1 0 0 1 -10.6475 -87.5395)" font-family="'ArialMT'" font-size="52.4127">NH</text>
<text transform="matrix(1 0 0 1 65.4917 -72.3837)" font-family="'ArialMT'" font-size="41.659">2</text>
</svg>
