<?xml version="1.0" encoding="utf-8"?>
<!-- Generator: Adobe Illustrator 17.0.0, SVG Export Plug-In . SVG Version: 6.00 Build 0)  -->
<!DOCTYPE svg PUBLIC "-//W3C//DTD SVG 1.1//EN" "http://www.w3.org/Graphics/SVG/1.1/DTD/svg11.dtd">
<svg version="1.1"
	 id="Layer_1" shape-rendering="geometricPrecision" xmlns:cc="http://creativecommons.org/ns#" xmlns:dc="http://purl.org/dc/elements/1.1/" xmlns:rdf="http://www.w3.org/1999/02/22-rdf-syntax-ns#"
	 xmlns="http://www.w3.org/2000/svg" xmlns:xlink="http://www.w3.org/1999/xlink" x="0px" y="0px" width="500px" height="500px"
	 viewBox="-262.006 -214.828 500 500" enable-background="new -262.006 -214.828 500 500" xml:space="preserve">
<path d="M-232.521,90.134l-2.282,1.34V36.947l2.282,1.34V90.134z"/>
<path d="M-224.551,86.183h-2.277V42.238h2.277V86.183z"/>
<path d="M-187.64,116.06v2.611l-47.164-27.198l2.282-1.34L-187.64,116.06z"/>
<path d="M-142.695,90.134l2.282,1.34l-47.226,27.198v-2.611L-142.695,90.134z"/>
<path d="M-150.127,85.178l1.136,2.01l-38.047,21.97l-1.141-2.01L-150.127,85.178z"/>
<path d="M-142.695,38.287l1.141-0.67l1.141,0.67v53.187l-2.282-1.34V38.287z"/>
<path d="M-187.64,12.36v-1.34l1.136-0.67l44.95,25.926v1.34l-1.141,0.67L-187.64,12.36z"/>
<path d="M-188.179,21.205l1.141-1.942l38.047,21.97l-1.136,1.942L-188.179,21.205z"/>
<path d="M-232.521,38.287l-2.282-1.34l46.023-26.596l1.141,0.67v1.34L-232.521,38.287z"/>
<path d="M-95.532,9.681v2.68l-44.882,25.926l-1.141-0.67v-1.34L-95.532,9.681z"/>
<path d="M-197.97-36.651c0.954,1.97,2.35,3.52,4.201,4.655c1.862,1.135,3.963,1.703,6.313,1.703c2.163,0,4.184-0.511,6.063-1.544
	c1.874-1.028,3.321-2.543,4.337-4.542c1.028-1.998,1.544-4.258,1.544-6.79c0-2.498-0.488-4.729-1.453-6.699
	c-0.971-1.981-2.384-3.52-4.247-4.61c-1.851-1.101-3.923-1.658-6.222-1.658c-3.531,0-6.404,1.175-8.629,3.52
	c-2.226,2.35-3.338,5.586-3.338,9.72C-199.401-40.699-198.924-38.616-197.97-36.651z M-193.474-50.89
	c1.692-1.601,3.713-2.407,6.063-2.407c1.635,0,3.111,0.42,4.428,1.249c1.328,0.835,2.339,2.015,3.02,3.543
	c0.693,1.516,1.045,3.287,1.045,5.314c0,3.213-0.806,5.694-2.407,7.449c-1.607,1.743-3.656,2.612-6.154,2.612
	c-2.441,0-4.468-0.863-6.086-2.589c-1.624-1.737-2.43-4.11-2.43-7.108C-195.995-46.598-195.154-49.283-193.474-50.89z"/>
<path d="M-171.221-57.171v25.843h3.43v-10.619h13.415v10.619h3.43v-25.843h-3.43v12.17h-13.415v-12.17H-171.221z"/>
<path d="M-188.781-26.958h2.277v37.309l-1.136,0.67l-1.141-0.67V-26.958z"/>
<path d="M-60.086,47.283c0.954,1.97,2.35,3.52,4.201,4.655c1.862,1.135,3.963,1.703,6.313,1.703c2.163,0,4.184-0.511,6.063-1.544
	c1.874-1.028,3.321-2.543,4.337-4.542c1.028-1.998,1.544-4.258,1.544-6.79c0-2.498-0.488-4.729-1.453-6.699
	c-0.971-1.981-2.384-3.52-4.247-4.61c-1.851-1.101-3.923-1.658-6.222-1.658c-3.531,0-6.404,1.175-8.629,3.52
	c-2.225,2.35-3.338,5.586-3.338,9.72C-61.517,43.235-61.04,45.318-60.086,47.283z M-55.59,33.044
	c1.692-1.601,3.713-2.407,6.063-2.407c1.635,0,3.111,0.42,4.428,1.249c1.328,0.835,2.339,2.015,3.02,3.543
	c0.693,1.516,1.045,3.287,1.045,5.314c0,3.213-0.806,5.694-2.407,7.449c-1.607,1.743-3.656,2.612-6.154,2.612
	c-2.441,0-4.468-0.863-6.086-2.589c-1.624-1.737-2.43-4.11-2.43-7.108C-58.11,37.336-57.27,34.651-55.59,33.044z"/>
<path d="M-61.368,29.442l-1.141,1.947L-95.532,12.36v-2.68L-61.368,29.442z"/>
<path d="M-3.424,9.681v2.68l-32.96,19.029l-1.141-1.947L-3.424,9.681z"/>
<path d="M42.662,36.277v1.34l-1.141,0.67L-3.424,12.36v-2.68L42.662,36.277z"/>
<path d="M87.544,10.351l2.277,1.34L43.803,38.287l-1.141-0.67v-1.34L87.544,10.351z"/>
<path d="M-105.323-40.213c0.954,1.97,2.35,3.52,4.201,4.655c1.862,1.135,3.963,1.703,6.313,1.703c2.163,0,4.184-0.511,6.063-1.544
	c1.874-1.028,3.321-2.543,4.337-4.542c1.028-1.998,1.544-4.258,1.544-6.79c0-2.498-0.488-4.729-1.453-6.699
	c-0.971-1.981-2.384-3.52-4.247-4.61c-1.851-1.101-3.923-1.658-6.222-1.658c-3.531,0-6.404,1.175-8.629,3.52
	c-2.226,2.35-3.338,5.586-3.338,9.72C-106.754-44.261-106.277-42.177-105.323-40.213z M-100.827-54.452
	c1.692-1.601,3.713-2.407,6.063-2.407c1.635,0,3.111,0.42,4.428,1.249c1.328,0.835,2.339,2.015,3.02,3.543
	c0.693,1.516,1.045,3.287,1.045,5.314c0,3.213-0.806,5.694-2.407,7.449c-1.607,1.743-3.656,2.612-6.154,2.612
	c-2.441,0-4.468-0.863-6.086-2.589c-1.624-1.737-2.43-4.11-2.43-7.108C-103.348-50.16-102.507-52.845-100.827-54.452z"/>
<path d="M-100.624-26.958h2.277v40.261h-2.277V-26.958z"/>
<path d="M-92.653-26.958h2.277v40.261h-2.277V-26.958z"/>
<path d="M43.803,90.134l-2.282,1.34V38.287l1.141-0.67l1.141,0.67V90.134z"/>
<g>
	<g>
		<path d="M94.202,128.093c-1.188,0.992-2.651,1.485-4.391,1.485c-1.416,0-2.736-0.361-3.967-1.082
			c-1.22-0.732-2.116-1.845-2.694-3.33c-0.567-1.485-0.848-3.214-0.848-5.197c0-1.538,0.239-3.033,0.721-4.476
			c0.493-1.442,1.342-2.593,2.545-3.458c1.198-0.859,2.699-1.294,4.497-1.294c1.554,0,2.842,0.392,3.861,1.167
			c1.029,0.78,1.824,2.015,2.376,3.712l3.033-0.721c-0.626-2.148-1.734-3.818-3.33-5.006c-1.586-1.188-3.542-1.782-5.876-1.782
			c-2.068,0-3.956,0.467-5.664,1.4c-1.713,0.933-3.033,2.307-3.967,4.115c-0.923,1.814-1.379,3.935-1.379,6.364
			c0,2.222,0.408,4.306,1.23,6.257c0.817,1.941,2.015,3.426,3.585,4.454c1.58,1.018,3.627,1.527,6.13,1.527
			c2.429,0,4.486-0.663,6.173-1.994c1.681-1.342,2.848-3.277,3.5-5.812l-3.097-0.785C96.217,125.606,95.4,127.091,94.202,128.093z"
			/>
	</g>
	<g>
		<path d="M102.847,108.203v24.118h3.201v-9.91h12.519v9.91h3.201v-24.118h-3.201v11.357h-12.519v-11.357H102.847z"/>
	</g>
	<g>
		<path d="M126.357,142.56c1.059,0.959,2.387,1.434,3.992,1.434c1.764,0,3.22-0.551,4.367-1.654c1.158-1.114,1.742-2.47,1.742-4.058
			c0-1.158-0.303-2.128-0.904-2.911c-0.59-0.794-1.423-1.312-2.492-1.566c0.838-0.38,1.461-0.888,1.875-1.522
			c0.425-0.645,0.64-1.367,0.64-2.161c0-0.822-0.221-1.599-0.662-2.338c-0.441-0.733-1.081-1.312-1.919-1.742
			c-0.838-0.425-1.753-0.64-2.735-0.64c-1.445,0-2.647,0.414-3.617,1.235c-0.97,0.827-1.588,1.985-1.853,3.485l2.228,0.397
			c0.16-1.103,0.529-1.924,1.103-2.47c0.584-0.54,1.312-0.816,2.183-0.816c0.866,0,1.577,0.276,2.139,0.816
			c0.557,0.529,0.838,1.208,0.838,2.029c0,1.031-0.386,1.797-1.147,2.294c-0.766,0.502-1.621,0.75-2.558,0.75
			c-0.105,0-0.232-0.006-0.375-0.022l-0.243,1.963c0.629-0.176,1.158-0.265,1.588-0.265c1.026,0,1.875,0.342,2.536,1.015
			c0.673,0.662,1.015,1.511,1.015,2.536c0,1.075-0.364,1.979-1.081,2.713c-0.722,0.722-1.61,1.081-2.669,1.081
			c-0.882,0-1.632-0.276-2.25-0.838c-0.618-0.557-1.053-1.467-1.301-2.735l-2.25,0.287
			C124.709,140.371,125.31,141.606,126.357,142.56z"/>
	</g>
</g>
<path d="M183.223-29.466c-1.188,0.992-2.651,1.485-4.391,1.485c-1.416,0-2.736-0.361-3.967-1.082
	c-1.22-0.732-2.116-1.845-2.694-3.33c-0.567-1.485-0.848-3.214-0.848-5.197c0-1.538,0.239-3.033,0.721-4.476
	c0.493-1.442,1.342-2.593,2.545-3.458c1.198-0.859,2.699-1.294,4.497-1.294c1.554,0,2.842,0.392,3.861,1.167
	c1.029,0.78,1.824,2.015,2.376,3.712l3.033-0.721c-0.626-2.148-1.734-3.818-3.33-5.006c-1.586-1.188-3.542-1.782-5.876-1.782
	c-2.068,0-3.956,0.467-5.664,1.4c-1.713,0.933-3.033,2.307-3.967,4.115c-0.923,1.814-1.379,3.935-1.379,6.364
	c0,2.222,0.408,4.306,1.23,6.257c0.817,1.941,2.015,3.426,3.585,4.454c1.58,1.018,3.627,1.527,6.13,1.527
	c2.429,0,4.486-0.663,6.173-1.994c1.681-1.342,2.848-3.277,3.5-5.812l-3.097-0.785C185.239-31.953,184.422-30.468,183.223-29.466z"
	/>
<path d="M191.869-49.356v24.118h3.201v-9.91h12.519v9.91h3.201v-24.118h-3.201v11.357H195.07v-11.357H191.869z"/>
<path d="M607.253,75.187c0.79,0.716,1.782,1.07,2.98,1.07c1.317,0,2.403-0.412,3.26-1.235c0.864-0.831,1.3-1.844,1.3-3.029
	c0-0.864-0.226-1.589-0.675-2.173c-0.44-0.593-1.062-0.979-1.86-1.169c0.626-0.284,1.091-0.663,1.399-1.136
	c0.317-0.482,0.477-1.021,0.477-1.613c0-0.613-0.165-1.193-0.494-1.745c-0.329-0.547-0.807-0.979-1.432-1.301
	c-0.626-0.317-1.309-0.477-2.041-0.477c-1.078,0-1.975,0.309-2.7,0.922c-0.724,0.617-1.185,1.482-1.383,2.601l1.663,0.296
	c0.119-0.823,0.395-1.436,0.823-1.844c0.436-0.403,0.979-0.609,1.63-0.609c0.646,0,1.177,0.206,1.597,0.609
	c0.416,0.395,0.626,0.901,0.626,1.515c0,0.77-0.288,1.342-0.856,1.712c-0.572,0.375-1.21,0.56-1.91,0.56
	c-0.078,0-0.173-0.004-0.28-0.016l-0.181,1.465c0.469-0.132,0.864-0.198,1.185-0.198c0.766,0,1.399,0.255,1.893,0.757
	c0.502,0.494,0.757,1.128,0.757,1.893c0,0.803-0.272,1.477-0.807,2.025c-0.539,0.539-1.202,0.807-1.992,0.807
	c-0.659,0-1.218-0.206-1.679-0.626c-0.461-0.416-0.786-1.095-0.971-2.041l-1.679,0.214
	C606.022,73.553,606.471,74.475,607.253,75.187z"/>
<path d="M77.297,109.492l-1.141,1.947L41.521,91.474l2.282-1.34L77.297,109.492z"/>
<path d="M87.544-42.837l2.277,1.34V11.69l-2.277-1.34V-42.837z"/>
<path d="M134.77-70.035v2.617L89.82-41.497l-2.277-1.34L134.77-70.035z"/>
<path d="M169.405-50.069l-1.141,2.01L134.77-67.418v-2.617L169.405-50.069z"/>
</svg>
