<?xml version="1.0" encoding="utf-8"?>
<!-- Generator: Adobe Illustrator 17.0.0, SVG Export Plug-In . SVG Version: 6.00 Build 0)  -->
<!DOCTYPE svg PUBLIC "-//W3C//DTD SVG 1.1//EN" "http://www.w3.org/Graphics/SVG/1.1/DTD/svg11.dtd">
<svg version="1.1"
	 id="Layer_1" shape-rendering="geometricPrecision" xmlns:cc="http://creativecommons.org/ns#" xmlns:dc="http://purl.org/dc/elements/1.1/" xmlns:rdf="http://www.w3.org/1999/02/22-rdf-syntax-ns#"
	 xmlns="http://www.w3.org/2000/svg" xmlns:xlink="http://www.w3.org/1999/xlink" x="0px" y="0px" width="500px" height="500px"
	 viewBox="-262.006 -214.828 500 500" enable-background="new -262.006 -214.828 500 500" xml:space="preserve">
<g id="layer1" transform="translate(-165.92955,-602.80571)">
	<path id="path2453" d="M34.363,774.742l-44.176-25.411l0.161-51.223l0.161-51.223l43.126-24.868l43.126-24.868l0.005-34.09
		l0.005-34.09h1.883h1.883l0.011,34.09l0.011,34.09l42.206,24.344l42.206,24.344l28.412-16.377
		c15.627-9.008,29.13-16.836,30.007-17.396c1.429-0.913,1.72-0.828,2.798,0.817l1.203,1.836l-29.919,17.277l-29.919,17.278
		l-0.221,50.029l-0.221,50.029l-39.262,22.601c-21.594,12.431-41.523,23.866-44.286,25.411l-5.023,2.81L34.363,774.742z
		 M134.404,763.159l27.875-16.091v-48.943v-48.943l-41.435-23.93c-22.79-13.162-41.774-23.931-42.189-23.932
		c-0.414-0.001-19.399,10.775-42.189,23.947L-4.97,649.217v48.914v48.914l41.812,24.15l41.812,24.15l13.937-8.047
		C100.257,782.871,119.073,772.009,134.404,763.159z M78.49,780.385c-0.788-1.729,0.103-2.3,34.333-22.005
		c19.328-11.126,35.359-20.338,35.624-20.472c0.266-0.133,0.995,0.54,1.621,1.495c1.137,1.735,1.099,1.76-33.631,21.799
		c-19.123,11.034-35.302,20.263-35.954,20.51C79.706,782.007,79.022,781.551,78.49,780.385z M5.2,698.101v-41.059h2.26h2.26v41.059
		v41.059H7.46H5.2V698.101z M112.817,638.013c-34.31-19.908-35.128-20.436-34.333-22.182c0.51-1.118,1.231-1.629,1.925-1.362
		c0.61,0.234,16.785,9.47,35.944,20.525c34.737,20.043,34.83,20.104,33.701,21.828c-0.623,0.951-1.348,1.697-1.611,1.657
		C148.18,658.438,132.148,649.229,112.817,638.013z M244.24,621.342c-4.797-1.568-8.911-5.247-11.293-10.098
		c-1.863-3.794-2.112-5.142-2.112-11.457c0-6.322,0.247-7.661,2.12-11.474c4.533-9.232,13.939-13.11,24.3-10.019
		c7.983,2.382,12.901,9.361,13.659,19.385c1.051,13.897-6.456,23.664-18.761,24.411C249.369,622.259,246.1,621.95,244.24,621.342z
		 M258.887,614.381c3.644-2.905,5.519-6.737,6.024-12.315c0.775-8.552-2.407-15.457-8.374-18.167
		c-7.788-3.537-16.503,0.442-18.939,8.647c-4.014,13.516,2.7,25.094,14.132,24.369C255.152,616.7,256.64,616.172,258.887,614.381z
		 M278.674,599.786v-21.848h3.014h3.013v9.04v9.04h11.301h11.301v-9.04v-9.04h3.013h3.013v21.848v21.848h-3.013h-3.013v-10.171
		v-10.17h-11.301h-11.301v10.17v10.171h-3.013h-3.014V599.786z M72.012,521.851c-4.746-1.693-7.225-4.186-10.152-10.209
		c-1.746-3.592-2.015-5.096-2.027-11.301c-0.015-7.912,1.535-12.665,5.489-16.832c4.495-4.737,12.844-6.884,19.632-5.048
		c3.935,1.064,8.67,5.323,10.26,9.226l1.136,2.791l-2.821,0.78c-1.551,0.429-2.907,0.529-3.012,0.223
		c-0.765-2.227-3.589-5.714-5.64-6.965c-5.45-3.323-13.795-0.754-17.146,5.278c-1.639,2.95-1.883,4.319-1.883,10.547
		c0,6.228,0.245,7.597,1.883,10.547c2.516,4.528,7.171,7.011,12.298,6.558c4.53-0.4,7.13-2.262,9.549-6.837
		c1.813-3.43,1.982-3.545,4.52-3.081c1.45,0.265,2.745,0.588,2.878,0.718c0.797,0.783-3.55,8.374-5.992,10.465
		C86.164,522.836,78.385,524.123,72.012,521.851z M116.92,521.896c-4.797-1.568-8.911-5.247-11.293-10.098
		c-1.863-3.794-2.112-5.142-2.112-11.457c0-6.322,0.247-7.661,2.12-11.474c4.533-9.232,13.939-13.11,24.3-10.019
		c7.983,2.382,12.901,9.361,13.659,19.385c1.051,13.897-6.456,23.664-18.761,24.411C122.049,522.814,118.78,522.504,116.92,521.896z
		 M131.567,514.936c3.644-2.905,5.519-6.737,6.024-12.315c0.775-8.552-2.407-15.457-8.374-18.166
		c-7.788-3.537-16.503,0.442-18.939,8.647c-4.014,13.516,2.7,25.094,14.132,24.369C127.832,517.254,129.32,516.727,131.567,514.936z
		 M163.629,521.896c-4.797-1.568-8.911-5.247-11.293-10.098c-1.863-3.794-2.112-5.142-2.112-11.457c0-6.322,0.247-7.661,2.12-11.474
		c4.533-9.232,13.939-13.11,24.3-10.019c7.983,2.382,12.901,9.361,13.659,19.385c1.051,13.897-6.456,23.664-18.761,24.411
		C168.759,522.814,165.489,522.504,163.629,521.896z M178.276,514.936c3.644-2.905,5.519-6.737,6.024-12.315
		c0.775-8.552-2.407-15.457-8.374-18.166c-7.788-3.537-16.503,0.442-18.939,8.647c-4.014,13.516,2.7,25.094,14.132,24.369
		C174.541,517.254,176.029,516.727,178.276,514.936z M198.064,500.341v-21.848h3.013h3.013v9.04v9.04h11.301h11.301v-9.04v-9.04
		h3.013h3.014v21.848v21.848h-3.014h-3.013v-10.171v-10.171h-11.301h-11.301v10.171v10.171h-3.013h-3.013V500.341z"/>
</g>
</svg>
