<?xml version="1.0" encoding="utf-8"?>
<!-- Generator: Adobe Illustrator 17.0.0, SVG Export Plug-In . SVG Version: 6.00 Build 0)  -->
<!DOCTYPE svg PUBLIC "-//W3C//DTD SVG 1.1//EN" "http://www.w3.org/Graphics/SVG/1.1/DTD/svg11.dtd">
<svg version="1.1"
	 id="Layer_1" shape-rendering="geometricPrecision" xmlns:cc="http://creativecommons.org/ns#" xmlns:dc="http://purl.org/dc/elements/1.1/" xmlns:rdf="http://www.w3.org/1999/02/22-rdf-syntax-ns#"
	 xmlns="http://www.w3.org/2000/svg" xmlns:xlink="http://www.w3.org/1999/xlink" x="0px" y="0px" width="500px" height="500px"
	 viewBox="-262.006 -214.828 500 500" enable-background="new -262.006 -214.828 500 500" xml:space="preserve">
<g>
	<title>methyl 2-hydroxybenzoate</title>
	<path d="M-16.895-95.613c-5.176,0-9.39,1.761-12.662,5.209c-3.272,3.448-4.969,8.171-4.969,14.265c0,3.222,0.761,6.328,2.164,9.216
		c1.402,2.888,3.449,5.142,6.171,6.812c2.721,1.67,5.84,2.484,9.296,2.484c3.189,0,6.141-0.733,8.895-2.244
		c2.755-1.511,4.828-3.713,6.331-6.652c1.503-2.938,2.324-6.294,2.324-10.017c0-3.673-0.736-6.96-2.164-9.857
		c-1.427-2.897-3.529-5.192-6.251-6.812C-10.48-94.828-13.506-95.613-16.895-95.613z M-16.895-91.446
		c2.421,0,4.626,0.616,6.571,1.843c1.945,1.227,3.398,2.98,4.408,5.209c1.01,2.229,1.523,4.865,1.523,7.854
		c0,4.725-1.164,8.328-3.526,10.899c-2.362,2.571-5.399,3.847-9.056,3.847c-3.59,0-6.596-1.22-8.976-3.767
		s-3.526-6.074-3.526-10.498c0-5.526,1.207-9.418,3.686-11.78C-23.311-90.202-20.334-91.446-16.895-91.446z M-25.149-49.293v49.125
		l-55.777,32.216l-63.951-36.944L-210.35,32.93v75.651l65.473,37.826l63.951-36.944l40.23,23.24l1.523-2.725l-40.15-23.16V34.693
		L-16.975-1.29l40.15,23.08l1.523-2.645L-8.721-0.168v-49.125h-3.125v47.362l-5.129-2.965l-5.049,2.885v-47.282H-25.149z
		 M112.449-21.725c-3.239,0-6.199,0.766-8.895,2.244c-2.696,1.478-4.79,3.645-6.251,6.491c-1.461,2.847-2.164,6.114-2.164,9.937
		c0,3.506,0.629,6.802,1.923,9.857c1.294,3.055,3.211,5.441,5.69,7.052c2.479,1.611,5.66,2.404,9.617,2.404
		c3.823,0,7.051-1.03,9.697-3.125c2.646-2.095,4.511-5.146,5.53-9.136l-4.888-1.282c-0.668,3.089-1.96,5.483-3.847,7.052
		c-1.887,1.569-4.171,2.324-6.892,2.324c-2.237,0-4.331-0.611-6.251-1.763c-1.92-1.152-3.337-2.88-4.247-5.209
		c-0.91-2.329-1.362-5.052-1.362-8.174c0-2.421,0.434-4.773,1.202-7.052c0.768-2.279,2.032-4.097,3.927-5.449
		c1.895-1.352,4.311-2.003,7.132-2.003c2.454,0,4.471,0.624,6.091,1.843c1.619,1.219,2.835,3.179,3.686,5.85l4.808-1.202
		c-0.985-3.389-2.705-5.984-5.209-7.854C119.241-20.79,116.122-21.725,112.449-21.725z M133.766-21.084V15.62h4.808V-1.69h19.073
		v17.31h4.888v-36.704h-4.888v15.066h-19.073v-15.066H133.766z M-144.877-1.29l62.428,35.982v72.125l-62.428,36.063l-62.428-36.063
		V34.693L-144.877-1.29z M176.961-0.408c-2.179,0-4.065,0.597-5.53,1.843c-1.465,1.246-2.392,3.023-2.805,5.289l3.366,0.641
		c0.25-1.653,0.806-2.94,1.683-3.767c0.877-0.826,2.051-1.202,3.366-1.202c1.327,0,2.367,0.388,3.206,1.202
		c0.839,0.814,1.282,1.806,1.282,3.045c0,1.565-0.611,2.775-1.763,3.526c-1.152,0.751-2.407,1.122-3.847,1.122
		c-0.138,0-0.336-0.054-0.561-0.08l-0.401,2.965c0.952-0.25,1.766-0.321,2.404-0.321c1.565,0,2.832,0.434,3.847,1.443
		c1.014,1.008,1.523,2.294,1.523,3.847c0,1.628-0.507,2.985-1.603,4.087c-1.096,1.102-2.497,1.683-4.087,1.683
		c-1.34,0-2.433-0.437-3.366-1.282c-0.933-0.845-1.615-2.171-2.003-4.087l-3.366,0.401c0.225,2.291,1.128,4.17,2.725,5.61
		c1.596,1.44,3.594,2.164,6.01,2.164c2.68,0,4.899-0.813,6.652-2.484c1.753-1.672,2.645-3.766,2.645-6.171
		c0-1.778-0.461-3.224-1.362-4.408c-0.902-1.183-2.139-1.948-3.767-2.324c1.252-0.576,2.166-1.347,2.805-2.324
		c0.639-0.977,0.962-2.096,0.962-3.286c0-1.252-0.292-2.412-0.962-3.526c-0.67-1.114-1.7-2-2.965-2.645
		C179.784-0.091,178.464-0.408,176.961-0.408z M88.247,8.247L69.655,18.986l1.523,2.645L89.85,10.892L88.247,8.247z
		 M-144.075,10.892l-1.523,2.725l50.648,29.171l1.523-2.645L-144.075,10.892z M47.056,15.219c-5.176,0-9.39,1.681-12.662,5.129
		c-3.272,3.448-4.888,8.251-4.888,14.345c0,3.222,0.681,6.248,2.084,9.136c1.402,2.888,3.449,5.142,6.171,6.812
		c2.721,1.67,5.84,2.564,9.296,2.564c3.189,0,6.141-0.813,8.895-2.324c2.755-1.511,4.908-3.713,6.411-6.651
		c1.503-2.938,2.244-6.294,2.244-10.017c0-3.673-0.736-6.96-2.164-9.857c-1.427-2.897-3.529-5.112-6.251-6.732
		C53.47,16.004,50.445,15.219,47.056,15.219z M47.056,19.386c2.421,0,4.626,0.616,6.571,1.843c1.945,1.227,3.398,2.9,4.408,5.129
		c1.01,2.229,1.523,4.865,1.523,7.854c0,4.725-1.164,8.408-3.526,10.979c-2.362,2.571-5.399,3.847-9.056,3.847
		c-3.59,0-6.516-1.301-8.895-3.847c-2.379-2.546-3.606-5.994-3.606-10.418c0-5.526,1.207-9.498,3.686-11.861
		C40.64,20.55,43.617,19.386,47.056,19.386z M-197.047,41.505v58.501h3.045V41.505H-197.047z M-94.95,98.644l-50.648,29.251
		l1.523,2.725l50.648-29.251L-94.95,98.644z M-16.895,125.971c-5.176,0-9.39,1.681-12.662,5.129
		c-3.272,3.448-4.969,8.251-4.969,14.345c0,3.222,0.761,6.248,2.164,9.136c1.402,2.888,3.449,5.222,6.171,6.892
		c2.721,1.67,5.84,2.484,9.296,2.484c3.189,0,6.141-0.733,8.895-2.244c2.755-1.511,4.828-3.793,6.331-6.732
		c1.503-2.938,2.324-6.214,2.324-9.937c0-3.673-0.736-6.96-2.164-9.857c-1.427-2.897-3.529-5.192-6.251-6.812
		C-10.48,126.756-13.506,125.971-16.895,125.971z M6.987,126.612v36.704h4.888v-17.31h19.073v17.31h4.888v-36.704h-4.888v15.066
		H11.875v-15.066H6.987z M-16.895,130.138c2.421,0,4.626,0.616,6.571,1.843c1.945,1.227,3.398,2.98,4.408,5.209
		c1.01,2.229,1.523,4.785,1.523,7.773c0,4.725-1.164,8.408-3.526,10.979c-2.362,2.571-5.399,3.847-9.056,3.847
		c-3.59,0-6.596-1.301-8.976-3.847c-2.379-2.546-3.526-5.994-3.526-10.418c0-5.526,1.207-9.498,3.686-11.861
		C-23.311,131.302-20.334,130.138-16.895,130.138z"/>
</g>
</svg>
